<svg xmlns="http://www.w3.org/2000/svg" viewBox="0 0 260.93 232.19"><defs><style>.cls-1{fill:#aee0cd;}.cls-2,.cls-3{fill:none;stroke:#32383a;stroke-miterlimit:10;}.cls-2{stroke-width:0.97px;}.cls-3{stroke-width:0.65px;}</style></defs><g id="Layer_2" data-name="Layer 2"><g id="Design_Development" data-name="Design Development"><path class="cls-1" d="M260.93,232.19V4.72A4.72,4.72,0,0,0,256.21,0H4.72A4.72,4.72,0,0,0,0,4.72V232.19Z"/><line class="cls-2" x1="125.13" y1="45.21" x2="126.63" y2="69.05"/><line class="cls-2" x1="134.24" y1="190.06" x2="132.74" y2="166.22"/><line class="cls-2" x1="143.28" y1="188.93" x2="138.81" y2="165.5"/><line class="cls-2" x1="116.09" y1="46.36" x2="120.55" y2="69.78"/><line class="cls-2" x1="152.1" y1="186.65" x2="144.74" y2="163.98"/><line class="cls-2" x1="114.62" y1="71.29" x2="107.26" y2="48.63"/><line class="cls-2" x1="98.79" y1="51.98" x2="108.94" y2="73.57"/><line class="cls-2" x1="150.41" y1="161.71" x2="160.58" y2="183.3"/><line class="cls-2" x1="103.58" y1="76.52" x2="90.8" y2="56.37"/><line class="cls-2" x1="168.57" y1="178.9" x2="155.77" y2="158.76"/><line class="cls-2" x1="160.75" y1="155.2" x2="175.93" y2="173.54"/><line class="cls-2" x1="83.43" y1="61.72" x2="98.61" y2="80.08"/><line class="cls-2" x1="94.19" y1="84.3" x2="76.79" y2="67.95"/><line class="cls-2" x1="182.58" y1="167.31" x2="165.18" y2="150.97"/><line class="cls-2" x1="169.07" y1="146.26" x2="188.39" y2="160.29"/><line class="cls-2" x1="70.98" y1="74.98" x2="90.28" y2="89.01"/><line class="cls-2" x1="86.97" y1="94.15" x2="66.09" y2="82.68"/><line class="cls-2" x1="193.27" y1="152.59" x2="172.39" y2="141.11"/><line class="cls-2" x1="62.21" y1="90.92" x2="84.39" y2="99.7"/><line class="cls-2" x1="174.97" y1="135.56" x2="197.14" y2="144.34"/><line class="cls-2" x1="82.52" y1="105.52" x2="59.39" y2="99.59"/><line class="cls-2" x1="199.96" y1="135.67" x2="176.84" y2="129.74"/><line class="cls-2" x1="57.68" y1="108.54" x2="81.36" y2="111.52"/><line class="cls-2" x1="201.67" y1="126.72" x2="178" y2="123.73"/><line class="cls-2" x1="202.24" y1="117.63" x2="178.42" y2="117.63"/><line class="cls-2" x1="80.94" y1="117.63" x2="57.11" y2="117.63"/><line class="cls-2" x1="201.67" y1="108.53" x2="178" y2="111.52"/><line class="cls-2" x1="81.36" y1="123.73" x2="57.68" y2="126.72"/><line class="cls-2" x1="82.51" y1="129.74" x2="59.38" y2="135.67"/><line class="cls-2" x1="199.96" y1="99.57" x2="176.84" y2="105.52"/><line class="cls-2" x1="84.38" y1="135.56" x2="62.2" y2="144.35"/><line class="cls-2" x1="197.14" y1="90.92" x2="174.97" y2="99.7"/><line class="cls-2" x1="193.25" y1="82.67" x2="172.38" y2="94.14"/><line class="cls-2" x1="86.96" y1="141.11" x2="66.08" y2="152.59"/><line class="cls-2" x1="90.27" y1="146.26" x2="70.96" y2="160.28"/><line class="cls-2" x1="188.38" y1="74.98" x2="169.07" y2="89.01"/><line class="cls-2" x1="182.57" y1="67.95" x2="165.16" y2="84.29"/><line class="cls-2" x1="94.17" y1="150.96" x2="76.77" y2="167.3"/><line class="cls-2" x1="98.6" y1="155.19" x2="83.41" y2="173.54"/><line class="cls-2" x1="175.92" y1="61.72" x2="160.73" y2="80.08"/><line class="cls-2" x1="168.55" y1="56.37" x2="155.76" y2="76.51"/><line class="cls-2" x1="103.57" y1="158.76" x2="90.78" y2="178.9"/><line class="cls-2" x1="108.92" y1="161.7" x2="98.77" y2="183.29"/><line class="cls-2" x1="160.57" y1="51.98" x2="150.4" y2="73.57"/><line class="cls-2" x1="114.6" y1="163.97" x2="107.23" y2="186.64"/><line class="cls-2" x1="152.09" y1="48.63" x2="144.72" y2="71.29"/><line class="cls-2" x1="143.26" y1="46.36" x2="138.79" y2="69.78"/><line class="cls-2" x1="116.07" y1="188.91" x2="120.53" y2="165.49"/><line class="cls-2" x1="125.1" y1="190.06" x2="126.61" y2="166.22"/><line class="cls-2" x1="134.23" y1="45.21" x2="132.72" y2="69.05"/><line class="cls-3" x1="129.68" y1="45.07" x2="129.68" y2="90.56"/><line class="cls-3" x1="129.68" y1="190.21" x2="129.68" y2="144.72"/><line class="cls-3" x1="133.08" y1="144.48" x2="138.78" y2="189.63"/><line class="cls-3" x1="120.59" y1="45.64" x2="126.29" y2="90.8"/><line class="cls-3" x1="122.96" y1="91.44" x2="111.64" y2="47.35"/><line class="cls-3" x1="147.72" y1="187.92" x2="136.41" y2="143.84"/><line class="cls-3" x1="139.64" y1="142.8" x2="156.4" y2="185.11"/><line class="cls-3" x1="102.97" y1="50.16" x2="119.72" y2="92.47"/><line class="cls-3" x1="116.64" y1="93.91" x2="94.73" y2="54.05"/><line class="cls-3" x1="164.64" y1="181.22" x2="142.73" y2="141.37"/><line class="cls-3" x1="87.03" y1="58.92" x2="113.78" y2="95.75"/><line class="cls-3" x1="145.58" y1="139.52" x2="172.33" y2="176.34"/><line class="cls-3" x1="111.16" y1="97.92" x2="80.01" y2="64.73"/><line class="cls-3" x1="179.35" y1="170.53" x2="148.2" y2="137.36"/><line class="cls-3" x1="150.55" y1="134.89" x2="185.59" y2="163.89"/><line class="cls-3" x1="73.77" y1="71.38" x2="108.82" y2="100.38"/><line class="cls-3" x1="106.83" y1="103.13" x2="68.42" y2="78.75"/><line class="cls-3" x1="190.95" y1="156.52" x2="152.53" y2="132.13"/><line class="cls-3" x1="64.02" y1="86.73" x2="105.2" y2="106.11"/><line class="cls-3" x1="154.16" y1="129.15" x2="195.34" y2="148.53"/><line class="cls-3" x1="103.93" y1="109.26" x2="60.66" y2="95.21"/><line class="cls-3" x1="198.69" y1="140.05" x2="155.43" y2="126"/><line class="cls-3" x1="156.27" y1="122.7" x2="200.96" y2="131.23"/><line class="cls-3" x1="58.4" y1="104.03" x2="103.09" y2="112.56"/><line class="cls-3" x1="202.1" y1="122.18" x2="156.67" y2="119.33"/><line class="cls-3" x1="102.68" y1="115.94" x2="57.25" y2="113.08"/><line class="cls-3" x1="57.25" y1="122.19" x2="102.68" y2="119.33"/><line class="cls-3" x1="202.1" y1="113.07" x2="156.67" y2="115.93"/><line class="cls-3" x1="200.95" y1="104.02" x2="156.26" y2="112.55"/><line class="cls-3" x1="58.4" y1="131.23" x2="103.09" y2="122.7"/><line class="cls-3" x1="60.66" y1="140.06" x2="103.93" y2="126"/><line class="cls-3" x1="198.69" y1="95.2" x2="155.42" y2="109.26"/><line class="cls-3" x1="195.33" y1="86.73" x2="154.15" y2="106.11"/><line class="cls-3" x1="64.01" y1="148.53" x2="105.19" y2="129.15"/><line class="cls-3" x1="68.4" y1="156.5" x2="106.82" y2="132.13"/><line class="cls-3" x1="190.94" y1="78.75" x2="152.51" y2="103.13"/><line class="cls-3" x1="185.58" y1="71.38" x2="150.53" y2="100.37"/><line class="cls-3" x1="73.76" y1="163.88" x2="108.8" y2="134.88"/><line class="cls-3" x1="79.99" y1="170.53" x2="111.15" y2="137.35"/><line class="cls-3" x1="179.34" y1="64.73" x2="148.19" y2="97.91"/><line class="cls-3" x1="87.01" y1="176.34" x2="113.76" y2="139.52"/><line class="cls-3" x1="172.32" y1="58.92" x2="145.57" y2="95.74"/><line class="cls-3" x1="164.63" y1="54.05" x2="142.72" y2="93.91"/><line class="cls-3" x1="94.7" y1="181.22" x2="116.62" y2="141.36"/><line class="cls-3" x1="156.38" y1="50.16" x2="139.63" y2="92.47"/><line class="cls-3" x1="102.94" y1="185.1" x2="119.7" y2="142.8"/><line class="cls-3" x1="147.71" y1="47.35" x2="136.39" y2="91.44"/><line class="cls-3" x1="111.61" y1="187.92" x2="122.93" y2="143.84"/><line class="cls-3" x1="120.57" y1="189.62" x2="126.27" y2="144.48"/><line class="cls-3" x1="138.76" y1="45.64" x2="133.05" y2="90.8"/></g></g></svg>