<svg xmlns="http://www.w3.org/2000/svg" viewBox="0 0 55.06 34.15"><defs><style>.cls-1{fill:#32383a;}</style></defs><g id="Layer_2" data-name="Layer 2"><g id="Design_Development" data-name="Design Development"><path class="cls-1" d="M53,10v1.11h-.22V10h-.43V9.74h1.08V10Z"/><path class="cls-1" d="M54.83,11.06v-1l-.4,1h-.2l-.4-1v1h-.22V9.74h.3l.42,1,.42-1h.31v1.32Z"/><path class="cls-1" d="M20,18.72c0,5.11-3.68,9.46-9,9.46-4.64,0-7.1-3.35-7.76-7.63V33.81H0V9.6H3.32v7.3C4,12.62,6.44,9.27,11.08,9.27,16.35,9.27,20,13.62,20,18.72Zm-3.48,0a6.23,6.23,0,0,0-6.63-6.46,6.2,6.2,0,0,0-6.6,6.46,6.21,6.21,0,0,0,6.6,6.47A6.24,6.24,0,0,0,16.55,18.72Z"/><path class="cls-1" d="M49.65,9.6,43.08,25.19c-2.25,5.31-4.84,9-11.24,9v-3c3.85,0,6-2,7.5-5.31H37.25L29.88,9.6h3.58L39.4,22.87h1.16L46.17,9.6Z"/><path class="cls-1" d="M47.81,26.19a2,2,0,1,1,2,2A2,2,0,0,1,47.81,26.19Z"/><polygon class="cls-1" points="22.46 2.62 23.86 3.73 23.86 27.84 27.17 27.84 27.17 0 22.46 2.62"/></g></g></svg>