<svg xmlns="http://www.w3.org/2000/svg" viewBox="0 0 30.87 27.76"><defs><style>.cls-1{fill:#32383a;}</style></defs><g id="Layer_2" data-name="Layer 2"><g id="Iconography"><path class="cls-1" d="M2.17,2.46v2a.41.41,0,0,0,.81,0v-2a.41.41,0,1,0-.81,0Z"/><path class="cls-1" d="M2.57,4.87a.45.45,0,0,1-.45-.45v-2A.45.45,0,0,1,2.57,2,.46.46,0,0,1,3,2.46v2A.46.46,0,0,1,2.57,4.87Zm0-2.77a.36.36,0,0,0-.36.36v2a.36.36,0,0,0,.72,0v-2A.36.36,0,0,0,2.57,2.1Z"/><path class="cls-1" d="M4,3v1a.41.41,0,0,0,.81,0V3A.41.41,0,1,0,4,3Z"/><path class="cls-1" d="M4.42,4.38A.45.45,0,0,1,4,3.93V3a.46.46,0,0,1,.91,0v1A.45.45,0,0,1,4.42,4.38Zm0-1.79A.36.36,0,0,0,4.07,3v1a.36.36,0,0,0,.35.36.37.37,0,0,0,.37-.36V3A.37.37,0,0,0,4.42,2.59Z"/><path class="cls-1" d="M2.57,10.42a.41.41,0,0,0-.4.41v2a.41.41,0,0,0,.81,0v-2A.41.41,0,0,0,2.57,10.42Z"/><path class="cls-1" d="M2.57,13.24a.45.45,0,0,1-.45-.45v-2a.45.45,0,0,1,.45-.45.46.46,0,0,1,.46.45v2A.46.46,0,0,1,2.57,13.24Zm0-2.77a.36.36,0,0,0-.36.36v2a.36.36,0,1,0,.72,0v-2A.36.36,0,0,0,2.57,10.47Z"/><path class="cls-1" d="M4.42,10.91a.4.4,0,0,0-.4.41v1a.41.41,0,1,0,.81,0v-1A.41.41,0,0,0,4.42,10.91Z"/><path class="cls-1" d="M4.42,12.75A.45.45,0,0,1,4,12.3v-1a.46.46,0,0,1,.91,0v1A.45.45,0,0,1,4.42,12.75Zm0-1.79a.36.36,0,0,0-.35.36v1a.36.36,0,0,0,.35.36.37.37,0,0,0,.37-.36v-1A.37.37,0,0,0,4.42,11Z"/><path class="cls-1" d="M2.57,18.79a.41.41,0,0,0-.4.41v2a.41.41,0,1,0,.81,0v-2A.41.41,0,0,0,2.57,18.79Z"/><path class="cls-1" d="M2.57,21.61a.45.45,0,0,1-.45-.45v-2a.45.45,0,0,1,.45-.45A.46.46,0,0,1,3,19.2v2A.46.46,0,0,1,2.57,21.61Zm0-2.77a.36.36,0,0,0-.36.36v2a.36.36,0,0,0,.72,0v-2A.36.36,0,0,0,2.57,18.84Z"/><path class="cls-1" d="M4.42,19.29a.4.4,0,0,0-.4.4v1a.41.41,0,1,0,.81,0v-1A.4.4,0,0,0,4.42,19.29Z"/><path class="cls-1" d="M4.42,21.12A.45.45,0,0,1,4,20.67v-1a.46.46,0,0,1,.91,0v1A.45.45,0,0,1,4.42,21.12Zm0-1.79a.36.36,0,0,0-.35.36v1a.36.36,0,0,0,.35.36.37.37,0,0,0,.37-.36v-1A.37.37,0,0,0,4.42,19.33Z"/><path class="cls-1" d="M30,12.55H17.78V11H30a.84.84,0,0,0,.83-.85V5A.85.85,0,0,0,30,4.18H17.78V.9A.84.84,0,0,0,17,.05H9.74a.41.41,0,0,0-.41.4.41.41,0,0,0,.41.41H16L10.68,4.19A.87.87,0,0,0,10,5V6H.88a.08.08,0,0,1,0,0V.9a0,0,0,0,1,0,0h7a.41.41,0,1,0,0-.81h-7A.84.84,0,0,0,.05.9V6a.85.85,0,0,0,.83.86H10V8.42H.88a.84.84,0,0,0-.83.86v5.07a.84.84,0,0,0,.83.85H10v1.59H.88a.85.85,0,0,0-.83.86v5.07a.84.84,0,0,0,.83.85H10v3.28a.86.86,0,0,0,.84.86H30a.85.85,0,0,0,.83-.86V21.78a.84.84,0,0,0-.83-.85H17.78V19.34H30a.85.85,0,0,0,.83-.86V17A.41.41,0,0,0,30,17v1.46a0,0,0,0,1,0,0H10.8V13.41s0,0,0,0H30a0,0,0,0,1,0,0v1.72a.41.41,0,0,0,.81,0V13.41A.85.85,0,0,0,30,12.55Zm-13,0H12.23L14.78,11H17ZM30,5v5.07a0,0,0,0,1,0,0H10.8V5s0,0,0,0H30A0,0,0,0,1,30,5ZM17,1.23V4.18H12.23ZM.88,14.39a.07.07,0,0,1,0,0V9.28s0,0,0,0H10v.88a.85.85,0,0,0,.84.85h2.43l-2.57,1.61a.85.85,0,0,0-.7.84v1ZM30,21.78v5.07s0,0,0,0H10.82a.06.06,0,0,1,0,0V21.78s0,0,0,0H30A0,0,0,0,1,30,21.78Zm-13-.85H12.23l2.55-1.59H17Zm-6.15-1.59h2.43l-2.57,1.6a.86.86,0,0,0-.7.84v1H.88a0,0,0,0,1,0,0V17.65a.08.08,0,0,1,0,0H10v.88A.86.86,0,0,0,10.82,19.34Z"/><path class="cls-1" d="M30,27.76H10.82a.89.89,0,0,1-.88-.91V23.62H.88a.89.89,0,0,1-.88-.9V17.65a.89.89,0,0,1,.88-.91H9.94V15.25H.88a.89.89,0,0,1-.88-.9V9.28a.89.89,0,0,1,.88-.91H9.94V6.88H.88A.89.89,0,0,1,0,6V.9A.89.89,0,0,1,.88,0h7a.45.45,0,1,1,0,.9H.9V6h9V5a.89.89,0,0,1,.72-.89L15.86.9H9.74a.45.45,0,0,1,0-.9H17a.89.89,0,0,1,.87.9V4.14H30a.88.88,0,0,1,.87.9v5.07A.88.88,0,0,1,30,11H17.82v1.5H30a.87.87,0,0,1,.62.26.89.89,0,0,1,.25.64v1.72a.45.45,0,1,1-.9,0V13.41H10.84v5.07H30V17a.45.45,0,1,1,.9,0v1.46a.88.88,0,0,1-.87.9H17.82v1.5H30a.88.88,0,0,1,.87.9v5.07A.89.89,0,0,1,30,27.76ZM.88,16.84a.8.8,0,0,0-.79.81v5.07a.8.8,0,0,0,.79.81H10a0,0,0,0,1,0,0v3.28a.8.8,0,0,0,.79.81H30a.79.79,0,0,0,.78-.81V21.78A.8.8,0,0,0,30,21H17.78a0,0,0,0,1-.05,0V19.34a0,0,0,0,1,.05-.05H30a.79.79,0,0,0,.78-.81V17a.36.36,0,0,0-.72,0v1.46a.08.08,0,0,1,0,.08H10.77v0a.08.08,0,0,1,0,0V13.41a.1.1,0,0,1,0-.08H30s0,0,0,.08v1.72a.36.36,0,1,0,.72,0V13.41a.79.79,0,0,0-.23-.57A.74.74,0,0,0,30,12.6H17.78a0,0,0,0,1-.05,0V11a0,0,0,0,1,.05,0H30a.79.79,0,0,0,.78-.81V5A.79.79,0,0,0,30,4.23H17.78a0,0,0,0,1-.05-.05V.9A.8.8,0,0,0,17,.09H9.74a.36.36,0,0,0,0,.72H16s0,0,.05,0a0,0,0,0,1,0,.05L10.7,4.23h0A.8.8,0,0,0,10,5V6a0,0,0,0,1,0,0H.86A.1.1,0,0,1,.81,6V.9a.08.08,0,0,1,0-.08h7A.37.37,0,0,0,8.21.45.37.37,0,0,0,7.84.09h-7A.8.8,0,0,0,.09.9V6a.8.8,0,0,0,.79.81H10a0,0,0,0,1,0,0V8.42a0,0,0,0,1,0,0H.88a.8.8,0,0,0-.79.82v5.07a.79.79,0,0,0,.79.8H10a0,0,0,0,1,0,0v1.59a0,0,0,0,1,0,.05ZM30,26.94H10.8a.1.1,0,0,1-.05-.09V21.78c0-.05,0-.08.05-.08H30a.09.09,0,0,1,0,.08v5.07a.1.1,0,0,1,0,.09Zm-19.16-.09H30V21.79H10.84Zm-.86-4H.86a.1.1,0,0,1,0-.08V17.65a.1.1,0,0,1,0-.09H10a0,0,0,0,1,0,0v.88a.8.8,0,0,0,.79.81h2.43a0,0,0,0,1,0,0s0,0,0,.05L10.7,21h0a.8.8,0,0,0-.66.79v1A0,0,0,0,1,10,22.81Zm-9.07-.1h9v-.93a.89.89,0,0,1,.72-.89l2.43-1.51H10.82a.89.89,0,0,1-.88-.9v-.83h-9ZM17,21H12.23s0,0,0,0a0,0,0,0,1,0-.05l2.55-1.59H17a0,0,0,0,1,0,.05v1.59A0,0,0,0,1,17,21Zm-4.57-.09h4.52v-1.5H14.8ZM.88,14.44h0a.1.1,0,0,1,0-.08V9.28a.1.1,0,0,1,0-.09H10a.05.05,0,0,1,0,.05v.88a.8.8,0,0,0,.79.81h2.43s0,0,0,0a0,0,0,0,1,0,.05L10.7,12.61h0a.81.81,0,0,0-.66.8v1a.05.05,0,0,1,0,0Zm0-5.16v5.06h9v-.93a.89.89,0,0,1,.72-.89L13.09,11H10.82a.89.89,0,0,1-.88-.9V9.28ZM17,12.6H12.23s0,0,0,0,0,0,0-.06l2.55-1.58H17a0,0,0,0,1,0,0v1.59A0,0,0,0,1,17,12.6Zm-4.57-.09h4.52V11H14.8ZM30,10.2H10.77v0a.08.08,0,0,1,0,0V5a.08.08,0,0,1,0-.08H30a.11.11,0,0,1,0,.09v5.07a.08.08,0,0,1,0,.08Zm-19.16-.09H30V5H10.85ZM17,4.23H12.23a0,0,0,0,1,0,0s0,0,0-.05l4.73-2.95a0,0,0,0,1,0,0,.05.05,0,0,1,0,0V4.18A0,0,0,0,1,17,4.23ZM12.4,4.14h4.52V1.31Z"/></g></g></svg>