<svg xmlns="http://www.w3.org/2000/svg" viewBox="0 0 52.48 15.43"><defs><style>.cls-1{fill:#32383a;}</style></defs><g id="Layer_2" data-name="Layer 2"><g id="Iconography"><path class="cls-1" d="M51.81,1.57H49V.67A.67.67,0,0,0,48.29,0h-7a.67.67,0,0,0-.67.67V5.76H11.92V.67A.67.67,0,0,0,11.24,0h-7a.68.68,0,0,0-.68.67v.9H.67A.67.67,0,0,0,0,2.24v11a.68.68,0,0,0,.67.68H3.52v.89a.68.68,0,0,0,.68.67h7a.67.67,0,0,0,.68-.67V9.67H36.68A.69.69,0,0,0,37.36,9a.68.68,0,0,0-.68-.67H11.92V7.11H40.57V8.32H39.12a.67.67,0,0,0-.67.67.68.68,0,0,0,.67.68h1.45v5.09a.67.67,0,0,0,.67.67h7a.67.67,0,0,0,.67-.67v-.89h2.85a.68.68,0,0,0,.67-.68V2.24a.67.67,0,0,0-.67-.67M10.57,14.09H8.4V7.54a.68.68,0,0,0-.68-.68.67.67,0,0,0-.67.68v6.55H4.87V7.33a.67.67,0,0,0-.67-.67.68.68,0,0,0-.68.67v5.19H1.35V2.91H3.52V4.69a.68.68,0,0,0,.68.67.67.67,0,0,0,.67-.67V1.34H7.05v3.5a.68.68,0,0,0,.67.68.69.69,0,0,0,.68-.68V1.34h2.17Zm40.57-1.57H49V7.33a.67.67,0,1,0-1.34,0v6.76H45.44V7.54a.68.68,0,1,0-1.35,0v6.55H41.92V1.34h2.17v3.5a.68.68,0,1,0,1.35,0V1.34h2.18V4.69a.67.67,0,0,0,1.34,0V2.91h2.18Z"/></g></g></svg>