<svg xmlns="http://www.w3.org/2000/svg" viewBox="0 0 41.52 13.28"><defs><style>.cls-1{fill:#32383a;}</style></defs><g id="Layer_2" data-name="Layer 2"><g id="Design_Development" data-name="Design Development"><path class="cls-1" d="M40.94,1.35H38.49V.58A.57.57,0,0,0,37.91,0H31.85a.58.58,0,0,0-.57.58V5h-21V.58A.58.58,0,0,0,9.67,0H3.61A.58.58,0,0,0,3,.58v.77H.58A.58.58,0,0,0,0,1.93v9.42a.58.58,0,0,0,.58.58H3v.77a.59.59,0,0,0,.58.58H9.67a.59.59,0,0,0,.58-.58V8.32H27.94a.58.58,0,0,0,0-1.16H10.25v-1h21v1H30a.58.58,0,0,0,0,1.16h1.25V12.7a.59.59,0,0,0,.57.58h6.06a.58.58,0,0,0,.58-.58v-.77h2.45a.58.58,0,0,0,.58-.58V1.93a.58.58,0,0,0-.58-.58M9.09,12.12H7.22V6.48a.58.58,0,0,0-1.16,0v5.64H4.19V6.3A.58.58,0,0,0,3,6.3v4.47H1.16V2.5H3V4A.58.58,0,0,0,4.19,4V1.16H6.06v3a.58.58,0,0,0,1.16,0v-3H9.09Zm31.28-1.35H38.49V6.3a.58.58,0,1,0-1.15,0v5.82H35.46V6.48a.58.58,0,0,0-.57-.58.59.59,0,0,0-.59.58v5.64H32.43v-11H34.3v3a.59.59,0,0,0,.59.58.58.58,0,0,0,.57-.58v-3h1.88V4a.58.58,0,1,0,1.15,0V2.5h1.88Z"/></g></g></svg>