<svg xmlns="http://www.w3.org/2000/svg" viewBox="0 0 228.69 22.63"><defs><style>.cls-1{fill:#faf2df;}</style></defs><g id="Layer_2" data-name="Layer 2"><g id="Design_Development" data-name="Design Development"><path class="cls-1" d="M6.93,18A6.78,6.78,0,0,1,0,11.32,6.77,6.77,0,0,1,6.93,4.67C11,4.67,13.3,7.49,13.42,10H11.08C11,8.45,9.66,6.77,6.88,6.77a4.29,4.29,0,0,0-4.43,4.55c0,2.56,2,4.55,5,4.55s5.26-1.54,5.73-3.62h.23A6.42,6.42,0,0,1,6.93,18Z"/><path class="cls-1" d="M28.71,10.27v7.47H26.38v-7c0-2.74-1.4-4.09-3.74-4.09a3.86,3.86,0,0,0-4.2,4.09v7H16.11V.47h2.33V9.28c.47-2.75,2.26-4.61,5.25-4.61C27,4.67,28.71,6.79,28.71,10.27Z"/><path class="cls-1" d="M45.92,11.53c0,4.92-1.4,6.44-3.11,6.44a2.06,2.06,0,0,1-2.14-2.33V11.06H39.5c0,3.38-1.12,6.91-4.78,6.91-2,0-3.44-1.19-3.44-3,0-2.64,2.87-3.69,6.12-4-3.29-.16-5.14-.87-5.14-2.78,0-2.17,2-3.52,5.16-3.52C40.83,4.67,43,6.32,43,10v4.9c0,.77.33,1.05.77,1.05.66,0,1.91-.59,1.91-4.72a28,28,0,0,0-.86-6.37h.23A28.68,28.68,0,0,1,45.92,11.53Zm-5.25-1.26c0-1.75-.7-3.62-4-3.62-2,0-3.33.68-3.33,2,0,1.61,1.75,2.2,6,2.2h1.4Zm-1.4.79c-4,0-5.77,1.17-5.77,3.06a1.78,1.78,0,0,0,2,1.87C38.05,16,39.27,14,39.27,11.06Z"/><path class="cls-1" d="M50.55,17.74H48.21V.47h2.34Z"/><path class="cls-1" d="M56.15,17.74H53.81V.47h2.34Z"/><path class="cls-1" d="M72.37,11.32C72.37,14.89,70.29,18,66,18a6.84,6.84,0,0,1-7.17-6.65,6.7,6.7,0,0,1,6.94-6.65C70.29,4.67,72.37,7.72,72.37,11.32Zm-.23,0h-11c0,2.56,2,4.55,5.37,4.55S72,14.1,72.14,11.32ZM61.45,9.57h8.4c-.44-1.75-1.66-2.94-4.13-2.94A4.2,4.2,0,0,0,61.45,9.57Z"/><path class="cls-1" d="M87.67,10.27v7.47H85.33v-7c0-2.74-1.4-4.09-3.73-4.09a3.86,3.86,0,0,0-4.2,4.09v7H75.06V4.9H77.4V9.28c.47-2.75,2.26-4.61,5.25-4.61C85.91,4.67,87.67,6.79,87.67,10.27Z"/><path class="cls-1" d="M104.83,17.37c0,3.33-3.41,5.26-7.71,5.26-3.57,0-6.3-1.12-6.3-3.56A3.64,3.64,0,0,1,92,16.5a2.13,2.13,0,0,1-1-1.94,3.9,3.9,0,0,1,1.26-2.77A3.75,3.75,0,0,1,90.94,9c0-2.77,2.82-4.31,5.83-4.31a6.7,6.7,0,0,1,4.81,1.75,2.94,2.94,0,0,0,1.54-2.24c0-1.36-1.3-1.61-2.73-1.61V.47C102.82.47,104,1.3,104,3a4.43,4.43,0,0,1-2.27,3.57A3.68,3.68,0,0,1,102.61,9c0,2.79-2.82,4.32-5.84,4.32A7.1,7.1,0,0,1,92.41,12a3.18,3.18,0,0,0-.89,2.1,1.56,1.56,0,0,0,1.64,1.7c2.59,0,4.62-1.63,7.72-1.63C103.47,14.12,104.83,15.38,104.83,17.37Zm-2.34.6c0-1.14-.72-1.87-2.24-1.87-2.54,0-4.18.82-6.49.82a3.68,3.68,0,0,1-1.58-.3,3.21,3.21,0,0,0-.77,2c0,2.1,2.35,2.63,5,2.63C99.88,21.23,102.49,19.74,102.49,18ZM93.2,9a2,2,0,0,0,.63,1.47,21.27,21.27,0,0,1,2.9-1.59c1-.46,2-.9,3-1.37a4.3,4.3,0,0,0-2.92-.89C94.7,6.6,93.2,7.47,93.2,9Zm6.68-1.3c-1,.51-2.12,1-3.08,1.4A19,19,0,0,0,94,10.59a4.41,4.41,0,0,0,2.75.78c2.08,0,3.58-.87,3.58-2.39A2,2,0,0,0,99.88,7.68Z"/><path class="cls-1" d="M119.42,11.32c0,3.57-2.08,6.65-6.37,6.65a6.84,6.84,0,0,1-7.17-6.65,6.7,6.7,0,0,1,6.94-6.65C117.34,4.67,119.42,7.72,119.42,11.32Zm-.23,0h-11c0,2.56,2,4.55,5.36,4.55S119.07,14.1,119.19,11.32ZM108.5,9.57h8.4c-.44-1.75-1.66-2.94-4.13-2.94A4.19,4.19,0,0,0,108.5,9.57Z"/><path class="cls-1" d="M139.8,4.9l-4.62,11c-1.59,3.73-3.41,6.3-7.91,6.3v-2.1c2.71,0,4.25-1.4,5.27-3.73h-1.46L125.89,4.9h2.52l4.18,9.34h.81l3.95-9.34Z"/><path class="cls-1" d="M140.67,11.32A6.89,6.89,0,1,1,147.56,18,6.68,6.68,0,0,1,140.67,11.32Zm11.32,0a4.44,4.44,0,1,0-8.87,0,4.44,4.44,0,1,0,8.87,0Z"/><path class="cls-1" d="M169.5,4.9V17.74h-2.33V13.37C166.7,16.1,164.92,18,162,18c-3.15,0-4.9-2.13-4.9-5.6V4.9h2.34v7c0,2.73,1.4,4.09,3.61,4.09a3.84,3.84,0,0,0,4.09-4.09v-7Z"/><path class="cls-1" d="M183.16,9.8h-2.33c0-1.56-.56-2.92-2.34-2.92s-3.38,1.36-3.38,6.19v4.67h-2.34V5.13h2.34v5.39c.39-3.85,1.77-5.62,4.2-5.62C182.11,4.9,183.16,7,183.16,9.8Z"/><path class="cls-1" d="M196.24,13.81c0,2.43-2.38,4.16-6.43,4.16-3.73,0-5.83-1.82-5.83-4.06A3.53,3.53,0,0,1,185.5,11a2.72,2.72,0,0,1-1.17-2.38c0-2,2.12-3.94,6-3.94,4.06,0,5.37,2.12,5.46,4.43a27.48,27.48,0,0,0-7.17.75c.47.07,1,.14,1.64.21C194.63,10.52,196.24,11.46,196.24,13.81Zm-2.33.43c0-1.24-.92-1.68-4.21-2.09a11,11,0,0,1-3.92-1,2.85,2.85,0,0,0-1.1,2.24c0,2,2.17,3,4.42,3C192.53,16.45,193.91,15.29,193.91,14.24Zm-5.82-4.51a23,23,0,0,1,5.32-.81c-.11-1-.88-2.27-3.45-2.27-2.06,0-3.29.8-3.29,1.8C186.67,9.13,187.13,9.5,188.09,9.73Z"/><path class="cls-1" d="M211.76,11.32c0,3.57-2.07,6.65-6.37,6.65a6.84,6.84,0,0,1-7.16-6.65,6.69,6.69,0,0,1,6.93-6.65C209.69,4.67,211.76,7.72,211.76,11.32Zm-.23,0h-11c0,2.56,2,4.55,5.37,4.55S211.41,14.1,211.53,11.32ZM200.84,9.57h8.4c-.44-1.75-1.66-2.94-4.13-2.94A4.2,4.2,0,0,0,200.84,9.57Z"/><path class="cls-1" d="M216.79,17.74h-2.34V.47h2.34Z"/><path class="cls-1" d="M228.69,4.9V7h-8.05c3.73.51,6.16,2.71,6.16,5.48,0,2.57-1.94,5.26-6.23,5.26v-2.1a3.55,3.55,0,0,0,3.9-3.69c0-2.41-1.17-4.95-5.58-4.95V4.9h5.46c-3.62-.26-5-.92-5-2.24,0-1.61,2-2.66,4.29-2.66s4.81,1,4.81,3.73h-2.33c0-1.32-1.48-1.87-2.95-1.87-1.09,0-3,.31-3,1.29C220.17,3.94,221.48,4.9,228.69,4.9Z"/></g></g></svg>