<svg xmlns="http://www.w3.org/2000/svg" viewBox="0 0 128.15 16.51"><defs><style>.cls-1{fill:#32383a;}</style></defs><g id="Layer_2" data-name="Layer 2"><g id="Design_Development" data-name="Design Development"><path class="cls-1" d="M6.54,16.51A6.4,6.4,0,0,1,0,10.23,6.39,6.39,0,0,1,6.54,4c3.83,0,6,2.66,6.11,5.06h-2.2c-.11-1.49-1.34-3.08-4-3.08a4.05,4.05,0,0,0-4.18,4.29c0,2.43,1.87,4.3,4.73,4.3s5-1.46,5.39-3.41h.22A6.05,6.05,0,0,1,6.54,16.51Z"/><path class="cls-1" d="M14.64,10.23A6.31,6.31,0,0,1,21.14,4a6.28,6.28,0,1,1,0,12.55A6.32,6.32,0,0,1,14.64,10.23Zm10.68,0a4.19,4.19,0,1,0-8.37,0,4.19,4.19,0,1,0,8.37,0Z"/><path class="cls-1" d="M42.05,9.24v7h-2.2V9.68c0-2.57-1.32-3.85-3.52-3.85a3.64,3.64,0,0,0-4,3.85v6.61h-2.2V4.18h2.2V8.32a4.78,4.78,0,0,1,5-4.36C40.4,4,42.05,6,42.05,9.24Z"/><path class="cls-1" d="M54.38,4.18v2c-6.45,0-8.36,2.47-8.36,5,0,2.11,1.67,3.28,3.63,3.28a4.42,4.42,0,0,0,4.51-4.74h.22c0,4.67-1.76,6.83-5,6.83a4.64,4.64,0,0,1-4.93-4.73c0-3.17,2.57-5.16,7.46-5.62H43.82v-2H48V0h2.2V4.18Z"/><path class="cls-1" d="M69.51,10.43c0,4.65-1.32,6.08-2.93,6.08a1.94,1.94,0,0,1-2-2.2V10h-1.1c0,3.19-1.06,6.52-4.52,6.52-1.89,0-3.23-1.13-3.23-2.8,0-2.49,2.71-3.48,5.77-3.81-3.11-.15-4.85-.81-4.85-2.61,0-2,1.87-3.33,4.87-3.33C64.71,4,66.76,5.53,66.76,9v4.63c0,.72.3,1,.72,1,.62,0,1.81-.55,1.81-4.45a26,26,0,0,0-.82-6h.22A27.25,27.25,0,0,1,69.51,10.43Zm-5-1.19c0-1.65-.66-3.41-3.79-3.41-1.85,0-3.15.64-3.15,1.87,0,1.52,1.65,2.07,5.62,2.07h1.32ZM63.24,10c-3.72,0-5.44,1.1-5.44,2.89a1.68,1.68,0,0,0,1.92,1.76C62.09,14.64,63.24,12.79,63.24,10Z"/><path class="cls-1" d="M77.66,16.51a6.4,6.4,0,0,1-6.54-6.28A6.39,6.39,0,0,1,77.66,4c3.83,0,6,2.66,6.12,5.06h-2.2c-.11-1.49-1.35-3.08-4-3.08a4.06,4.06,0,0,0-4.19,4.29c0,2.43,1.87,4.3,4.74,4.3s5-1.46,5.39-3.41h.22A6.06,6.06,0,0,1,77.66,16.51Z"/><path class="cls-1" d="M95.56,4.18v2c-6.45,0-8.36,2.47-8.36,5,0,2.11,1.67,3.28,3.63,3.28a4.42,4.42,0,0,0,4.51-4.74h.22c0,4.67-1.76,6.83-5,6.83a4.63,4.63,0,0,1-4.93-4.73c0-3.17,2.57-5.16,7.46-5.62H85v-2h4.18V0h2.2V4.18Z"/><path class="cls-1" d="M114.05,4.18V16.29h-2.2V12.17c-.44,2.58-2.11,4.34-4.84,4.34-3,0-4.62-2-4.62-5.29v-7h2.2v6.61c0,2.57,1.32,3.85,3.41,3.85a3.61,3.61,0,0,0,3.85-3.85V4.18Z"/><path class="cls-1" d="M128.15,12.59c0,2.29-2.25,3.92-6.05,3.92-3.53,0-5.51-1.72-5.51-3.83A3.33,3.33,0,0,1,118,9.93a2.58,2.58,0,0,1-1.1-2.25c0-1.91,2-3.72,5.64-3.72,3.83,0,5.06,2,5.15,4.18a25.47,25.47,0,0,0-6.76.71l1.54.2C126.63,9.49,128.15,10.37,128.15,12.59ZM126,13c0-1.17-.86-1.59-4-2a10.68,10.68,0,0,1-3.69-.93,2.69,2.69,0,0,0-1,2.12c0,1.89,2,2.86,4.16,2.86C124.65,15.08,126,14,126,13Zm-5.48-4.25a21.67,21.67,0,0,1,5-.77c-.11-1-.83-2.14-3.25-2.14-1.94,0-3.11.75-3.11,1.7C119.12,8.17,119.56,8.52,120.47,8.74Z"/></g></g></svg>