<svg xmlns="http://www.w3.org/2000/svg" viewBox="0 0 39.8 16.03"><defs><style>.cls-1{fill:#32383a;}</style></defs><g id="Layer_2" data-name="Layer 2"><g id="Iconography"><path class="cls-1" d="M39.16,5.83H37.82V2.57a.64.64,0,0,0-.64-.64H33.92V.64A.64.64,0,0,0,33.28,0h-6a.64.64,0,0,0-.64.64V5.83H13.14V.64A.64.64,0,0,0,12.5,0h-6a.64.64,0,0,0-.64.64V1.93H2.62A.64.64,0,0,0,2,2.57V5.83H.64A.64.64,0,0,0,0,6.46v3.1a.64.64,0,0,0,.64.64H2v3.26a.64.64,0,0,0,.64.64H5.88v1.29a.64.64,0,0,0,.64.64h6a.64.64,0,0,0,.64-.64V10.2H26.66v5.19a.64.64,0,0,0,.64.64h6a.64.64,0,0,0,.64-.64V14.1h3.26a.64.64,0,0,0,.64-.64V10.2h1.34a.64.64,0,0,0,.64-.64V6.46A.64.64,0,0,0,39.16,5.83ZM38.52,7.1V8.92h-.7V7.1Zm-5.24.38a.64.64,0,0,0-.64.64v6.63h-4.7V1.28h4.7V5.09a.64.64,0,0,0,.64.64.64.64,0,0,0,.64-.64V3.2h2.62v9.62H33.92V8.12A.64.64,0,0,0,33.28,7.48ZM26.66,7.1V8.92H13.14V7.1Zm-14.8,7.65H7.16V11.8a.64.64,0,0,0-1.28,0v1H3.26V3.2H5.88V9A.64.64,0,1,0,7.16,9V1.28h4.7V14.75ZM1.28,8.92V7.1H2V8.92Z"/></g></g></svg>