<svg xmlns="http://www.w3.org/2000/svg" viewBox="0 0 41.52 15.39"><defs><style>.cls-1{fill:#32383a;}</style></defs><g id="Layer_2" data-name="Layer 2"><g id="Design_Development" data-name="Design Development"><path class="cls-1" d="M41,5.72H39.68V.58A.58.58,0,0,0,39.1,0H35.24a.58.58,0,0,0-.57.58V6.12H34.2A2.46,2.46,0,0,1,33.39,6L30.63,5a3.09,3.09,0,0,0-2.52.23l-2.45,1.4a1.58,1.58,0,0,1-1.31.09,9.68,9.68,0,0,0-7.18,0,1.52,1.52,0,0,1-1.3-.09l-2.46-1.4A3.09,3.09,0,0,0,10.89,5L8.13,6a2.46,2.46,0,0,1-.81.14H6.85V4.88a.57.57,0,0,0-.57-.58.58.58,0,0,0-.58.58v9.36H3V1.15H5.7V2.84a.57.57,0,0,0,.58.57.56.56,0,0,0,.57-.57V.58A.57.57,0,0,0,6.28,0H2.42a.58.58,0,0,0-.58.58V5.72H.58A.58.58,0,0,0,0,6.3V9.09a.58.58,0,0,0,.58.58H1.84v5.14a.58.58,0,0,0,.58.58H6.28a.57.57,0,0,0,.57-.58v-5h.47a3.67,3.67,0,0,0,1.19-.2l2.75-.95a1.9,1.9,0,0,1,1.58.15l2.46,1.39a2.69,2.69,0,0,0,1.32.35,2.59,2.59,0,0,0,1-.19,8.62,8.62,0,0,1,6.32,0,2.81,2.81,0,0,0,1,.19,2.62,2.62,0,0,0,1.31-.35l.64-.36a.58.58,0,1,0-.57-1l-.63.36a1.55,1.55,0,0,1-1.31.09,9.82,9.82,0,0,0-7.18,0,1.49,1.49,0,0,1-1.3-.09l-2.46-1.4a3.1,3.1,0,0,0-1.76-.39V6a1.91,1.91,0,0,1,1.19.24L15.3,7.66a2.65,2.65,0,0,0,2.3.16,8.62,8.62,0,0,1,6.32,0,2.81,2.81,0,0,0,1,.19,2.73,2.73,0,0,0,1.31-.35l2.46-1.39A1.91,1.91,0,0,1,29.87,6V7.39a3,3,0,0,0-1.76.4.56.56,0,0,0-.22.78.58.58,0,0,0,.79.22,1.91,1.91,0,0,1,1.58-.15L33,9.59a3.67,3.67,0,0,0,1.19.2h.47v5a.58.58,0,0,0,.57.58H39.1a.58.58,0,0,0,.58-.58V9.67H41a.58.58,0,0,0,.57-.58V6.3A.58.58,0,0,0,41,5.72M1.16,8.52V6.87h.68V8.52Zm7,0a2.46,2.46,0,0,1-.81.14H6.85V7.27h.47a3.67,3.67,0,0,0,1.19-.2l2-.69V7.69Zm26.07.14a2.46,2.46,0,0,1-.81-.14L31,7.69V6.38l2,.69a3.67,3.67,0,0,0,1.19.2h.47V8.64Zm4.33,5.6H35.82V1.15h2.71Zm1.84-5.72h-.69V6.87h.69Z"/></g></g></svg>