<svg xmlns="http://www.w3.org/2000/svg" viewBox="0 0 205.85 19.96"><defs><style>.cls-1{fill:#32383a;}</style></defs><g id="Layer_2" data-name="Layer 2"><g id="Design_Development" data-name="Design Development"><path class="cls-1" d="M9.77,4.48V6.31C3.81,6.31,2,8.59,2,10.92A3.06,3.06,0,0,0,5.4,14,4.08,4.08,0,0,0,9.57,9.57h.2c0,4.32-1.62,6.31-4.6,6.31A4.28,4.28,0,0,1,.61,11.51c0-2.93,2.38-4.77,6.9-5.2H0V4.48H3.87V.61h2V4.48Z"/><path class="cls-1" d="M22.6,9.17v6.51h-2V9.57C20.56,7.19,19.34,6,17.3,6a3.37,3.37,0,0,0-3.66,3.56v6.11h-2V.61h2v7.7a4.41,4.41,0,0,1,4.58-4C21.07,4.28,22.6,6.13,22.6,9.17Z"/><path class="cls-1" d="M36.74,10.08c0,3.12-1.81,5.8-5.56,5.8a6,6,0,0,1-6.25-5.8A5.85,5.85,0,0,1,31,4.28C34.93,4.28,36.74,7,36.74,10.08Zm-.2,0H27c0,2.24,1.73,4,4.68,4S36.44,12.5,36.54,10.08ZM27.21,8.55h7.33C34.16,7,33.1,6,30.94,6A3.67,3.67,0,0,0,27.21,8.55Z"/><path class="cls-1" d="M43,1.51a1.53,1.53,0,0,1,3.06,0,1.53,1.53,0,1,1-3.06,0Zm2.55,17.84h-2V4.48h2Z"/><path class="cls-1" d="M47.93,10.08a6,6,0,1,1,6,5.8A5.83,5.83,0,0,1,47.93,10.08Zm9.88,0a3.87,3.87,0,1,0-7.74,0,3.87,3.87,0,1,0,7.74,0Z"/><path class="cls-1" d="M73.07,4.48v11.2H71v-3.8a4.38,4.38,0,0,1-4.48,4c-2.76,0-4.28-1.85-4.28-4.88V4.48h2v6.11c0,2.38,1.22,3.56,3.15,3.56A3.34,3.34,0,0,0,71,10.59V4.48Z"/><path class="cls-1" d="M85,8.76h-2c0-1.37-.49-2.55-2-2.55s-3,1.18-3,5.4v4.07h-2v-11h2V9.39C78.3,6,79.5,4.48,81.62,4.48,84.06,4.48,85,6.33,85,8.76Z"/><path class="cls-1" d="M97.6,9.17v6.51h-2V9.57C95.56,7.19,94.34,6,92.3,6a3.36,3.36,0,0,0-3.66,3.56v6.11h-2V4.48h2V8.31a4.41,4.41,0,0,1,4.58-4C96.07,4.28,97.6,6.13,97.6,9.17Z"/><path class="cls-1" d="M111.74,10.08c0,3.12-1.81,5.8-5.56,5.8a6,6,0,0,1-6.25-5.8,5.85,5.85,0,0,1,6-5.8C109.93,4.28,111.74,7,111.74,10.08Zm-.2,0H102c0,2.24,1.73,4,4.68,4S111.44,12.5,111.54,10.08Zm-9.33-1.53h7.33C109.16,7,108.1,6,105.94,6A3.67,3.67,0,0,0,102.21,8.55Z"/><path class="cls-1" d="M124.62,4.48l-4,9.57c-1.38,3.26-3,5.5-6.9,5.5V17.72c2.36,0,3.71-1.22,4.6-3.26H117l-4.52-10h2.2l3.64,8.15H119l3.45-8.15Z"/><path class="cls-1" d="M143.07,10.08a5.57,5.57,0,0,1-5.5,5.8c-2.85,0-4.36-2.05-4.77-4.68v4.48h-2V.61h2V9c.41-2.63,1.92-4.68,4.77-4.68A5.58,5.58,0,0,1,143.07,10.08Zm-2.14,0a4.07,4.07,0,0,0-8.13,0,4.07,4.07,0,0,0,8.13,0Z"/><path class="cls-1" d="M156.7,10.08c0,3.12-1.81,5.8-5.56,5.8a6,6,0,0,1-6.25-5.8,5.84,5.84,0,0,1,6.05-5.8C154.89,4.28,156.7,7,156.7,10.08Zm-.2,0h-9.58c0,2.24,1.74,4,4.69,4S156.39,12.5,156.5,10.08Zm-9.33-1.53h7.33C154.11,7,153.05,6,150.9,6A3.67,3.67,0,0,0,147.17,8.55Z"/><path class="cls-1" d="M171.15,15.36c0,2.91-3,4.6-6.72,4.6-3.12,0-5.5-1-5.5-3.12a3.23,3.23,0,0,1,1-2.24,1.84,1.84,0,0,1-.89-1.69,3.41,3.41,0,0,1,1.09-2.42A3.25,3.25,0,0,1,159,8.05c0-2.43,2.46-3.77,5.08-3.77a5.91,5.91,0,0,1,4.2,1.52,2.53,2.53,0,0,0,1.34-1.95c0-1.18-1.14-1.4-2.38-1.4V.61c2.12,0,3.16.74,3.16,2.24a3.88,3.88,0,0,1-2,3.12,3.2,3.2,0,0,1,.76,2.08c0,2.42-2.47,3.76-5.1,3.76a6.08,6.08,0,0,1-3.8-1.18,2.78,2.78,0,0,0-.78,1.83A1.37,1.37,0,0,0,161,14c2.26,0,4-1.42,6.74-1.42C170,12.53,171.15,13.62,171.15,15.36Zm-2,.52c0-1-.64-1.62-2-1.62-2.22,0-3.65.71-5.66.71a3.32,3.32,0,0,1-1.39-.26,2.83,2.83,0,0,0-.67,1.73c0,1.83,2.06,2.3,4.34,2.3C166.83,18.74,169.12,17.43,169.12,15.88ZM161,8.05a1.77,1.77,0,0,0,.55,1.28A17,17,0,0,1,164.08,8c.86-.41,1.78-.8,2.59-1.21A3.74,3.74,0,0,0,164.12,6C162.31,6,161,6.72,161,8.05Zm5.82-1.15c-.89.45-1.85.84-2.68,1.23a16.66,16.66,0,0,0-2.43,1.32,3.83,3.83,0,0,0,2.4.67c1.82,0,3.12-.75,3.12-2.07A1.7,1.7,0,0,0,166.83,6.9Z"/><path class="cls-1" d="M172.06,1.71a1.53,1.53,0,0,1,3.05,0,1.53,1.53,0,1,1-3.05,0Zm2.54,14h-2V4.48h2Z"/><path class="cls-1" d="M188.45,9.17v6.51h-2V9.57c0-2.38-1.22-3.56-3.26-3.56a3.37,3.37,0,0,0-3.66,3.56v6.11h-2V4.48h2V8.31a4.42,4.42,0,0,1,4.58-4C186.92,4.28,188.45,6.13,188.45,9.17Z"/><path class="cls-1" d="M201.48,12.26c0,2.12-2.08,3.62-5.6,3.62-3.26,0-5.1-1.58-5.1-3.54a3.06,3.06,0,0,1,1.33-2.54,2.38,2.38,0,0,1-1-2.08c0-1.77,1.85-3.44,5.21-3.44,3.55,0,4.69,1.85,4.77,3.87a23.77,23.77,0,0,0-6.25.65l1.42.18C200.07,9.39,201.48,10.21,201.48,12.26Zm-2,.37c0-1.08-.8-1.47-3.67-1.82a9.76,9.76,0,0,1-3.42-.85,2.5,2.5,0,0,0-1,1.95c0,1.76,1.9,2.65,3.85,2.65C198.24,14.56,199.44,13.54,199.44,12.63ZM194.37,8.7A20.49,20.49,0,0,1,199,8c-.1-.91-.77-2-3-2-1.79,0-2.87.69-2.87,1.57C193.13,8.17,193.53,8.49,194.37,8.7Z"/><path class="cls-1" d="M202.79,14.34a1.53,1.53,0,1,1,1.55,1.54A1.54,1.54,0,0,1,202.79,14.34Z"/></g></g></svg>