<svg xmlns="http://www.w3.org/2000/svg" viewBox="0 0 262.02 22.48"><defs><style>.cls-1{fill:#faf2df;}</style></defs><g id="Layer_2" data-name="Layer 2"><g id="Design_Development" data-name="Design Development"><path class="cls-1" d="M2.32,17.61H0V.46H2.32Z"/><path class="cls-1" d="M5,1.71a1.74,1.74,0,0,1,3.48,0A1.74,1.74,0,1,1,5,1.71Zm2.9,15.9H5.56V4.87H7.88Z"/><path class="cls-1" d="M25.12,11.24a6.34,6.34,0,0,1-6.26,6.6c-3.24,0-5-2.34-5.42-5.33v5.1H11.12V.46h2.32V10c.46-3,2.18-5.33,5.42-5.33A6.34,6.34,0,0,1,25.12,11.24Zm-2.44,0a4.36,4.36,0,0,0-4.63-4.52,4.34,4.34,0,0,0-4.61,4.52,4.34,4.34,0,0,0,4.61,4.52A4.36,4.36,0,0,0,22.68,11.24Z"/><path class="cls-1" d="M40.64,11.24c0,3.54-2.06,6.6-6.33,6.6a6.79,6.79,0,0,1-7.11-6.6,6.66,6.66,0,0,1,6.88-6.61C38.58,4.63,40.64,7.67,40.64,11.24Zm-.23,0H29.52c0,2.55,2,4.52,5.33,4.52S40.29,14,40.41,11.24ZM29.79,9.5h8.35C37.7,7.76,36.49,6.58,34,6.58A4.18,4.18,0,0,0,29.79,9.5Z"/><path class="cls-1" d="M53.61,9.73H51.29c0-1.55-.55-2.9-2.31-2.9S45.62,8.18,45.62,13v4.64H43.3V5.1h2.32v5.35c.39-3.83,1.76-5.58,4.17-5.58C52.57,4.87,53.61,7,53.61,9.73Z"/><path class="cls-1" d="M68.84,11.45c0,4.89-1.39,6.39-3.08,6.39a2.05,2.05,0,0,1-2.14-2.32V11H62.46c0,3.36-1.11,6.86-4.75,6.86-2,0-3.4-1.18-3.4-2.94,0-2.62,2.85-3.66,6.07-4-3.27-.16-5.1-.86-5.1-2.76,0-2.16,2-3.5,5.12-3.5,3.39,0,5.54,1.65,5.54,5.33v4.87c0,.77.33,1,.77,1,.64,0,1.89-.58,1.89-4.68a28,28,0,0,0-.85-6.32H68A28.8,28.8,0,0,1,68.84,11.45ZM63.62,10.2c0-1.74-.69-3.6-4-3.6-2,0-3.32.67-3.32,2,0,1.6,1.74,2.18,5.91,2.18h1.39ZM62.23,11c-3.91,0-5.72,1.16-5.72,3,0,1.25.81,1.85,2,1.85C61,15.87,62.23,13.93,62.23,11Z"/><path class="cls-1" d="M80.84,4.87V7C74.05,7,72,9.55,72,12.19c0,2.22,1.76,3.45,3.82,3.45a4.65,4.65,0,0,0,4.76-5h.23c0,4.91-1.86,7.18-5.24,7.18a4.87,4.87,0,0,1-5.19-5c0-3.34,2.71-5.42,7.86-5.91H69.71V4.87h4.41V.46h2.31V4.87Z"/><path class="cls-1" d="M95.78,11.24c0,3.54-2.06,6.6-6.32,6.6a6.79,6.79,0,0,1-7.12-6.6,6.66,6.66,0,0,1,6.88-6.61C93.72,4.63,95.78,7.67,95.78,11.24Zm-.23,0H84.66c0,2.55,2,4.52,5.33,4.52S95.43,14,95.55,11.24ZM84.94,9.5h8.34c-.44-1.74-1.65-2.92-4.1-2.92A4.16,4.16,0,0,0,84.94,9.5Z"/><path class="cls-1" d="M116,4.87l-4.59,10.89C109.84,19.46,108,22,103.56,22V19.93c2.69,0,4.22-1.39,5.24-3.71h-1.46L102.2,4.87h2.5l4.15,9.26h.81l3.92-9.26Z"/><path class="cls-1" d="M116.87,11.24a6.83,6.83,0,1,1,6.83,6.6A6.64,6.64,0,0,1,116.87,11.24Zm11.23,0a4.4,4.4,0,1,0-8.8,0,4.4,4.4,0,1,0,8.8,0Z"/><path class="cls-1" d="M145.48,4.87V17.61h-2.32V13.28c-.46,2.71-2.22,4.56-5.1,4.56-3.12,0-4.86-2.11-4.86-5.56V4.87h2.31v7c0,2.71,1.39,4,3.6,4a3.8,3.8,0,0,0,4-4V4.87Z"/><path class="cls-1" d="M159,9.73h-2.32c0-1.55-.55-2.9-2.31-2.9S151,8.18,151,13v4.64h-2.32V5.1H151v5.35c.39-3.83,1.76-5.58,4.17-5.58C158,4.87,159,7,159,9.73Z"/><path class="cls-1" d="M175.71,4.87V7c-6.79,0-8.8,2.6-8.8,5.24,0,2.22,1.76,3.45,3.82,3.45a4.65,4.65,0,0,0,4.75-5h.23c0,4.91-1.85,7.18-5.24,7.18a4.87,4.87,0,0,1-5.18-5c0-3.34,2.7-5.42,7.85-5.91h-8.55V4.87H169V.46h2.32V4.87Z"/><path class="cls-1" d="M188.11,9.73h-2.32c0-1.55-.56-2.9-2.32-2.9s-3.36,1.35-3.36,6.14v4.64h-2.32V5.1h2.32v5.35c.4-3.83,1.77-5.58,4.18-5.58C187.06,4.87,188.11,7,188.11,9.73Z"/><path class="cls-1" d="M203.33,11.45c0,4.89-1.39,6.39-3.08,6.39a2,2,0,0,1-2.13-2.32V11H197c0,3.36-1.11,6.86-4.75,6.86-2,0-3.41-1.18-3.41-2.94,0-2.62,2.85-3.66,6.07-4-3.27-.16-5.1-.86-5.1-2.76,0-2.16,2-3.5,5.12-3.5,3.39,0,5.55,1.65,5.55,5.33v4.87c0,.77.32,1,.76,1,.65,0,1.9-.58,1.9-4.68a28,28,0,0,0-.86-6.32h.23A28.26,28.26,0,0,1,203.33,11.45Zm-5.21-1.25c0-1.74-.7-3.6-4-3.6-1.95,0-3.31.67-3.31,2,0,1.6,1.73,2.18,5.9,2.18h1.4Zm-1.4.78c-3.91,0-5.72,1.16-5.72,3a1.77,1.77,0,0,0,2,1.85C195.52,15.87,196.72,13.93,196.72,11Z"/><path class="cls-1" d="M205,1.71A1.75,1.75,0,0,1,206.78,0a1.74,1.74,0,0,1,0,3.47A1.76,1.76,0,0,1,205,1.71Zm2.9,15.9H205.6V4.87h2.32Z"/><path class="cls-1" d="M223.67,10.2v7.41h-2.32V10.66c0-2.71-1.39-4.06-3.7-4.06a3.84,3.84,0,0,0-4.17,4.06v7h-2.32V4.87h2.32V9.22a5,5,0,0,1,5.21-4.59C221.94,4.63,223.67,6.74,223.67,10.2Z"/><path class="cls-1" d="M226.33,1.71a1.74,1.74,0,0,1,3.48,0,1.74,1.74,0,1,1-3.48,0Zm2.9,15.9h-2.32V4.87h2.32Z"/><path class="cls-1" d="M245,10.2v7.41h-2.32V10.66c0-2.71-1.39-4.06-3.71-4.06a3.84,3.84,0,0,0-4.17,4.06v7h-2.32V4.87h2.32V9.22A5,5,0,0,1,240,4.63C243.25,4.63,245,6.74,245,10.2Z"/><path class="cls-1" d="M262,17.24c0,3.31-3.39,5.24-7.65,5.24-3.55,0-6.26-1.12-6.26-3.55a3.65,3.65,0,0,1,1.14-2.55,2.11,2.11,0,0,1-1-1.92,3.86,3.86,0,0,1,1.25-2.76,3.67,3.67,0,0,1-1.25-2.78c0-2.76,2.8-4.29,5.79-4.29a6.62,6.62,0,0,1,4.77,1.74,2.9,2.9,0,0,0,1.53-2.22c0-1.35-1.29-1.6-2.71-1.6V.46c2.41,0,3.6.84,3.6,2.55A4.43,4.43,0,0,1,259,6.56a3.64,3.64,0,0,1,.85,2.36c0,2.76-2.8,4.29-5.79,4.29a7.06,7.06,0,0,1-4.33-1.34A3.12,3.12,0,0,0,248.8,14a1.56,1.56,0,0,0,1.63,1.69C253,15.64,255,14,258.1,14,260.67,14,262,15.27,262,17.24Zm-2.32.6c0-1.13-.72-1.85-2.23-1.85-2.52,0-4.15.81-6.44.81a3.64,3.64,0,0,1-1.57-.3,3.19,3.19,0,0,0-.77,2c0,2.08,2.34,2.62,4.94,2.62C257.1,21.09,259.7,19.61,259.7,17.84Zm-9.22-8.92a2,2,0,0,0,.62,1.46A21.46,21.46,0,0,1,254,8.8c1-.46,2-.9,3-1.36a4.26,4.26,0,0,0-2.9-.88C252,6.56,250.48,7.41,250.48,8.92Zm6.62-1.3c-1,.51-2.1,1-3.06,1.39a18.55,18.55,0,0,0-2.75,1.51,4.32,4.32,0,0,0,2.73.76c2.07,0,3.55-.85,3.55-2.36A2,2,0,0,0,257.1,7.62Z"/></g></g></svg>