<svg xmlns="http://www.w3.org/2000/svg" viewBox="0 0 15.15 20.9"><defs><style>.cls-1{opacity:0.9;}.cls-2{fill:#32383a;}</style></defs><g id="Layer_2" data-name="Layer 2"><g id="Design_Development" data-name="Design Development"><g class="cls-1"><path class="cls-2" d="M14.84,4.22a.31.31,0,0,0,.31-.31V2.75a1.54,1.54,0,0,0-1.53-1.53H12.17V.55A.55.55,0,0,0,11.62,0H3.53A.55.55,0,0,0,3,.55v.67H1.53A1.54,1.54,0,0,0,0,2.75V19.37A1.53,1.53,0,0,0,1.53,20.9H13.62a1.53,1.53,0,0,0,1.53-1.53V5.23a.31.31,0,0,0-.62,0V19.37a.92.92,0,0,1-.91.92H1.53a.92.92,0,0,1-.92-.92V2.75a.92.92,0,0,1,.92-.91H4.12v.61H3.65a.31.31,0,1,0,0,.61h.47v.07A.91.91,0,0,0,5,4h5.09a.9.9,0,0,0,.9-.91V3.06h2.29v16H1.84v-.78a.31.31,0,0,0-.62,0v1.08a.31.31,0,0,0,.31.31H13.62a.3.3,0,0,0,.3-.31V2.75a.3.3,0,0,0-.3-.3H11V1.84h2.6a.91.91,0,0,1,.91.91V3.91a.31.31,0,0,0,.31.31M10.41,3.13a.29.29,0,0,1-.29.3H5a.29.29,0,0,1-.29-.3V3.06h5.67Zm0-.68H4.74V1.84h5.67ZM3.59.61h8v.61h-8Z"/><path class="cls-2" d="M1.53,17.27A.31.31,0,0,0,1.84,17V3.06h.49a.31.31,0,1,0,0-.61h-.8a.31.31,0,0,0-.31.3V17a.31.31,0,0,0,.31.31"/><path class="cls-2" d="M6.29,9.79c1.1,1.12,1.12,1.12,1.28,1.12s.18,0,1.29-1.12l1-1a1.78,1.78,0,0,0,0-2.5A1.71,1.71,0,0,0,8.6,5.73a1.8,1.8,0,0,0-1,.33,1.78,1.78,0,0,0-1-.33,1.75,1.75,0,0,0-1.25.52,1.79,1.79,0,0,0,0,2.5l1,1M5.73,6.68a1.13,1.13,0,0,1,.81-.34,1.15,1.15,0,0,1,.82.34.27.27,0,0,0,.21.09.29.29,0,0,0,.22-.09,1.15,1.15,0,0,1,1.63,0,1.16,1.16,0,0,1,0,1.64h0C8.8,9,7.94,9.85,7.57,10.2,7.21,9.85,6.34,9,5.73,8.32h0a1.16,1.16,0,0,1,0-1.64"/><path class="cls-2" d="M3.9,13.58a.92.92,0,0,0,.92.92h5.51a.92.92,0,1,0,0-1.83H4.82a.92.92,0,0,0-.92.91m.92-.3h5.51a.31.31,0,1,1,0,.61H4.82a.31.31,0,1,1,0-.61"/><path class="cls-2" d="M4.82,17.15h5.51a.92.92,0,1,0,0-1.84H4.82a.92.92,0,1,0,0,1.84m0-1.23h5.51a.31.31,0,1,1,0,.62H4.82a.31.31,0,1,1,0-.62"/></g></g></g></svg>