<svg xmlns="http://www.w3.org/2000/svg" viewBox="0 0 30.41 30.41"><defs><style>.cls-1{fill:#32383a;}</style></defs><g id="Layer_2" data-name="Layer 2"><g id="Iconography"><path class="cls-1" d="M30.23,8.73,21.67.17A.59.59,0,0,0,21.25,0H9.15a.61.61,0,0,0-.42.17L.17,8.73A.59.59,0,0,0,0,9.15v12.1a.57.57,0,0,0,.17.42L3,24.47a.59.59,0,0,0,.84-.84L1.19,21V9.4L9.4,1.19H21L29.22,9.4V21L21,29.22H9.4L7.18,27a.59.59,0,0,0-.84.84l2.39,2.39a.62.62,0,0,0,.42.18h12.1a.6.6,0,0,0,.42-.18l8.56-8.56a.58.58,0,0,0,.18-.42V9.15a.6.6,0,0,0-.18-.42"/><path class="cls-1" d="M5.14,25.2a.62.62,0,0,0-.6.6.62.62,0,0,0,.18.42.59.59,0,0,0,.42.17.58.58,0,0,0,.59-.59.59.59,0,0,0-.17-.42.62.62,0,0,0-.42-.18"/><path class="cls-1" d="M12.53,2.61H10.24a.54.54,0,0,0-.42.18l-7,7a.64.64,0,0,0-.18.42v9.94a.6.6,0,0,0,.18.42l7,7a.57.57,0,0,0,.42.17h9.93a.59.59,0,0,0,.42-.17l7-7a.59.59,0,0,0,.17-.42V10.23a.63.63,0,0,0-.17-.42l-7-7a.56.56,0,0,0-.42-.18H18.11a.6.6,0,0,0,0,1.19h1.82l6.2,6.2a5.6,5.6,0,0,0-2.33,2,5.77,5.77,0,0,0,0,6.49,5.68,5.68,0,0,0,2.33,2l-6.2,6.19H10.48l-6.2-6.19a5.68,5.68,0,0,0,2.33-2,5.81,5.81,0,0,0,0-6.49,5.6,5.6,0,0,0-2.33-2l6.2-6.2h2a.6.6,0,0,0,0-1.19M24,15.2a4.56,4.56,0,0,1,2.61-4.12v8.24A4.54,4.54,0,0,1,24,15.2m-17.58,0A4.53,4.53,0,0,1,3.8,19.32V11.08A4.55,4.55,0,0,1,6.41,15.2"/><path class="cls-1" d="M15.38,2.61a.6.6,0,0,0-.42.18.59.59,0,0,0-.17.42.61.61,0,0,0,.17.42.6.6,0,0,0,.84,0A.62.62,0,0,0,16,3.21a.62.62,0,0,0-.6-.6"/><path class="cls-1" d="M17.85,15.2a2.74,2.74,0,1,0-2.73,2.74,2.74,2.74,0,0,0,2.73-2.74m-4.28,0a1.55,1.55,0,1,1,1.55,1.55,1.54,1.54,0,0,1-1.55-1.55"/><path class="cls-1" d="M17.61,20.55H12.8a.34.34,0,1,0,0,.67h4.81a.34.34,0,1,0,0-.67Z"/><path class="cls-1" d="M17.61,7.55H12.8a.34.34,0,0,0,0,.68h4.81a.34.34,0,0,0,0-.68Z"/><path class="cls-1" d="M17.3,23.5H13.11a.34.34,0,0,0-.34.34.34.34,0,0,0,.34.34H17.3a.34.34,0,0,0,.34-.34A.34.34,0,0,0,17.3,23.5Z"/><path class="cls-1" d="M18,22H12.46a.34.34,0,1,0,0,.67H18A.34.34,0,0,0,18,22Z"/></g></g></svg>