<svg xmlns="http://www.w3.org/2000/svg" viewBox="0 0 72.91 72.91"><defs><style>.cls-1{fill:#faf2df;}.cls-2{fill:#32383a;}</style></defs><g id="Layer_2" data-name="Layer 2"><g id="Design_Development" data-name="Design Development"><path class="cls-1" d="M72.91,36.45A36.46,36.46,0,1,1,36.46,0,36.45,36.45,0,0,1,72.91,36.45Z"/><path class="cls-2" d="M30.45,27.29V48.12l18-10.41Z"/><path class="cls-2" d="M30.45,48.88a.85.85,0,0,1-.38-.09.76.76,0,0,1-.38-.67V27.29a.76.76,0,0,1,.38-.66.79.79,0,0,1,.76,0l18,10.42a.76.76,0,0,1,0,1.32l-18,10.42A.82.82,0,0,1,30.45,48.88Zm.76-20.26V46.8L47,37.71Z"/></g></g></svg>