<svg xmlns="http://www.w3.org/2000/svg" viewBox="0 0 75.86 75.87"><defs><style>.cls-1,.cls-2{fill:none;stroke:#faf2df;stroke-miterlimit:10;}.cls-1{stroke-width:0.51px;}.cls-2{stroke-width:0.34px;}</style></defs><g id="Layer_2" data-name="Layer 2"><g id="Design_Development" data-name="Design Development"><line class="cls-1" x1="35.55" y1="0.08" x2="36.34" y2="12.53"/><line class="cls-1" x1="40.32" y1="75.79" x2="39.53" y2="63.33"/><line class="cls-1" x1="45.04" y1="75.2" x2="42.71" y2="62.95"/><line class="cls-1" x1="30.83" y1="0.67" x2="33.16" y2="12.92"/><line class="cls-1" x1="49.65" y1="74.01" x2="45.8" y2="62.16"/><line class="cls-1" x1="30.06" y1="13.71" x2="26.21" y2="1.86"/><line class="cls-1" x1="21.79" y1="3.61" x2="27.09" y2="14.9"/><line class="cls-1" x1="48.77" y1="60.97" x2="54.08" y2="72.26"/><line class="cls-1" x1="24.29" y1="16.44" x2="17.61" y2="5.9"/><line class="cls-1" x1="58.26" y1="69.96" x2="51.57" y2="59.43"/><line class="cls-1" x1="54.17" y1="57.57" x2="62.11" y2="67.16"/><line class="cls-1" x1="13.75" y1="8.71" x2="21.69" y2="18.3"/><line class="cls-1" x1="19.38" y1="20.51" x2="10.28" y2="11.96"/><line class="cls-1" x1="65.59" y1="63.9" x2="56.49" y2="55.36"/><line class="cls-1" x1="58.52" y1="52.89" x2="68.62" y2="60.23"/><line class="cls-1" x1="7.25" y1="15.63" x2="17.34" y2="22.97"/><line class="cls-1" x1="15.61" y1="25.66" x2="4.69" y2="19.66"/><line class="cls-1" x1="71.17" y1="56.2" x2="60.26" y2="50.2"/><line class="cls-1" x1="2.67" y1="23.97" x2="14.26" y2="28.56"/><line class="cls-1" x1="61.61" y1="47.3" x2="73.2" y2="51.89"/><line class="cls-1" x1="13.28" y1="31.6" x2="1.19" y2="28.5"/><line class="cls-1" x1="74.67" y1="47.36" x2="62.59" y2="44.26"/><line class="cls-1" x1="0.3" y1="33.18" x2="12.67" y2="34.74"/><line class="cls-1" x1="75.56" y1="42.68" x2="63.19" y2="41.12"/><line class="cls-1" x1="75.86" y1="37.93" x2="63.41" y2="37.93"/><line class="cls-1" x1="12.45" y1="37.93" y2="37.93"/><line class="cls-1" x1="75.56" y1="33.17" x2="63.19" y2="34.74"/><line class="cls-1" x1="12.67" y1="41.12" x2="0.3" y2="42.68"/><line class="cls-1" x1="13.28" y1="44.26" x2="1.19" y2="47.36"/><line class="cls-1" x1="74.67" y1="28.49" x2="62.58" y2="31.6"/><line class="cls-1" x1="14.25" y1="47.3" x2="2.66" y2="51.89"/><line class="cls-1" x1="73.2" y1="23.96" x2="61.61" y2="28.55"/><line class="cls-1" x1="71.16" y1="19.65" x2="60.25" y2="25.65"/><line class="cls-1" x1="15.6" y1="50.2" x2="4.69" y2="56.2"/><line class="cls-1" x1="17.33" y1="52.89" x2="7.24" y2="60.22"/><line class="cls-1" x1="68.62" y1="15.63" x2="58.52" y2="22.97"/><line class="cls-1" x1="65.58" y1="11.96" x2="56.48" y2="20.5"/><line class="cls-1" x1="19.37" y1="55.35" x2="10.27" y2="63.89"/><line class="cls-1" x1="21.69" y1="57.56" x2="13.75" y2="67.16"/><line class="cls-1" x1="62.1" y1="8.71" x2="54.17" y2="18.3"/><line class="cls-1" x1="58.25" y1="5.9" x2="51.57" y2="16.44"/><line class="cls-1" x1="24.28" y1="59.43" x2="17.6" y2="69.96"/><line class="cls-1" x1="27.08" y1="60.97" x2="21.77" y2="72.25"/><line class="cls-1" x1="54.08" y1="3.61" x2="48.76" y2="14.9"/><line class="cls-1" x1="30.05" y1="62.15" x2="26.2" y2="74"/><line class="cls-1" x1="49.65" y1="1.86" x2="45.79" y2="13.71"/><line class="cls-1" x1="45.03" y1="0.67" x2="42.7" y2="12.92"/><line class="cls-1" x1="30.82" y1="75.19" x2="33.15" y2="62.95"/><line class="cls-1" x1="35.54" y1="75.79" x2="36.33" y2="63.33"/><line class="cls-1" x1="40.31" y1="0.08" x2="39.52" y2="12.53"/><line class="cls-2" x1="37.93" x2="37.93" y2="23.78"/><line class="cls-2" x1="37.93" y1="75.87" x2="37.93" y2="52.09"/><line class="cls-2" x1="39.71" y1="51.97" x2="42.69" y2="75.57"/><line class="cls-2" x1="33.18" y1="0.3" x2="36.16" y2="23.9"/><line class="cls-2" x1="34.42" y1="24.24" x2="28.5" y2="1.19"/><line class="cls-2" x1="47.37" y1="74.67" x2="41.45" y2="51.63"/><line class="cls-2" x1="43.14" y1="51.09" x2="51.9" y2="73.2"/><line class="cls-2" x1="23.97" y1="2.66" x2="32.73" y2="24.78"/><line class="cls-2" x1="31.12" y1="25.53" x2="19.66" y2="4.69"/><line class="cls-2" x1="56.21" y1="71.17" x2="44.75" y2="50.34"/><line class="cls-2" x1="15.64" y1="7.24" x2="29.62" y2="26.49"/><line class="cls-2" x1="46.24" y1="49.37" x2="60.23" y2="68.62"/><line class="cls-2" x1="28.25" y1="27.63" x2="11.97" y2="10.28"/><line class="cls-2" x1="63.9" y1="65.58" x2="47.61" y2="48.24"/><line class="cls-2" x1="48.84" y1="46.95" x2="67.16" y2="62.11"/><line class="cls-2" x1="8.71" y1="13.75" x2="27.03" y2="28.91"/><line class="cls-2" x1="25.99" y1="30.35" x2="5.91" y2="17.61"/><line class="cls-2" x1="69.96" y1="58.25" x2="49.88" y2="45.51"/><line class="cls-2" x1="3.61" y1="21.78" x2="25.14" y2="31.91"/><line class="cls-2" x1="50.73" y1="43.95" x2="72.25" y2="54.08"/><line class="cls-2" x1="24.47" y1="33.55" x2="1.86" y2="26.21"/><line class="cls-2" x1="74.01" y1="49.65" x2="51.39" y2="42.3"/><line class="cls-2" x1="51.83" y1="40.58" x2="75.19" y2="45.04"/><line class="cls-2" x1="0.67" y1="30.82" x2="24.03" y2="35.28"/><line class="cls-2" x1="75.79" y1="40.31" x2="52.04" y2="38.82"/><line class="cls-2" x1="23.82" y1="37.04" x2="0.07" y2="35.55"/><line class="cls-2" x1="0.07" y1="40.31" x2="23.82" y2="38.82"/><line class="cls-2" x1="75.79" y1="35.55" x2="52.04" y2="37.04"/><line class="cls-2" x1="75.19" y1="30.82" x2="51.83" y2="35.27"/><line class="cls-2" x1="0.67" y1="45.04" x2="24.03" y2="40.58"/><line class="cls-2" x1="1.85" y1="49.65" x2="24.47" y2="42.3"/><line class="cls-2" x1="74" y1="26.21" x2="51.39" y2="33.55"/><line class="cls-2" x1="72.25" y1="21.78" x2="50.72" y2="31.9"/><line class="cls-2" x1="3.61" y1="54.08" x2="25.13" y2="43.95"/><line class="cls-2" x1="5.9" y1="58.25" x2="25.98" y2="45.5"/><line class="cls-2" x1="69.95" y1="17.61" x2="49.87" y2="30.35"/><line class="cls-2" x1="67.15" y1="13.75" x2="48.83" y2="28.91"/><line class="cls-2" x1="8.7" y1="62.11" x2="27.02" y2="46.95"/><line class="cls-2" x1="11.96" y1="65.58" x2="28.25" y2="48.24"/><line class="cls-2" x1="63.89" y1="10.28" x2="47.61" y2="27.62"/><line class="cls-2" x1="15.63" y1="68.62" x2="29.61" y2="49.37"/><line class="cls-2" x1="60.22" y1="7.24" x2="46.24" y2="26.49"/><line class="cls-2" x1="56.2" y1="4.69" x2="44.75" y2="25.53"/><line class="cls-2" x1="19.65" y1="71.17" x2="31.11" y2="50.33"/><line class="cls-2" x1="51.89" y1="2.66" x2="43.13" y2="24.78"/><line class="cls-2" x1="23.96" y1="73.2" x2="32.72" y2="51.08"/><line class="cls-2" x1="47.36" y1="1.19" x2="41.44" y2="24.24"/><line class="cls-2" x1="28.49" y1="74.67" x2="34.41" y2="51.63"/><line class="cls-2" x1="33.17" y1="75.56" x2="36.15" y2="51.96"/><line class="cls-2" x1="42.68" y1="0.3" x2="39.7" y2="23.9"/></g></g></svg>