<svg xmlns="http://www.w3.org/2000/svg" viewBox="0 0 30.87 9.07"><defs><style>.cls-1{fill:#32383a;}</style></defs><g id="Layer_2" data-name="Layer 2"><g id="Design_Development" data-name="Design Development"><path class="cls-1" d="M5.77,4.63A2.61,2.61,0,0,1,3.19,7.35,2.26,2.26,0,0,1,1,5.15V9H0V2H1V4.11a2.26,2.26,0,0,1,2.24-2.2A2.61,2.61,0,0,1,5.77,4.63Zm-1,0A1.8,1.8,0,0,0,2.85,2.77,1.79,1.79,0,0,0,1,4.63a1.79,1.79,0,0,0,1.9,1.86A1.8,1.8,0,0,0,4.77,4.63Z"/><path class="cls-1" d="M7.82,7.25h-1V.19h1Z"/><path class="cls-1" d="M14.29,2,12.4,6.49C11.75,8,11,9.07,9.17,9.07V8.21a2.19,2.19,0,0,0,2.15-1.53h-.6L8.6,2h1l1.71,3.82h.34L13.29,2Z"/><path class="cls-1" d="M14.26,6.62a.72.72,0,0,1,.73-.7.72.72,0,0,1,0,1.43A.73.73,0,0,1,14.26,6.62Z"/><path class="cls-1" d="M17.75,7.25h-1V.19h1Z"/><path class="cls-1" d="M18.85.71a.72.72,0,1,1,.72.72A.71.71,0,0,1,18.85.71ZM20,7.25h-1V2h1Z"/><path class="cls-1" d="M24.91,2v.86h-3.3c1.53.21,2.52,1.11,2.52,2.25a2.24,2.24,0,0,1-2.54,2.14V6.4a1.45,1.45,0,0,0,1.59-1.51c0-1-.48-2-2.28-2V2h2.23c-1.48-.1-2-.37-2-.91S21.92,0,22.85,0s2,.39,2,1.53h-.95c0-.55-.6-.77-1.21-.77-.44,0-1.23.13-1.23.53S22,2,24.91,2Z"/><path class="cls-1" d="M30.87,4.63a2.5,2.5,0,0,1-2.6,2.72,2.79,2.79,0,0,1-2.93-2.72,2.74,2.74,0,0,1,2.83-2.72A2.52,2.52,0,0,1,30.87,4.63Zm-.09,0H26.29c0,1,.81,1.86,2.2,1.86S30.73,5.76,30.78,4.63Zm-4.37-.72h3.43a1.53,1.53,0,0,0-1.69-1.2A1.72,1.72,0,0,0,26.41,3.91Z"/></g></g></svg>