<svg xmlns="http://www.w3.org/2000/svg" viewBox="0 0 148.2 148.21"><defs><style>.cls-1,.cls-2{fill:none;stroke:#aee0cd;stroke-miterlimit:10;}.cls-1{stroke-width:1px;}.cls-2{stroke-width:0.66px;}</style></defs><g id="Layer_2" data-name="Layer 2"><g id="Design_Development" data-name="Design Development"><line class="cls-1" x1="69.45" y1="0.15" x2="70.99" y2="24.49"/><line class="cls-1" x1="78.76" y1="148.06" x2="77.23" y2="123.72"/><line class="cls-1" x1="87.99" y1="146.91" x2="83.43" y2="122.98"/><line class="cls-1" x1="60.22" y1="1.32" x2="64.79" y2="25.23"/><line class="cls-1" x1="97" y1="144.58" x2="89.48" y2="121.43"/><line class="cls-1" x1="58.73" y1="26.78" x2="51.21" y2="3.63"/><line class="cls-1" x1="42.56" y1="7.06" x2="52.93" y2="29.11"/><line class="cls-1" x1="95.27" y1="119.11" x2="105.66" y2="141.16"/><line class="cls-1" x1="47.46" y1="32.11" x2="34.4" y2="11.54"/><line class="cls-1" x1="113.82" y1="136.67" x2="100.75" y2="116.1"/><line class="cls-1" x1="105.83" y1="112.46" x2="121.34" y2="131.2"/><line class="cls-1" x1="26.87" y1="17" x2="42.38" y2="35.75"/><line class="cls-1" x1="37.86" y1="40.06" x2="20.09" y2="23.37"/><line class="cls-1" x1="128.13" y1="124.83" x2="110.36" y2="108.15"/><line class="cls-1" x1="114.33" y1="103.33" x2="134.06" y2="117.66"/><line class="cls-1" x1="14.16" y1="30.54" x2="33.88" y2="44.87"/><line class="cls-1" x1="30.49" y1="50.12" x2="9.17" y2="38.41"/><line class="cls-1" x1="139.04" y1="109.8" x2="117.72" y2="98.07"/><line class="cls-1" x1="5.21" y1="46.82" x2="27.85" y2="55.79"/><line class="cls-1" x1="120.36" y1="92.41" x2="143" y2="101.38"/><line class="cls-1" x1="25.95" y1="61.73" x2="2.33" y2="55.67"/><line class="cls-1" x1="145.88" y1="92.52" x2="122.27" y2="86.47"/><line class="cls-1" x1="0.58" y1="64.82" x2="24.76" y2="67.86"/><line class="cls-1" x1="147.62" y1="83.38" x2="123.45" y2="80.33"/><line class="cls-1" x1="148.2" y1="74.09" x2="123.88" y2="74.09"/><line class="cls-1" x1="24.33" y1="74.1" y2="74.1"/><line class="cls-1" x1="147.62" y1="64.81" x2="123.45" y2="67.86"/><line class="cls-1" x1="24.76" y1="80.33" x2="0.58" y2="83.38"/><line class="cls-1" x1="25.94" y1="86.47" x2="2.32" y2="92.52"/><line class="cls-1" x1="145.87" y1="55.66" x2="122.26" y2="61.73"/><line class="cls-1" x1="27.85" y1="92.41" x2="5.2" y2="101.38"/><line class="cls-1" x1="143" y1="46.82" x2="120.35" y2="55.78"/><line class="cls-1" x1="139.03" y1="38.39" x2="117.71" y2="50.11"/><line class="cls-1" x1="30.48" y1="98.07" x2="9.16" y2="109.8"/><line class="cls-1" x1="33.87" y1="103.33" x2="14.14" y2="117.65"/><line class="cls-1" x1="134.05" y1="30.54" x2="114.33" y2="44.87"/><line class="cls-1" x1="128.12" y1="23.37" x2="110.34" y2="40.05"/><line class="cls-1" x1="37.85" y1="108.14" x2="20.07" y2="124.82"/><line class="cls-1" x1="42.36" y1="112.45" x2="26.85" y2="131.2"/><line class="cls-1" x1="121.32" y1="17" x2="105.82" y2="35.75"/><line class="cls-1" x1="113.8" y1="11.54" x2="100.74" y2="32.11"/><line class="cls-1" x1="47.44" y1="116.09" x2="34.38" y2="136.67"/><line class="cls-1" x1="52.91" y1="119.1" x2="42.54" y2="141.15"/><line class="cls-1" x1="105.65" y1="7.06" x2="95.26" y2="29.11"/><line class="cls-1" x1="58.71" y1="121.42" x2="51.18" y2="144.57"/><line class="cls-1" x1="96.99" y1="3.63" x2="89.46" y2="26.78"/><line class="cls-1" x1="87.98" y1="1.32" x2="83.41" y2="25.23"/><line class="cls-1" x1="60.21" y1="146.89" x2="64.76" y2="122.97"/><line class="cls-1" x1="69.43" y1="148.06" x2="70.97" y2="123.72"/><line class="cls-1" x1="78.75" y1="0.15" x2="77.21" y2="24.49"/><line class="cls-2" x1="74.11" x2="74.11" y2="46.46"/><line class="cls-2" x1="74.11" y1="148.21" x2="74.11" y2="101.76"/><line class="cls-2" x1="77.57" y1="101.52" x2="83.4" y2="147.63"/><line class="cls-2" x1="64.82" y1="0.59" x2="70.64" y2="46.69"/><line class="cls-2" x1="67.24" y1="47.35" x2="55.68" y2="2.33"/><line class="cls-2" x1="92.53" y1="145.88" x2="80.98" y2="100.86"/><line class="cls-2" x1="84.28" y1="99.81" x2="101.39" y2="143"/><line class="cls-2" x1="46.83" y1="5.2" x2="63.94" y2="48.41"/><line class="cls-2" x1="60.79" y1="49.88" x2="38.41" y2="9.17"/><line class="cls-2" x1="109.8" y1="139.04" x2="87.43" y2="98.34"/><line class="cls-2" x1="30.55" y1="14.14" x2="57.87" y2="51.75"/><line class="cls-2" x1="90.34" y1="96.45" x2="117.66" y2="134.05"/><line class="cls-2" x1="55.2" y1="53.97" x2="23.38" y2="20.08"/><line class="cls-2" x1="124.83" y1="128.12" x2="93.01" y2="94.24"/><line class="cls-2" x1="95.41" y1="91.72" x2="131.2" y2="121.33"/><line class="cls-2" x1="17.01" y1="26.86" x2="52.8" y2="56.48"/><line class="cls-2" x1="50.78" y1="59.29" x2="11.55" y2="34.39"/><line class="cls-2" x1="136.67" y1="113.8" x2="97.44" y2="88.9"/><line class="cls-2" x1="7.06" y1="42.55" x2="49.11" y2="62.34"/><line class="cls-2" x1="99.1" y1="85.87" x2="141.15" y2="105.65"/><line class="cls-2" x1="47.81" y1="65.55" x2="3.63" y2="51.2"/><line class="cls-2" x1="144.58" y1="97" x2="100.4" y2="82.65"/><line class="cls-2" x1="101.26" y1="79.27" x2="146.89" y2="87.99"/><line class="cls-2" x1="1.32" y1="60.21" x2="46.95" y2="68.92"/><line class="cls-2" x1="148.06" y1="78.75" x2="101.67" y2="75.83"/><line class="cls-2" x1="46.53" y1="72.37" x2="0.14" y2="69.45"/><line class="cls-2" x1="0.14" y1="78.75" x2="46.53" y2="75.83"/><line class="cls-2" x1="148.06" y1="69.44" x2="101.67" y2="72.36"/><line class="cls-2" x1="146.89" y1="60.2" x2="101.25" y2="68.91"/><line class="cls-2" x1="1.31" y1="87.99" x2="46.95" y2="79.27"/><line class="cls-2" x1="3.62" y1="97" x2="47.81" y2="82.64"/><line class="cls-2" x1="144.57" y1="51.2" x2="100.39" y2="65.55"/><line class="cls-2" x1="141.15" y1="42.54" x2="99.09" y2="62.33"/><line class="cls-2" x1="7.05" y1="105.65" x2="49.1" y2="85.86"/><line class="cls-2" x1="11.52" y1="113.8" x2="50.76" y2="88.9"/><line class="cls-2" x1="136.66" y1="34.39" x2="97.42" y2="59.29"/><line class="cls-2" x1="131.19" y1="26.86" x2="95.4" y2="56.47"/><line class="cls-2" x1="17" y1="121.33" x2="52.79" y2="91.72"/><line class="cls-2" x1="23.36" y1="128.12" x2="55.18" y2="94.24"/><line class="cls-2" x1="124.82" y1="20.08" x2="93" y2="53.96"/><line class="cls-2" x1="30.53" y1="134.05" x2="57.85" y2="96.45"/><line class="cls-2" x1="117.65" y1="14.14" x2="90.33" y2="51.75"/><line class="cls-2" x1="109.8" y1="9.17" x2="87.42" y2="49.88"/><line class="cls-2" x1="38.39" y1="139.03" x2="60.77" y2="98.33"/><line class="cls-2" x1="101.37" y1="5.2" x2="84.26" y2="48.41"/><line class="cls-2" x1="46.8" y1="143" x2="63.92" y2="99.79"/><line class="cls-2" x1="92.52" y1="2.33" x2="80.96" y2="47.35"/><line class="cls-2" x1="55.66" y1="145.87" x2="67.21" y2="100.86"/><line class="cls-2" x1="64.8" y1="147.62" x2="70.63" y2="101.52"/><line class="cls-2" x1="83.38" y1="0.59" x2="77.55" y2="46.69"/></g></g></svg>