<svg xmlns="http://www.w3.org/2000/svg" viewBox="0 0 131.42 15.09"><defs><style>.cls-1{fill:#32383a;}.cls-2{fill:#aee0cd;}</style></defs><g id="Layer_2" data-name="Layer 2"><g id="Design_Development" data-name="Design Development"><path class="cls-1" d="M7.31,7H5.89c0-1-.34-1.78-1.42-1.78S2.41,6,2.41,9v2.84H1V4.15H2.41V7.43C2.65,5.08,3.49,4,5,4,6.67,4,7.31,5.3,7.31,7Z"/><path class="cls-1" d="M16,7.91a3.71,3.71,0,0,1-3.87,4,4.16,4.16,0,0,1-4.36-4A4.08,4.08,0,0,1,12,3.86,3.75,3.75,0,0,1,16,7.91Zm-.14,0H9.22c0,1.56,1.21,2.77,3.27,2.77S15.82,9.6,15.89,7.91ZM9.39,6.84H14.5A2.28,2.28,0,0,0,12,5.06,2.56,2.56,0,0,0,9.39,6.84Z"/><path class="cls-1" d="M26.11,11.58c0,2-2.08,3.21-4.69,3.21-2.17,0-3.83-.68-3.83-2.17a2.2,2.2,0,0,1,.7-1.56,1.3,1.3,0,0,1-.63-1.18,2.38,2.38,0,0,1,.77-1.69,2.24,2.24,0,0,1-.77-1.7c0-1.69,1.72-2.63,3.55-2.63a4,4,0,0,1,2.92,1.07,1.78,1.78,0,0,0,.94-1.36c0-.83-.8-1-1.66-1V1.31c1.48,0,2.2.51,2.2,1.56A2.68,2.68,0,0,1,24.23,5a2.23,2.23,0,0,1,.53,1.45c0,1.69-1.72,2.62-3.55,2.62a4.25,4.25,0,0,1-2.65-.82A2,2,0,0,0,18,9.57a1,1,0,0,0,1,1c1.58,0,2.81-1,4.7-1C25.28,9.61,26.11,10.38,26.11,11.58ZM24.69,12c0-.69-.44-1.13-1.37-1.13-1.54,0-2.54.49-3.94.49a2.24,2.24,0,0,1-1-.18A2,2,0,0,0,18,12.34c0,1.27,1.43,1.6,3,1.6C23.1,13.94,24.69,13,24.69,12ZM19,6.49a1.23,1.23,0,0,0,.38.89,11.93,11.93,0,0,1,1.76-1c.6-.29,1.24-.56,1.8-.84A2.6,2.6,0,0,0,21.21,5C20,5,19,5.57,19,6.49Zm4.06-.8c-.63.32-1.29.59-1.88.86a11,11,0,0,0-1.68.92,2.65,2.65,0,0,0,1.67.47c1.26,0,2.17-.53,2.17-1.45A1.24,1.24,0,0,0,23.1,5.69Z"/><path class="cls-1" d="M26.74,2.08a1.07,1.07,0,1,1,1.08,1.07A1.07,1.07,0,0,1,26.74,2.08Zm1.77,9.73H27.1V4h1.41Z"/><path class="cls-1" d="M37.6,9.43c0,1.47-1.45,2.52-3.91,2.52-2.27,0-3.54-1.1-3.54-2.47a2.13,2.13,0,0,1,.92-1.77,1.66,1.66,0,0,1-.71-1.45c0-1.23,1.29-2.4,3.63-2.4s3.26,1.3,3.32,2.7A17,17,0,0,0,33,7c.28,0,.61.09,1,.13C36.62,7.43,37.6,8,37.6,9.43Zm-1.42.25c0-.75-.56-1-2.56-1.26a6.6,6.6,0,0,1-2.38-.6,1.73,1.73,0,0,0-.67,1.37c0,1.22,1.32,1.84,2.68,1.84C35.34,11,36.18,10.32,36.18,9.68ZM32.64,6.94a14.41,14.41,0,0,1,3.24-.49c-.07-.64-.54-1.38-2.1-1.38-1.25,0-2,.48-2,1.09C31.78,6.57,32.06,6.8,32.64,6.94Z"/><path class="cls-1" d="M45.11,4V5.28c-4.15,0-5.39,1.59-5.39,3.21a2.13,2.13,0,0,0,2.34,2.11,2.84,2.84,0,0,0,2.91-3h.14c0,3-1.13,4.4-3.2,4.4a3,3,0,0,1-3.18-3c0-2,1.66-3.32,4.81-3.62H38.3V4H41V1.31h1.42V4Z"/><path class="cls-1" d="M54.26,7.91c0,2.17-1.42,4-4.37,4S45,10.09,45,7.91s2-4.05,4.76-4.05C52.84,3.86,54.26,5.72,54.26,7.91Zm-.16,0H46.57c0,1.56,1.37,2.77,3.69,2.77S54,9.6,54.1,7.91ZM46.77,6.84h5.76c-.3-1.06-1.13-1.78-2.83-1.78A2.88,2.88,0,0,0,46.77,6.84Z"/><path class="cls-1" d="M62.21,7H60.79c0-1-.34-1.78-1.42-1.78S57.31,6,57.31,9v2.84H55.89V4.15h1.42V7.43C57.55,5.08,58.39,4,59.87,4,61.57,4,62.21,5.3,62.21,7Z"/><path class="cls-1" d="M72.42,4V5.28C68.26,5.28,67,6.87,67,8.49a2.13,2.13,0,0,0,2.34,2.11,2.84,2.84,0,0,0,2.91-3h.14c0,3-1.13,4.4-3.21,4.4A3,3,0,0,1,66,8.9c0-2,1.66-3.32,4.81-3.62H65.61V4h2.7V1.31h1.42V4Z"/><path class="cls-1" d="M73.34,7.91a4.19,4.19,0,1,1,4.19,4A4.07,4.07,0,0,1,73.34,7.91Zm6.88,0a2.7,2.7,0,1,0-5.39,0,2.7,2.7,0,1,0,5.39,0Z"/><path class="cls-1" d="M95,7.91a3.88,3.88,0,0,1-3.83,4c-2,0-3-1.43-3.32-3.26v5.68H86.46V4h1.42V7.13c.29-1.83,1.34-3.27,3.32-3.27A3.88,3.88,0,0,1,95,7.91Zm-1.49,0a2.83,2.83,0,0,0-5.66,0,2.83,2.83,0,0,0,5.66,0Z"/><path class="cls-1" d="M98.08,11.81H96.66V1.31h1.42Z"/><path class="cls-1" d="M107.7,4l-2.81,6.67c-1,2.27-2.07,3.83-4.81,3.83V13.23A3.27,3.27,0,0,0,103.29,11h-.9L99.24,4h1.54l2.54,5.67h.49L106.21,4Z"/><path class="cls-1" d="M107.66,10.87A1.07,1.07,0,1,1,108.73,12,1.07,1.07,0,0,1,107.66,10.87Z"/><path class="cls-1" d="M0,13.58v-.7H62.35v.7Z"/><path class="cls-2" d="M131.42,7.54A7.54,7.54,0,1,1,123.88,0,7.54,7.54,0,0,1,131.42,7.54Z"/><path class="cls-1" d="M120.88,7.14h4.86L123.62,5l.37-.37,2.76,2.76L124,10.17l-.37-.37,2.12-2.13h-4.86Z"/><path class="cls-1" d="M124,4.44l3,3-3,3-.58-.57,2-2h-4.67V7h4.66l-2-2Zm2.55,3L124,4.85l-.17.17,2.27,2.26H121v.25h5.07L123.82,9.8,124,10Z"/></g></g></svg>