<svg xmlns="http://www.w3.org/2000/svg" viewBox="0 0 149.85 15.09"><defs><style>.cls-1{fill:#32383a;}.cls-2{fill:#aee0cd;}</style></defs><g id="Layer_2" data-name="Layer 2"><g id="Design_Development" data-name="Design Development"><path class="cls-1" d="M8.09,9.43C8.09,10.9,6.64,12,4.19,12,1.92,12,.64,10.85.64,9.48a2.16,2.16,0,0,1,.92-1.77A1.66,1.66,0,0,1,.85,6.26c0-1.23,1.29-2.4,3.63-2.4s3.27,1.3,3.32,2.7A17,17,0,0,0,3.45,7c.28,0,.61.09,1,.13C7.11,7.43,8.09,8,8.09,9.43Zm-1.42.25c0-.75-.55-1-2.55-1.26a6.71,6.71,0,0,1-2.39-.6,1.76,1.76,0,0,0-.67,1.37C1.06,10.41,2.38,11,3.75,11,5.83,11,6.67,10.32,6.67,9.68ZM3.14,6.94a14.41,14.41,0,0,1,3.23-.49c-.07-.64-.54-1.38-2.1-1.38-1.25,0-2,.48-2,1.09C2.27,6.57,2.55,6.8,3.14,6.94Z"/><path class="cls-1" d="M17.52,7.91a3.71,3.71,0,0,1-3.87,4,4.16,4.16,0,0,1-4.36-4,4.08,4.08,0,0,1,4.22-4.05A3.75,3.75,0,0,1,17.52,7.91Zm-.14,0H10.71c0,1.56,1.21,2.77,3.26,2.77S17.31,9.6,17.38,7.91Zm-6.5-1.07H16a2.28,2.28,0,0,0-2.51-1.78A2.56,2.56,0,0,0,10.88,6.84Z"/><path class="cls-1" d="M26.81,7.27v4.54H25.4V7.55c0-1.66-.86-2.48-2.28-2.48a2.35,2.35,0,0,0-2.55,2.48v4.26H19.15V4h1.42V6.67a3.08,3.08,0,0,1,3.19-2.81C25.75,3.86,26.81,5.16,26.81,7.27Z"/><path class="cls-1" d="M37,1.31v10.5H35.6V8.69C35.31,10.52,34.26,12,32.27,12a3.88,3.88,0,0,1-3.83-4,3.89,3.89,0,0,1,3.83-4.05c2,0,3,1.44,3.33,3.27V1.31ZM35.6,7.91a2.67,2.67,0,0,0-2.83-2.77,2.67,2.67,0,0,0-2.84,2.77,2.67,2.67,0,0,0,2.84,2.77A2.67,2.67,0,0,0,35.6,7.91Z"/><path class="cls-1" d="M48.43,7H47c0-1-.34-1.78-1.42-1.78S43.54,6,43.54,9v2.84H42.12V4.15h1.42V7.43C43.78,5.08,44.62,4,46.09,4,47.79,4,48.43,5.3,48.43,7Z"/><path class="cls-1" d="M57.16,7.91a3.72,3.72,0,0,1-3.88,4,4.15,4.15,0,0,1-4.35-4,4.07,4.07,0,0,1,4.21-4.05A3.75,3.75,0,0,1,57.16,7.91Zm-.14,0H50.35c0,1.56,1.2,2.77,3.26,2.77S57,9.6,57,7.91Zm-6.5-1.07h5.11a2.29,2.29,0,0,0-2.52-1.78A2.55,2.55,0,0,0,50.52,6.84Z"/><path class="cls-1" d="M65.88,9.43C65.88,10.9,64.43,12,62,12c-2.27,0-3.55-1.1-3.55-2.47a2.16,2.16,0,0,1,.92-1.77,1.66,1.66,0,0,1-.71-1.45c0-1.23,1.3-2.4,3.64-2.4s3.26,1.3,3.32,2.7A17.11,17.11,0,0,0,61.24,7c.29,0,.61.09,1,.13C64.9,7.43,65.88,8,65.88,9.43Zm-1.42.25c0-.75-.55-1-2.55-1.26a6.71,6.71,0,0,1-2.39-.6,1.75,1.75,0,0,0-.66,1.37c0,1.22,1.32,1.84,2.68,1.84C63.63,11,64.46,10.32,64.46,9.68ZM60.93,6.94a14.41,14.41,0,0,1,3.23-.49c-.07-.64-.53-1.38-2.09-1.38-1.25,0-2,.48-2,1.09C60.06,6.57,60.35,6.8,60.93,6.94Z"/><path class="cls-1" d="M75.32,7.91a3.72,3.72,0,0,1-3.88,4,4.15,4.15,0,0,1-4.35-4A4.07,4.07,0,0,1,71.3,3.86,3.76,3.76,0,0,1,75.32,7.91Zm-.15,0H68.5c0,1.56,1.21,2.77,3.27,2.77S75.1,9.6,75.17,7.91Zm-6.5-1.07h5.11a2.28,2.28,0,0,0-2.51-1.78A2.56,2.56,0,0,0,68.67,6.84Z"/><path class="cls-1" d="M82.91,4V5.28c-4.16,0-5.4,1.59-5.4,3.21a2.13,2.13,0,0,0,2.34,2.11,2.84,2.84,0,0,0,2.91-3h.15c0,3-1.14,4.4-3.21,4.4a3,3,0,0,1-3.18-3c0-2,1.66-3.32,4.81-3.62H76.09V4h2.7V1.31h1.42V4Z"/><path class="cls-1" d="M95.18,7.91a3.72,3.72,0,0,1-3.88,4,4.15,4.15,0,0,1-4.35-4,4.07,4.07,0,0,1,4.21-4.05A3.76,3.76,0,0,1,95.18,7.91Zm-.15,0H88.37c0,1.56,1.2,2.77,3.26,2.77S95,9.6,95,7.91ZM88.54,6.84h5.1a2.28,2.28,0,0,0-2.51-1.78A2.54,2.54,0,0,0,88.54,6.84Z"/><path class="cls-1" d="M107.87,6.7v5.11h-1.41V7c0-1.24-.59-1.92-1.61-1.92A1.75,1.75,0,0,0,103.05,7v4.82h-1.42V7c0-1.24-.58-1.92-1.6-1.92A1.75,1.75,0,0,0,98.22,7v4.82H96.81V4h1.41V6.16a2.5,2.5,0,0,1,2.49-2.3c1.42,0,2.2,1,2.33,2.42a2.51,2.51,0,0,1,2.49-2.42C107.09,3.86,107.87,5,107.87,6.7Z"/><path class="cls-1" d="M118.33,8c0,3-.85,3.91-1.89,3.91a1.25,1.25,0,0,1-1.3-1.42V7.75h-.71c0,2.06-.69,4.2-2.91,4.2a1.87,1.87,0,0,1-2.09-1.8c0-1.6,1.75-2.24,3.72-2.45-2-.1-3.12-.53-3.12-1.69,0-1.32,1.2-2.15,3.13-2.15s3.39,1,3.39,3.27v3c0,.47.2.64.47.64s1.17-.36,1.17-2.87A16.79,16.79,0,0,0,117.66,4h.14A17.17,17.17,0,0,1,118.33,8Zm-3.19-.77c0-1.06-.43-2.2-2.45-2.2-1.19,0-2,.41-2,1.21,0,1,1.07,1.33,3.62,1.33h.86Zm-.86.48c-2.39,0-3.5.71-3.5,1.86A1.08,1.08,0,0,0,112,10.75C113.55,10.75,114.28,9.55,114.28,7.75Z"/><path class="cls-1" d="M119.36,2.08a1.07,1.07,0,1,1,1.08,1.07A1.07,1.07,0,0,1,119.36,2.08Zm1.77,9.73h-1.41V4h1.41Z"/><path class="cls-1" d="M124.54,11.81h-1.42V1.31h1.42Z"/><path class="cls-1" d="M126.17,10.87A1.07,1.07,0,1,1,127.25,12,1.08,1.08,0,0,1,126.17,10.87Z"/><path class="cls-1" d="M0,13.58v-.7H38v.7Z"/><path class="cls-2" d="M149.85,7.54A7.55,7.55,0,1,1,142.3,0,7.55,7.55,0,0,1,149.85,7.54Z"/><path class="cls-1" d="M139.3,7.14h4.87L142,5l.37-.37,2.76,2.76-2.76,2.76L142,9.8l2.13-2.13H139.3Z"/><path class="cls-1" d="M142.41,4.44l3,3-3,3-.57-.57,2-2h-4.66V7h4.66l-2-2Zm2.55,3-2.55-2.56-.16.17,2.27,2.26h-5.07v.25h5.07L142.25,9.8l.16.16Z"/></g></g></svg>