<svg xmlns="http://www.w3.org/2000/svg" viewBox="0 0 138.42 14.28"><defs><style>.cls-1{fill:#aee0cd;}.cls-2{fill:#32383a;}</style></defs><g id="Layer_2" data-name="Layer 2"><g id="Design_Development" data-name="Design Development"><path class="cls-1" d="M7.65,8.93c0,1.39-1.37,2.39-3.69,2.39C1.81,11.32.6,10.27.6,9A2,2,0,0,1,1.48,7.3,1.54,1.54,0,0,1,.81,5.93C.81,4.76,2,3.66,4.24,3.66S7.33,4.88,7.39,6.21a15.94,15.94,0,0,0-4.13.43l.94.12C6.73,7,7.65,7.57,7.65,8.93Zm-1.34.24c0-.71-.52-1-2.42-1.2a6.63,6.63,0,0,1-2.25-.56A1.63,1.63,0,0,0,1,8.7c0,1.15,1.25,1.74,2.53,1.74C5.52,10.44,6.31,9.77,6.31,9.17ZM3,6.58A12.48,12.48,0,0,1,6,6.11C6,5.5,5.52,4.8,4,4.8c-1.18,0-1.89.46-1.89,1C2.15,6.23,2.42,6.44,3,6.58Z"/><path class="cls-1" d="M16.25,3.8v7.38H14.91V8.67a2.9,2.9,0,0,1-3,2.65c-1.81,0-2.82-1.23-2.82-3.23V3.8h1.35v4c0,1.57.8,2.34,2.08,2.34a2.2,2.2,0,0,0,2.35-2.34v-4Z"/><path class="cls-1" d="M26.24,7.49a3.67,3.67,0,0,1-3.62,3.83c-1.88,0-2.88-1.36-3.15-3.09v2.95H18.13V1.24h1.34V6.75c.27-1.73,1.27-3.09,3.15-3.09A3.67,3.67,0,0,1,26.24,7.49Zm-1.41,0a2.53,2.53,0,0,0-2.68-2.62,2.52,2.52,0,0,0-2.68,2.62,2.52,2.52,0,0,0,2.68,2.62A2.53,2.53,0,0,0,24.83,7.49Z"/><path class="cls-1" d="M34.5,8.93c0,1.39-1.37,2.39-3.69,2.39-2.15,0-3.36-1.05-3.36-2.34a2,2,0,0,1,.87-1.68,1.56,1.56,0,0,1-.67-1.37c0-1.17,1.22-2.27,3.44-2.27s3.09,1.22,3.14,2.55a15.85,15.85,0,0,0-4.12.43l.94.12C33.57,7,34.5,7.57,34.5,8.93Zm-1.34.24c0-.71-.53-1-2.42-1.2a6.63,6.63,0,0,1-2.25-.56,1.64,1.64,0,0,0-.64,1.29c0,1.15,1.25,1.74,2.54,1.74C32.37,10.44,33.16,9.77,33.16,9.17ZM29.81,6.58a12.65,12.65,0,0,1,3.07-.47c-.07-.61-.51-1.31-2-1.31-1.18,0-1.89.46-1.89,1C29,6.23,29.26,6.44,29.81,6.58Z"/><path class="cls-1" d="M39.63,11.32a3.9,3.9,0,0,1-4-3.83,3.9,3.9,0,0,1,4-3.83,3.48,3.48,0,0,1,3.73,3.09H42A2.17,2.17,0,0,0,39.6,4.87a2.47,2.47,0,0,0-2.55,2.62,2.65,2.65,0,0,0,2.89,2.62c1.81,0,3-.89,3.29-2.08h.13A3.69,3.69,0,0,1,39.63,11.32Z"/><path class="cls-1" d="M50.89,6.62H49.54c0-.9-.32-1.68-1.34-1.68s-2,.78-2,3.56v2.68H44.91V3.93h1.34V7c.23-2.21,1-3.23,2.42-3.23C50.28,3.8,50.89,5,50.89,6.62Z"/><path class="cls-1" d="M51.63,2a1,1,0,0,1,2,0,1,1,0,1,1-2,0Zm1.67,9.21H52V3.8H53.3Z"/><path class="cls-1" d="M63.29,7.49a3.67,3.67,0,0,1-3.62,3.83c-1.88,0-2.87-1.36-3.14-3.09v2.95H55.18V1.24h1.35V6.75C56.8,5,57.79,3.66,59.67,3.66A3.67,3.67,0,0,1,63.29,7.49Zm-1.4,0a2.68,2.68,0,0,0-5.36,0,2.68,2.68,0,0,0,5.36,0Z"/><path class="cls-1" d="M72.29,7.49a3.52,3.52,0,0,1-3.66,3.83,3.93,3.93,0,0,1-4.12-3.83,3.85,3.85,0,0,1,4-3.83A3.55,3.55,0,0,1,72.29,7.49Zm-.13,0H65.85c0,1.48,1.14,2.62,3.09,2.62S72.09,9.09,72.16,7.49ZM66,6.48h4.83a2.16,2.16,0,0,0-2.37-1.69A2.42,2.42,0,0,0,66,6.48Z"/><path class="cls-1" d="M82.43,3.8V5c-3.93,0-5.1,1.51-5.1,3a2,2,0,0,0,2.22,2A2.7,2.7,0,0,0,82.3,7.15h.13c0,2.85-1.07,4.17-3,4.17a2.83,2.83,0,0,1-3-2.89C76.39,6.5,78,5.29,80.94,5H76V3.8h2.55V1.24h1.34V3.8Z"/><path class="cls-1" d="M83.31,7.49a4,4,0,1,1,4,3.83A3.85,3.85,0,0,1,83.31,7.49Zm6.51,0a2.55,2.55,0,1,0-5.1,0,2.55,2.55,0,1,0,5.1,0Z"/><path class="cls-1" d="M103.84,7.49a3.67,3.67,0,0,1-3.62,3.83c-1.88,0-2.88-1.36-3.15-3.09V13.6H95.73V3.8h1.34v3c.27-1.73,1.27-3.09,3.15-3.09A3.67,3.67,0,0,1,103.84,7.49Zm-1.41,0a2.68,2.68,0,0,0-5.36,0,2.68,2.68,0,0,0,5.36,0Z"/><path class="cls-1" d="M106.73,11.18h-1.34V1.24h1.34Z"/><path class="cls-1" d="M115.83,3.8l-2.65,6.31c-.92,2.15-2,3.62-4.56,3.62V12.52a3.1,3.1,0,0,0,3-2.14h-.85l-3-6.58h1.45l2.41,5.37h.47l2.26-5.37Z"/><path class="cls-1" d="M115.8,10.3a1,1,0,1,1,1,1A1,1,0,0,1,115.8,10.3Z"/><path class="cls-1" d="M0,12.86v-.67H72.9v.67Z"/><path class="cls-2" d="M138.42,7.14A7.14,7.14,0,1,1,131.28,0,7.13,7.13,0,0,1,138.42,7.14Z"/><path class="cls-1" d="M128.44,6.76h4.61l-2-2,.36-.35L134,7l-2.61,2.62L131,9.28l2-2h-4.61Z"/><path class="cls-1" d="M131.39,4.21l2.8,2.8-2.8,2.81-.55-.54,1.88-1.88H128.3V6.62h4.42l-1.88-1.87ZM133.8,7l-2.42-2.42-.15.16,2.15,2.15h-4.8v.23h4.8l-2.15,2.15.15.15Z"/></g></g></svg>