<svg id="Layer_1" data-name="Layer 1" xmlns="http://www.w3.org/2000/svg" viewBox="0 0 161.2 17.45"><defs><style>.cls-1{fill:#b1daca;}</style></defs><path class="cls-1" d="M227.23,423.49c0,1.91-1.88,3.27-5.06,3.27-2.93,0-4.59-1.43-4.59-3.2a2.76,2.76,0,0,1,1.2-2.29,2.16,2.16,0,0,1-.92-1.88c0-1.6,1.67-3.1,4.7-3.1,3.2,0,4.23,1.67,4.3,3.49a21.94,21.94,0,0,0-5.64.58c.37.06.79.12,1.28.17C226,420.9,227.23,421.63,227.23,423.49Zm-1.84.33c0-1-.72-1.32-3.31-1.64a8.59,8.59,0,0,1-3.08-.77,2.27,2.27,0,0,0-.87,1.77c0,1.58,1.71,2.39,3.47,2.39C224.31,425.57,225.39,424.65,225.39,423.82Zm-4.58-3.55a18.33,18.33,0,0,1,4.19-.64c-.09-.83-.69-1.78-2.71-1.78-1.62,0-2.6.62-2.6,1.41C219.69,419.8,220.06,420.09,220.81,420.27Z" transform="translate(-216.76 -412.61)"/><path class="cls-1" d="M239,416.47v10.11h-1.84v-3.44a4,4,0,0,1-4,3.62c-2.48,0-3.86-1.67-3.86-4.41v-5.88h1.84V422c0,2.15,1.1,3.22,2.85,3.22a3,3,0,0,0,3.21-3.22v-5.51Z" transform="translate(-216.76 -412.61)"/><path class="cls-1" d="M252.66,421.52a5,5,0,0,1-5,5.24c-2.57,0-3.93-1.86-4.3-4.23v4.05h-1.84V413h1.84v7.53c.37-2.37,1.73-4.22,4.3-4.22A5,5,0,0,1,252.66,421.52Zm-1.93,0a3.67,3.67,0,1,0-3.67,3.59A3.45,3.45,0,0,0,250.73,421.52Z" transform="translate(-216.76 -412.61)"/><path class="cls-1" d="M264,423.49c0,1.91-1.87,3.27-5,3.27-2.94,0-4.59-1.43-4.59-3.2a2.75,2.75,0,0,1,1.19-2.29,2.16,2.16,0,0,1-.92-1.88c0-1.6,1.68-3.1,4.71-3.1,3.19,0,4.22,1.67,4.3,3.49a21.83,21.83,0,0,0-5.64.58c.36.06.79.12,1.28.17C262.7,420.9,264,421.63,264,423.49Zm-1.83.33c0-1-.72-1.32-3.31-1.64a8.71,8.71,0,0,1-3.09-.77,2.29,2.29,0,0,0-.86,1.77c0,1.58,1.71,2.39,3.47,2.39C261,425.57,262.13,424.65,262.13,423.82Zm-4.58-3.55a18.33,18.33,0,0,1,4.19-.64c-.09-.83-.7-1.78-2.72-1.78-1.62,0-2.59.62-2.59,1.41C256.43,419.8,256.8,420.09,257.55,420.27Z" transform="translate(-216.76 -412.61)"/><path class="cls-1" d="M271,426.76a5.24,5.24,0,1,1,0-10.47c3.19,0,5,2.22,5.1,4.22h-1.83c-.1-1.25-1.13-2.57-3.31-2.57a3.38,3.38,0,0,0-3.49,3.58,3.64,3.64,0,0,0,4,3.59c2.48,0,4.13-1.22,4.5-2.85h.18A5.05,5.05,0,0,1,271,426.76Z" transform="translate(-216.76 -412.61)"/><path class="cls-1" d="M286.38,420.33h-1.83c0-1.23-.45-2.3-1.84-2.3S280,419.1,280,422.9v3.68h-1.83v-9.93H280v4.25c.32-3,1.4-4.43,3.31-4.43C285.56,416.47,286.38,418.14,286.38,420.33Z" transform="translate(-216.76 -412.61)"/><path class="cls-1" d="M287.4,414a1.38,1.38,0,1,1,1.39,1.4A1.39,1.39,0,0,1,287.4,414Zm2.29,12.61h-1.83V416.47h1.83Z" transform="translate(-216.76 -412.61)"/><path class="cls-1" d="M303.36,421.52a5,5,0,0,1-5,5.24c-2.57,0-3.93-1.86-4.3-4.23v4.05h-1.83V413h1.83v7.53c.37-2.37,1.73-4.22,4.3-4.22A5,5,0,0,1,303.36,421.52Zm-1.92,0a3.67,3.67,0,1,0-3.68,3.59A3.46,3.46,0,0,0,301.44,421.52Z" transform="translate(-216.76 -412.61)"/><path class="cls-1" d="M315.68,421.52c0,2.81-1.64,5.24-5,5.24a5.38,5.38,0,0,1-5.64-5.24,5.27,5.27,0,0,1,5.45-5.23C314,416.29,315.68,418.69,315.68,421.52Zm-.19,0h-8.64c0,2,1.57,3.59,4.23,3.59S315.4,423.71,315.49,421.52Zm-8.41-1.38h6.62a3,3,0,0,0-3.26-2.31A3.31,3.31,0,0,0,307.08,420.14Z" transform="translate(-216.76 -412.61)"/><path class="cls-1" d="M329.55,416.47v1.65c-5.38,0-7,2.06-7,4.16a2.76,2.76,0,0,0,3,2.73,3.68,3.68,0,0,0,3.77-3.95h.18c0,3.9-1.47,5.7-4.15,5.7a3.87,3.87,0,0,1-4.12-3.95c0-2.65,2.15-4.3,6.23-4.69h-6.78v-1.65h3.5V413h1.83v3.49Z" transform="translate(-216.76 -412.61)"/><path class="cls-1" d="M330.75,421.52a5.42,5.42,0,1,1,5.42,5.24A5.26,5.26,0,0,1,330.75,421.52Zm8.91,0a3.49,3.49,0,1,0-3.49,3.53A3.41,3.41,0,0,0,339.66,421.52Z" transform="translate(-216.76 -412.61)"/><path class="cls-1" d="M358.85,421.52a5,5,0,0,1-5,5.24c-2.58,0-3.94-1.86-4.3-4.23v7.35h-1.84V416.47h1.84v4c.36-2.37,1.72-4.22,4.3-4.22A5,5,0,0,1,358.85,421.52Zm-1.93,0a3.67,3.67,0,1,0-3.68,3.59A3.46,3.46,0,0,0,356.92,421.52Z" transform="translate(-216.76 -412.61)"/><path class="cls-1" d="M362.8,426.58H361V413h1.84Z" transform="translate(-216.76 -412.61)"/><path class="cls-1" d="M375.26,416.47l-3.64,8.64c-1.25,2.94-2.69,5-6.23,5v-1.66a4.23,4.23,0,0,0,4.15-2.94h-1.16l-4.07-9h2l3.29,7.35h.64l3.1-7.35Z" transform="translate(-216.76 -412.61)"/><path class="cls-1" d="M375.2,425.36a1.4,1.4,0,0,1,1.4-1.36,1.38,1.38,0,0,1,0,2.76A1.4,1.4,0,0,1,375.2,425.36Z" transform="translate(-216.76 -412.61)"/><path class="cls-1" d="M216.76,428.87V428h99.75v.92Z" transform="translate(-216.76 -412.61)"/></svg>