<svg xmlns="http://www.w3.org/2000/svg" viewBox="0 0 21 21"><defs><style>.cls-1{fill:#faf2df;}.cls-2{fill:#32383a;stroke:#32383a;stroke-linecap:round;stroke-linejoin:round;stroke-width:0.24px;}</style></defs><g id="Layer_2" data-name="Layer 2"><g id="Design_Development" data-name="Design Development"><path class="cls-1" d="M21,10.5A10.5,10.5,0,1,1,10.5,0,10.49,10.49,0,0,1,21,10.5Z"/><path class="cls-2" d="M14.28,6.72a2,2,0,0,0-2.83,0h0L10.21,8l.57.57L12,7.29h0a1.21,1.21,0,0,1,1.69,0,1.19,1.19,0,0,1,0,1.69l-1.85,1.86a1.21,1.21,0,0,1-1.7,0l-.57.57A2,2,0,0,0,11,12a2,2,0,0,0,1.41-.59l1.86-1.85a2,2,0,0,0,0-2.84Z"/><path class="cls-2" d="M9,13.73H9A1.2,1.2,0,1,1,7.28,12l1.85-1.86a1.21,1.21,0,0,1,1.69,0l.58-.57a2,2,0,0,0-2.84,0L6.71,11.47A2,2,0,1,0,9.54,14.3l1.23-1.24-.57-.56Z"/></g></g></svg>