<svg xmlns="http://www.w3.org/2000/svg" viewBox="0 0 9.59 15.1"><defs><style>.cls-1{fill:#32383a;}</style></defs><g id="Layer_2" data-name="Layer 2"><g id="Design_Development" data-name="Design Development"><path class="cls-1" d="M.16,11.42H8.22L5.81,9l.42-.41,3.13,3.13L6.23,14.86l-.42-.41L8.22,12H.16Z"/><path class="cls-1" d="M6.23,8.36l3.36,3.37L6.23,15.1l-.66-.65L7.83,12.2H0v-.94H7.83L5.57,9Zm2.9,3.37L6.22,8.82,6,9l2.58,2.58H.33v.28H8.62L6,14.45l.18.18Z"/><path class="cls-1" d="M9.4,3.67H1.46L3.87,6.08l-.42.43L.32,3.37,3.45.23l.42.42L1.46,3.06H9.4Z"/><path class="cls-1" d="M3.45,6.74.09,3.37,3.45,0l.66.65L1.85,2.9H9.56v.94H1.85L4.11,6.08ZM.55,3.37l2.91,2.9.18-.19L1.06,3.51H9.24V3.23H1.06L3.64.65,3.46.46Z"/></g></g></svg>