<svg xmlns="http://www.w3.org/2000/svg" viewBox="0 0 46.31 32.54"><defs><style>.cls-1{fill:#32383a;}</style></defs><g id="Layer_2" data-name="Layer 2"><g id="Iconography"><path class="cls-1" d="M45.76,26.81h-2L42.65,16.42a.55.55,0,0,0-.61-.49.55.55,0,0,0-.49.61l1.54,14.89H37.46V6.54h3l.79,7.58A.55.55,0,0,0,42.4,14l-.84-8.07a.54.54,0,0,0-.55-.5h-.45L43.5,2.49a.56.56,0,0,0,0-.79L42,.16a.56.56,0,0,0-.78,0l-8.4,8.39H23.24a1.91,1.91,0,0,0,0,3.81H36.35V24.63H8.59a.56.56,0,0,0,0,1.11H36.35v1.07H33.19a.56.56,0,1,0,0,1.11h3.16v3.51H2.91V27.92H30.79a.56.56,0,1,0,0-1.11H2.35a.56.56,0,0,0-.55.56v1.71L1.66,29a1.86,1.86,0,0,1-.55-1.32A1.89,1.89,0,0,1,3,25.74H6.54a.56.56,0,1,0,0-1.11H3a3,3,0,0,0-3,3,3,3,0,0,0,.88,2.11,2.9,2.9,0,0,0,.92.63V32a.55.55,0,0,0,.55.55H45.76a.55.55,0,0,0,.55-.55V27.37A.55.55,0,0,0,45.76,26.81ZM41.57,1.34l.75.76L39,5.43H37.48ZM36.35,6.56v2h-2Zm-5.77,4.69H23.24a.8.8,0,0,1,0-1.59h7.34v1.59Zm5.77,0H31.69V9.66h4.66v1.59Zm7.86,20.18-.37-3.51H45.2v3.51Z"/></g></g></svg>