<svg xmlns="http://www.w3.org/2000/svg" viewBox="0 0 133.75 15.96"><defs><style>.cls-1{fill:#32383a;}</style></defs><g id="Layer_2" data-name="Layer 2"><g id="Design_Development" data-name="Design Development"><path class="cls-1" d="M18.86,4,15.37,15.75h-3.6L9.7,6.6H9.17L7.09,15.75H3.49L0,4H2.23l2.83,9.79H5.6l2-9.15h3.6l2,9.15h.53L16.62,4Z"/><path class="cls-1" d="M32.89,10.09c0,4.49-1.28,5.87-2.83,5.87a1.88,1.88,0,0,1-2-2.13V9.66H27c0,3.09-1,6.3-4.37,6.3-1.83,0-3.13-1.08-3.13-2.7,0-2.41,2.62-3.36,5.58-3.68-3-.15-4.68-.79-4.68-2.53,0-2,1.81-3.22,4.7-3.22,3.11,0,5.09,1.51,5.09,4.9V13.2c0,.7.29,1,.7,1,.6,0,1.74-.53,1.74-4.3A25.88,25.88,0,0,0,31.89,4h.21A26.14,26.14,0,0,1,32.89,10.09ZM28.1,8.94c0-1.6-.64-3.3-3.66-3.3-1.79,0-3.05.62-3.05,1.81,0,1.47,1.6,2,5.43,2H28.1Zm-1.28.72c-3.6,0-5.26,1.07-5.26,2.79,0,1.15.75,1.7,1.86,1.7C25.71,14.15,26.82,12.37,26.82,9.66Z"/><path class="cls-1" d="M46.47,8.94v6.81H44.34V9.36c0-2.48-1.28-3.72-3.4-3.72A3.53,3.53,0,0,0,37.1,9.36v6.39H35V4H37.1v4a4.64,4.64,0,0,1,4.79-4.22C44.87,3.83,46.47,5.77,46.47,8.94Z"/><path class="cls-1" d="M58.39,4V6c-6.24,0-8.09,2.38-8.09,4.81a3.2,3.2,0,0,0,3.51,3.17,4.27,4.27,0,0,0,4.37-4.58h.21c0,4.52-1.7,6.6-4.81,6.6a4.48,4.48,0,0,1-4.77-4.57c0-3.07,2.49-5,7.22-5.43H48.17V4h4V0h2.13V4Z"/><path class="cls-1" d="M81.59,8.09v7.66H79.47V8.51c0-1.85-.88-2.87-2.41-2.87a2.61,2.61,0,0,0-2.7,2.87v7.24H72.23V8.51c0-1.85-.88-2.87-2.41-2.87a2.61,2.61,0,0,0-2.7,2.87v7.24H65V4h2.13V7.28c.36-2,1.6-3.45,3.72-3.45s3.3,1.43,3.5,3.62c.31-2.07,1.55-3.62,3.74-3.62C80.42,3.83,81.59,5.56,81.59,8.09Z"/><path class="cls-1" d="M84,9.9A6.28,6.28,0,1,1,90.32,16,6.1,6.1,0,0,1,84,9.9Zm10.33,0a4,4,0,1,0-8.09,0,4,4,0,1,0,8.09,0Z"/><path class="cls-1" d="M108.52,8.51H106.4c0-1.42-.52-2.66-2.13-2.66s-3.09,1.24-3.09,5.65v4.25H99.05V4.26h2.13V9.17C101.54,5.66,102.8,4,105,4,107.57,4,108.52,6,108.52,8.51Z"/><path class="cls-1" d="M121.62,9.9c0,3.25-1.9,6.06-5.82,6.06a6.23,6.23,0,0,1-6.53-6.06,6.11,6.11,0,0,1,6.32-6.07C119.72,3.83,121.62,6.62,121.62,9.9Zm-.22,0h-10c0,2.34,1.81,4.15,4.89,4.15S121.3,12.43,121.4,9.9Zm-9.75-1.6h7.67c-.41-1.59-1.51-2.68-3.77-2.68A3.84,3.84,0,0,0,111.65,8.3Z"/><path class="cls-1" d="M126.77,7.47a22.81,22.81,0,0,0,6.87.72c-.08,1.9-1.7,3.54-5.28,3.54-3,0-4.93-1.19-4.93-3.05a2.36,2.36,0,0,1,1.17-2.12A3.26,3.26,0,0,1,123.53,4c0-1.93,2.13-3.38,5.32-3.38,2.75,0,4.9,1,4.9,3s-1.36,3-4.94,3.45C128,7.26,127.28,7.34,126.77,7.47Zm-1.85-1.08a10.21,10.21,0,0,1,3.4-.88c2.62-.36,3.51-.87,3.51-1.87s-1.14-1.83-3.42-1.83-4.24.94-4.24,2.66A2.76,2.76,0,0,0,124.92,6.39Zm1.47,1.19c-.75.23-1,.57-1,1.21,0,.81,1,1.34,3.22,1.34s3.1-.91,3.25-1.74A18.5,18.5,0,0,1,126.39,7.58Zm3.78,6.77A1.6,1.6,0,0,1,128.6,16a1.6,1.6,0,1,1,0-3.19A1.59,1.59,0,0,1,130.17,14.35Z"/></g></g></svg>