<svg xmlns="http://www.w3.org/2000/svg" viewBox="0 0 37.88 37.88"><defs><style>.cls-1{fill:#32383a;}</style></defs><g id="Layer_2" data-name="Layer 2"><g id="Iconography"><g id="_22-stationary_bike" data-name=" 22-stationary bike"><path class="cls-1" d="M26,4.73V3a.59.59,0,0,1,.6-.59h4.59L35.64.16A1.62,1.62,0,0,1,36.33,0a1.54,1.54,0,0,1,1.55,1.55v.2A1.54,1.54,0,0,1,37,3.16L32.2,5.28a.6.6,0,0,1-.24,0H26.64A.6.6,0,0,1,26,4.73ZM36.48,2.08a.37.37,0,0,0,.22-.33v-.2a.33.33,0,0,0,0-.14.38.38,0,0,0-.5-.19L31.63,3.49a.58.58,0,0,1-.26.06H27.23v.59h4.61Z"/><path class="cls-1" d="M25.73,21.44l-.86-3.88h0a.59.59,0,0,1,.45-.7L29.2,16a.59.59,0,0,1,.7.44l.86,3.88h0a.61.61,0,0,1-.46.71l-3.87.86h-.13A.59.59,0,0,1,25.73,21.44Zm3.15-4.16-2.72.6.6,2.72,2.72-.6Z"/><path class="cls-1" d="M7.1,25.45a4.74,4.74,0,0,1,4.74-4.73h9.4l2.29-.58.14,0H26v1.19H23.75l-2.3.57a.34.34,0,0,1-.14,0H11.84a3.55,3.55,0,1,0,0,7.1H13l16.52-2.95.21,1.17-16.57,3H11.84A4.74,4.74,0,0,1,7.1,25.45Z"/><path class="cls-1" d="M8.88,25.45a3,3,0,1,1,3,3A3,3,0,0,1,8.88,25.45Zm1.18,0a1.78,1.78,0,1,0,1.78-1.77A1.78,1.78,0,0,0,10.06,25.45Z"/><path class="cls-1" d="M21.31,19.37h0a1.19,1.19,0,0,1-1.19-1.19v-.42h1.19v.42l4-1,.29,1.15-4,1a1,1,0,0,1-.29,0Z"/><path class="cls-1" d="M13.25,21.78a.58.58,0,0,1-.1-.83,46.91,46.91,0,0,1,7.36-7.21l.74.93a49.37,49.37,0,0,0-6.39,6h2a39,39,0,0,1,8.26-7,.6.6,0,0,1,.29-.08H26c.61,0,5.92.09,5.92,3v.64a1.15,1.15,0,0,1-1.18,1.14,1.67,1.67,0,0,1-.84-.33,4.63,4.63,0,0,0-.58-.31l.46-1.09a6.31,6.31,0,0,1,.73.38l.23.14v-.57c0-1.33-3.19-1.77-4.74-1.77h-.43a39.66,39.66,0,0,0-8,6.9.58.58,0,0,1-.45.2H13.61A.58.58,0,0,1,13.25,21.78Z"/><path class="cls-1" d="M21.54,12.94c.47-.37.91-.7,1.3-1l.7,1-1.28,1Z"/><path class="cls-1" d="M21,21a7.69,7.69,0,0,1,5-3.1l.2,1.17a6.42,6.42,0,0,0-4.2,2.63Z"/><path class="cls-1" d="M32.11,29.76a6.61,6.61,0,0,0,1.26-2.14,6.51,6.51,0,0,0-4-8.31l.39-1.11a7.59,7.59,0,0,1,2.53,1.48A7.69,7.69,0,0,1,33,30.54Z"/><path class="cls-1" d="M21,29.94l1-.69a6.52,6.52,0,0,0,7.89,2.17l.48,1.09A7.7,7.7,0,0,1,21,29.94Z"/><path class="cls-1" d="M29.18,2.54,31.54.17A.59.59,0,0,1,32,0h1.19a.58.58,0,0,1,.41.17l1.19,1.19-.84.83-1-1h-.69L30,3.38Z"/><path class="cls-1" d="M30.18,36.7V35.51a1.19,1.19,0,0,1,1.19-1.18h3.55a1.18,1.18,0,0,1,1.19,1.18V36.7a1.18,1.18,0,0,1-1.19,1.18H31.37A1.19,1.19,0,0,1,30.18,36.7Zm1.19-1.19V36.7h3.55V35.51Z"/><path class="cls-1" d="M0,36.7V35.51a1.18,1.18,0,0,1,1.18-1.18H4.73a1.18,1.18,0,0,1,1.19,1.18V36.7a1.18,1.18,0,0,1-1.19,1.18H1.18A1.18,1.18,0,0,1,0,36.7Zm1.18-1.19V36.7H4.73V35.51Z"/><path class="cls-1" d="M2.43,34.66c1.2-2.41,5.24-7,5.41-7.23l.89.78c0,.05-4.11,4.71-5.24,7Z"/><path class="cls-1" d="M2,9.37l-.63-.21A2,2,0,0,1,2,5.33H7.52a1.31,1.31,0,0,1,.59.14l.63.31h0A1.31,1.31,0,0,1,9.47,7,1.33,1.33,0,0,1,8.15,8.29H6.51a3.42,3.42,0,0,0-1.95,1,.59.59,0,0,1-.42.17H2.59A1.87,1.87,0,0,1,2,9.37ZM6.51,7.1H8.15a.14.14,0,0,0,.06-.26l-.63-.32H2A.78.78,0,0,0,1.72,8l.62.21a1.09,1.09,0,0,0,.25,0H3.91A4.32,4.32,0,0,1,6.51,7.1Z"/><path class="cls-1" d="M8.28,11.25H4.14a.59.59,0,0,1-.59-.6V8.88H4.73v1.18H8.88a.6.6,0,0,1,.59.59v1.78H8.28Z"/><path class="cls-1" d="M1.18,13.61A1.78,1.78,0,0,1,3,11.84H8.88a.59.59,0,0,1,.59.59v1.18a1.78,1.78,0,0,1-1.78,1.78H3A1.78,1.78,0,0,1,1.18,13.61ZM3,13a.6.6,0,0,0,0,1.19H7.69a.59.59,0,0,0,.59-.6V13Z"/><rect class="cls-1" x="7.4" y="14.52" width="1.18" height="8.24" transform="translate(-6.17 4.12) rotate(-21.06)"/><rect class="cls-1" x="5.33" y="14.48" width="1.18" height="10.11" transform="translate(-6.49 3.32) rotate(-20.57)"/><rect class="cls-1" x="31.33" y="20.32" width="1.18" height="15" transform="translate(-7.24 11.72) rotate(-18.73)"/><rect class="cls-1" x="24.89" y="3.25" width="1.18" height="11.25" transform="translate(-1.5 8.66) rotate(-18.74)"/><path class="cls-1" d="M21.34,3.74A.59.59,0,0,1,21.9,3h4.74V4.14H22.73L27.09,17,26,17.36Z"/><rect class="cls-1" x="29.6" y="20.59" width="1.18" height="14.73" transform="translate(-7.38 11.18) rotate(-18.74)"/></g><polygon class="cls-1" points="11.35 25.8 11.35 32.07 12.48 32.07 12.48 25.9 11.35 25.8"/><rect class="cls-1" x="9.95" y="32.63" width="3.94" height="1.13"/></g></g></svg>