<svg xmlns="http://www.w3.org/2000/svg" viewBox="0 0 224.92 274.17"><defs><style>.cls-1,.cls-2{fill:none;stroke:#32383a;stroke-miterlimit:10;}.cls-1{stroke-width:1.51px;}.cls-2{stroke-width:1.01px;}.cls-3{fill:#32383a;}</style></defs><g id="Layer_2" data-name="Layer 2"><g id="Design_Development" data-name="Design Development"><line class="cls-1" x1="105.41" y1="0.22" x2="107.74" y2="37.16"/><line class="cls-1" x1="119.54" y1="224.71" x2="117.21" y2="187.76"/><line class="cls-1" x1="133.55" y1="222.95" x2="126.62" y2="186.64"/><line class="cls-1" x1="91.4" y1="2" x2="98.32" y2="38.29"/><line class="cls-1" x1="147.22" y1="219.42" x2="135.8" y2="184.29"/><line class="cls-1" x1="89.13" y1="40.64" x2="77.71" y2="5.51"/><line class="cls-1" x1="64.59" y1="10.7" x2="80.33" y2="44.18"/><line class="cls-1" x1="144.59" y1="180.76" x2="160.36" y2="214.23"/><line class="cls-1" x1="72.02" y1="48.73" x2="52.21" y2="17.5"/><line class="cls-1" x1="172.73" y1="207.41" x2="152.91" y2="176.2"/><line class="cls-1" x1="160.62" y1="170.67" x2="184.15" y2="199.11"/><line class="cls-1" x1="40.78" y1="25.81" x2="64.32" y2="54.25"/><line class="cls-1" x1="57.46" y1="60.8" x2="30.49" y2="35.47"/><line class="cls-1" x1="194.45" y1="189.46" x2="167.48" y2="164.13"/><line class="cls-1" x1="173.52" y1="156.82" x2="203.45" y2="178.56"/><line class="cls-1" x1="21.49" y1="46.35" x2="51.41" y2="68.1"/><line class="cls-1" x1="46.27" y1="76.07" x2="13.92" y2="58.28"/><line class="cls-1" x1="211.02" y1="166.63" x2="178.66" y2="148.84"/><line class="cls-1" x1="7.9" y1="71.06" x2="42.27" y2="84.67"/><line class="cls-1" x1="182.66" y1="140.25" x2="217.02" y2="153.85"/><line class="cls-1" x1="39.38" y1="93.69" x2="3.53" y2="84.49"/><line class="cls-1" x1="221.39" y1="140.42" x2="185.56" y2="131.23"/><line class="cls-1" x1="0.88" y1="98.37" x2="37.58" y2="102.99"/><line class="cls-1" x1="224.04" y1="126.54" x2="187.35" y2="121.91"/><line class="cls-1" x1="224.92" y1="112.45" x2="188" y2="112.45"/><line class="cls-1" x1="36.92" y1="112.46" y2="112.46"/><line class="cls-1" x1="224.04" y1="98.36" x2="187.35" y2="102.99"/><line class="cls-1" x1="37.58" y1="121.91" x2="0.88" y2="126.54"/><line class="cls-1" x1="39.36" y1="131.23" x2="3.52" y2="140.42"/><line class="cls-1" x1="221.38" y1="84.47" x2="185.55" y2="93.68"/><line class="cls-1" x1="42.26" y1="140.25" x2="7.88" y2="153.86"/><line class="cls-1" x1="217.02" y1="71.05" x2="182.65" y2="84.66"/><line class="cls-1" x1="211" y1="58.27" x2="178.64" y2="76.05"/><line class="cls-1" x1="46.26" y1="148.84" x2="13.9" y2="166.63"/><line class="cls-1" x1="51.4" y1="156.82" x2="21.46" y2="178.55"/><line class="cls-1" x1="203.44" y1="46.35" x2="173.51" y2="68.1"/><line class="cls-1" x1="194.44" y1="35.47" x2="167.46" y2="60.79"/><line class="cls-1" x1="57.44" y1="164.12" x2="30.46" y2="189.43"/><line class="cls-1" x1="64.3" y1="170.67" x2="40.75" y2="199.11"/><line class="cls-1" x1="184.13" y1="25.81" x2="160.6" y2="54.25"/><line class="cls-1" x1="172.7" y1="17.5" x2="152.89" y2="48.73"/><line class="cls-1" x1="72" y1="176.19" x2="52.17" y2="207.41"/><line class="cls-1" x1="80.3" y1="180.76" x2="64.55" y2="214.21"/><line class="cls-1" x1="160.34" y1="10.7" x2="144.58" y2="44.18"/><line class="cls-1" x1="89.1" y1="184.28" x2="77.68" y2="219.41"/><line class="cls-1" x1="147.2" y1="5.51" x2="135.78" y2="40.64"/><line class="cls-1" x1="133.52" y1="2" x2="126.59" y2="38.29"/><line class="cls-1" x1="91.37" y1="222.93" x2="98.29" y2="186.63"/><line class="cls-1" x1="105.37" y1="224.71" x2="107.7" y2="187.76"/><line class="cls-1" x1="119.51" y1="0.22" x2="117.18" y2="37.16"/><line class="cls-2" x1="112.47" x2="112.47" y2="70.5"/><line class="cls-2" x1="112.47" y1="224.93" x2="112.47" y2="154.44"/><line class="cls-2" x1="117.73" y1="154.07" x2="126.56" y2="224.04"/><line class="cls-2" x1="98.38" y1="0.89" x2="107.21" y2="70.86"/><line class="cls-2" x1="102.05" y1="71.86" x2="84.51" y2="3.54"/><line class="cls-2" x1="140.44" y1="221.39" x2="122.9" y2="153.07"/><line class="cls-2" x1="127.91" y1="151.47" x2="153.87" y2="217.02"/><line class="cls-2" x1="71.08" y1="7.89" x2="97.04" y2="73.47"/><line class="cls-2" x1="92.26" y1="75.7" x2="58.3" y2="13.92"/><line class="cls-2" x1="166.64" y1="211.01" x2="132.69" y2="149.24"/><line class="cls-2" x1="46.36" y1="21.46" x2="87.82" y2="78.54"/><line class="cls-2" x1="137.11" y1="146.39" x2="178.56" y2="203.45"/><line class="cls-2" x1="83.77" y1="81.9" x2="35.48" y2="30.47"/><line class="cls-2" x1="189.45" y1="194.44" x2="141.17" y2="143.02"/><line class="cls-2" x1="144.8" y1="139.2" x2="199.12" y2="184.14"/><line class="cls-2" x1="25.81" y1="40.77" x2="80.13" y2="85.72"/><line class="cls-2" x1="77.06" y1="89.98" x2="17.52" y2="52.2"/><line class="cls-2" x1="207.42" y1="172.72" x2="147.87" y2="134.93"/><line class="cls-2" x1="10.71" y1="64.57" x2="74.53" y2="94.6"/><line class="cls-2" x1="150.4" y1="130.31" x2="214.22" y2="160.35"/><line class="cls-2" x1="72.56" y1="99.48" x2="5.51" y2="77.71"/><line class="cls-2" x1="219.42" y1="147.21" x2="152.37" y2="125.43"/><line class="cls-2" x1="153.67" y1="120.31" x2="222.93" y2="133.53"/><line class="cls-2" x1="2" y1="91.37" x2="71.26" y2="104.59"/><line class="cls-2" x1="224.7" y1="119.51" x2="154.3" y2="115.08"/><line class="cls-2" x1="70.62" y1="109.83" x2="0.22" y2="105.4"/><line class="cls-2" x1="0.22" y1="119.52" x2="70.62" y2="115.08"/><line class="cls-2" x1="224.7" y1="105.38" x2="154.3" y2="109.81"/><line class="cls-2" x1="222.93" y1="91.37" x2="153.66" y2="104.58"/><line class="cls-2" x1="1.99" y1="133.53" x2="71.26" y2="120.31"/><line class="cls-2" x1="5.5" y1="147.21" x2="72.56" y2="125.42"/><line class="cls-2" x1="219.41" y1="77.7" x2="152.36" y2="99.48"/><line class="cls-2" x1="214.21" y1="64.56" x2="150.39" y2="94.59"/><line class="cls-2" x1="10.69" y1="160.35" x2="74.52" y2="130.3"/><line class="cls-2" x1="17.49" y1="172.7" x2="77.04" y2="134.92"/><line class="cls-2" x1="207.4" y1="52.2" x2="147.85" y2="89.98"/><line class="cls-2" x1="199.1" y1="40.77" x2="144.79" y2="85.7"/><line class="cls-2" x1="25.8" y1="184.14" x2="80.11" y2="139.2"/><line class="cls-2" x1="35.46" y1="194.44" x2="83.75" y2="143.01"/><line class="cls-2" x1="189.44" y1="30.47" x2="141.15" y2="81.9"/><line class="cls-2" x1="46.34" y1="203.45" x2="87.8" y2="146.39"/><line class="cls-2" x1="178.55" y1="21.46" x2="137.09" y2="78.54"/><line class="cls-2" x1="166.63" y1="13.92" x2="132.67" y2="75.7"/><line class="cls-2" x1="58.26" y1="211" x2="92.23" y2="149.23"/><line class="cls-2" x1="153.85" y1="7.89" x2="127.88" y2="73.47"/><line class="cls-2" x1="71.03" y1="217.02" x2="97" y2="151.46"/><line class="cls-2" x1="140.41" y1="3.54" x2="122.87" y2="71.86"/><line class="cls-2" x1="84.47" y1="221.39" x2="102.01" y2="153.07"/><line class="cls-2" x1="98.35" y1="224.03" x2="107.18" y2="154.06"/><line class="cls-2" x1="126.54" y1="0.89" x2="117.69" y2="70.86"/><path class="cls-3" d="M22,258.69v1.83c-6,0-7.74,2.28-7.74,4.6a3.07,3.07,0,0,0,3.36,3,4.08,4.08,0,0,0,4.17-4.38H22c0,4.32-1.63,6.31-4.61,6.31a4.28,4.28,0,0,1-4.56-4.37c0-2.93,2.39-4.77,6.9-5.2H12.2v-1.83h3.87v-3.87h2v3.87Z"/><path class="cls-3" d="M34.8,263.38v6.51h-2v-6.11c0-2.38-1.22-3.56-3.26-3.56a3.37,3.37,0,0,0-3.66,3.56v6.11h-2V254.82h2v7.7a4.42,4.42,0,0,1,4.58-4C33.27,258.49,34.8,260.34,34.8,263.38Z"/><path class="cls-3" d="M48.94,264.29c0,3.12-1.81,5.8-5.55,5.8a6,6,0,0,1-6.26-5.8,5.84,5.84,0,0,1,6-5.8C47.13,258.49,48.94,261.15,48.94,264.29Zm-.2,0H39.17c0,2.24,1.73,4,4.68,4S48.64,266.71,48.74,264.29Zm-9.33-1.53h7.33c-.38-1.52-1.44-2.56-3.6-2.56A3.68,3.68,0,0,0,39.41,262.76Z"/><path class="cls-3" d="M55.25,255.72a1.53,1.53,0,1,1,1.54,1.55A1.53,1.53,0,0,1,55.25,255.72Zm2.54,17.84h-2V258.69h2Z"/><path class="cls-3" d="M60.13,264.29a6,6,0,1,1,6,5.8A5.83,5.83,0,0,1,60.13,264.29Zm9.88,0a3.87,3.87,0,1,0-3.87,3.91A3.79,3.79,0,0,0,70,264.29Z"/><path class="cls-3" d="M85.27,258.69v11.2h-2v-3.81a4.38,4.38,0,0,1-4.48,4c-2.75,0-4.28-1.85-4.28-4.88v-6.52h2v6.11c0,2.38,1.22,3.56,3.15,3.56a3.34,3.34,0,0,0,3.57-3.56v-6.11Z"/><path class="cls-3" d="M97.18,263h-2c0-1.37-.49-2.55-2-2.55s-2.95,1.18-2.95,5.4v4.07h-2v-11h2v4.71c.35-3.36,1.55-4.91,3.67-4.91C96.26,258.69,97.18,260.54,97.18,263Z"/><path class="cls-3" d="M109.8,263.38v6.51h-2v-6.11c0-2.38-1.22-3.56-3.26-3.56a3.37,3.37,0,0,0-3.66,3.56v6.11h-2v-11.2h2v3.83a4.42,4.42,0,0,1,4.58-4C108.27,258.49,109.8,260.34,109.8,263.38Z"/><path class="cls-3" d="M123.94,264.29c0,3.12-1.81,5.8-5.56,5.8a6,6,0,0,1-6.25-5.8,5.84,5.84,0,0,1,6.05-5.8C122.13,258.49,123.94,261.15,123.94,264.29Zm-.2,0h-9.57c0,2.24,1.73,4,4.68,4S123.64,266.71,123.74,264.29Zm-9.33-1.53h7.33c-.38-1.52-1.44-2.56-3.6-2.56A3.68,3.68,0,0,0,114.41,262.76Z"/><path class="cls-3" d="M136.83,258.69l-4,9.57c-1.38,3.26-3,5.5-6.9,5.5v-1.83c2.36,0,3.71-1.22,4.6-3.26h-1.28l-4.52-10h2.2l3.64,8.15h.72l3.44-8.15Z"/><path class="cls-3" d="M155.27,264.29a5.57,5.57,0,0,1-5.5,5.8c-2.85,0-4.36-2-4.77-4.68v4.48h-2V254.82h2v8.35c.41-2.63,1.92-4.68,4.77-4.68A5.57,5.57,0,0,1,155.27,264.29Zm-2.14,0a4.07,4.07,0,1,0-4.08,4A3.84,3.84,0,0,0,153.13,264.29Z"/><path class="cls-3" d="M168.9,264.29c0,3.12-1.81,5.8-5.56,5.8a6,6,0,0,1-6.25-5.8,5.84,5.84,0,0,1,6-5.8C167.09,258.49,168.9,261.15,168.9,264.29Zm-.2,0h-9.58c0,2.24,1.74,4,4.69,4S168.6,266.71,168.7,264.29Zm-9.33-1.53h7.33c-.38-1.52-1.45-2.56-3.6-2.56A3.67,3.67,0,0,0,159.37,262.76Z"/><path class="cls-3" d="M183.35,269.56c0,2.92-3,4.61-6.72,4.61-3.11,0-5.5-1-5.5-3.12a3.23,3.23,0,0,1,1-2.24,1.85,1.85,0,0,1-.89-1.69,3.36,3.36,0,0,1,1.1-2.42,3.22,3.22,0,0,1-1.1-2.44c0-2.43,2.46-3.77,5.09-3.77a5.88,5.88,0,0,1,4.19,1.52,2.52,2.52,0,0,0,1.35-1.95c0-1.18-1.15-1.4-2.39-1.4v-1.84c2.12,0,3.16.73,3.16,2.24a3.88,3.88,0,0,1-2,3.12,3.2,3.2,0,0,1,.76,2.08c0,2.42-2.47,3.76-5.09,3.76a6.09,6.09,0,0,1-3.81-1.18,2.78,2.78,0,0,0-.78,1.83,1.37,1.37,0,0,0,1.43,1.49c2.26,0,4-1.43,6.74-1.43C182.17,266.73,183.35,267.83,183.35,269.56Zm-2,.53c0-1-.64-1.63-2-1.63-2.22,0-3.64.72-5.66.72a3.17,3.17,0,0,1-1.39-.27,2.88,2.88,0,0,0-.67,1.73c0,1.84,2.06,2.31,4.34,2.31C179,273,181.32,271.64,181.32,270.09Zm-8.11-7.83a1.77,1.77,0,0,0,.55,1.28,17.59,17.59,0,0,1,2.53-1.39c.85-.41,1.77-.79,2.58-1.2a3.71,3.71,0,0,0-2.54-.77C174.51,260.18,173.21,260.93,173.21,262.26Zm5.82-1.15c-.89.45-1.85.84-2.68,1.23a16.24,16.24,0,0,0-2.43,1.32,3.84,3.84,0,0,0,2.41.67c1.81,0,3.11-.75,3.11-2.07A1.7,1.7,0,0,0,179,261.11Z"/><path class="cls-3" d="M184.26,255.92a1.53,1.53,0,1,1,1.55,1.55A1.54,1.54,0,0,1,184.26,255.92Zm2.54,14h-2v-11.2h2Z"/><path class="cls-3" d="M200.65,263.38v6.51h-2v-6.11c0-2.38-1.22-3.56-3.25-3.56a3.37,3.37,0,0,0-3.67,3.56v6.11h-2v-11.2h2v3.83a4.43,4.43,0,0,1,4.58-4C199.12,258.49,200.65,260.34,200.65,263.38Z"/><path class="cls-3" d="M213.68,266.47c0,2.12-2.08,3.62-5.6,3.62-3.26,0-5.1-1.58-5.1-3.54a3.06,3.06,0,0,1,1.33-2.54,2.38,2.38,0,0,1-1-2.08c0-1.77,1.85-3.44,5.21-3.44,3.55,0,4.69,1.85,4.77,3.87A23.77,23.77,0,0,0,207,263l1.42.18C212.27,263.6,213.68,264.41,213.68,266.47Zm-2,.37c0-1.08-.79-1.47-3.67-1.82a9.76,9.76,0,0,1-3.42-.85,2.5,2.5,0,0,0-1,1.95c0,1.76,1.9,2.65,3.85,2.65C210.44,268.77,211.64,267.75,211.64,266.84Zm-5.07-3.93a19.94,19.94,0,0,1,4.64-.72c-.1-.91-.77-2-3-2-1.79,0-2.87.69-2.87,1.57C205.33,262.38,205.73,262.7,206.57,262.91Z"/><path class="cls-3" d="M215,268.55a1.53,1.53,0,1,1,1.55,1.54A1.54,1.54,0,0,1,215,268.55Z"/></g></g></svg>