<svg xmlns="http://www.w3.org/2000/svg" viewBox="0 0 260.94 232.19"><defs><style>.cls-1{isolation:isolate;}.cls-2{fill:#aee0cd;}.cls-3,.cls-5,.cls-6{fill:none;stroke:#32383a;stroke-miterlimit:10;}.cls-3{stroke-width:0.35px;stroke-dasharray:2.05;}.cls-3,.cls-4{mix-blend-mode:multiply;}.cls-5{stroke-width:0.48px;}.cls-6{stroke-width:1.27px;}</style></defs><g class="cls-1"><g id="Layer_2" data-name="Layer 2"><g id="Design_Development" data-name="Design Development"><path class="cls-2" d="M260.94,232.19V4.72A4.72,4.72,0,0,0,256.21,0H4.72A4.72,4.72,0,0,0,0,4.72V232.19Z"/><line class="cls-3" x1="38.55" y1="82.9" x2="228.74" y2="82.9"/><line class="cls-3" x1="228.74" y1="111.91" x2="38.55" y2="111.91"/><line class="cls-3" x1="38.55" y1="140.92" x2="228.74" y2="140.92"/><line class="cls-3" x1="38.55" y1="169.93" x2="228.74" y2="169.93"/><g class="cls-4"><line class="cls-5" x1="219.55" y1="175.42" x2="219.55" y2="179.5"/><line class="cls-5" x1="213.25" y1="175.42" x2="213.25" y2="179.5"/><line class="cls-5" x1="225.87" y1="175.42" x2="225.87" y2="179.5"/><line class="cls-5" x1="206.95" y1="175.42" x2="206.95" y2="179.5"/><line class="cls-5" x1="200.65" y1="175.42" x2="200.65" y2="179.5"/><line class="cls-5" x1="194.35" y1="175.42" x2="194.35" y2="179.5"/><line class="cls-5" x1="188.05" y1="175.42" x2="188.05" y2="179.5"/><line class="cls-5" x1="181.75" y1="175.42" x2="181.75" y2="179.5"/><line class="cls-5" x1="175.45" y1="175.42" x2="175.45" y2="179.5"/><line class="cls-5" x1="169.15" y1="175.42" x2="169.15" y2="179.5"/><line class="cls-5" x1="162.85" y1="175.42" x2="162.85" y2="179.5"/><line class="cls-5" x1="156.55" y1="175.42" x2="156.55" y2="179.5"/><line class="cls-5" x1="150.25" y1="175.42" x2="150.25" y2="179.5"/><line class="cls-5" x1="143.95" y1="175.42" x2="143.95" y2="179.5"/><line class="cls-5" x1="137.65" y1="175.42" x2="137.65" y2="179.5"/><line class="cls-5" x1="131.35" y1="175.42" x2="131.35" y2="179.5"/><line class="cls-5" x1="125.05" y1="175.42" x2="125.05" y2="179.5"/><line class="cls-5" x1="118.75" y1="175.42" x2="118.75" y2="179.5"/><line class="cls-5" x1="112.45" y1="175.42" x2="112.45" y2="179.5"/><line class="cls-5" x1="106.15" y1="175.42" x2="106.15" y2="179.5"/><line class="cls-5" x1="99.85" y1="175.42" x2="99.85" y2="179.5"/><line class="cls-5" x1="93.55" y1="175.42" x2="93.55" y2="179.5"/><line class="cls-5" x1="87.25" y1="175.42" x2="87.25" y2="179.5"/><line class="cls-5" x1="80.95" y1="175.42" x2="80.95" y2="179.5"/><line class="cls-5" x1="74.65" y1="175.42" x2="74.65" y2="179.5"/><line class="cls-5" x1="68.35" y1="175.42" x2="68.35" y2="179.5"/><line class="cls-5" x1="62.06" y1="175.42" x2="62.06" y2="179.5"/><line class="cls-5" x1="55.75" y1="175.42" x2="55.75" y2="179.5"/><line class="cls-5" x1="49.45" y1="175.42" x2="49.45" y2="179.5"/><line class="cls-5" x1="43.15" y1="175.42" x2="43.15" y2="179.5"/></g><line class="cls-6" x1="225.84" y1="169.93" x2="225.84" y2="97.06"/><line class="cls-6" x1="219.54" y1="169.93" x2="219.54" y2="97.06"/><line class="cls-6" x1="213.24" y1="169.93" x2="213.24" y2="97.06"/><line class="cls-6" x1="206.94" y1="169.93" x2="206.94" y2="125.03"/><line class="cls-6" x1="200.64" y1="169.93" x2="200.64" y2="125.03"/><line class="cls-6" x1="188.04" y1="169.93" x2="188.04" y2="140.9"/><line class="cls-6" x1="181.75" y1="169.93" x2="181.75" y2="82.9"/><line class="cls-6" x1="175.45" y1="169.93" x2="175.45" y2="82.9"/><line class="cls-6" x1="169.15" y1="169.93" x2="169.15" y2="111.73"/><line class="cls-6" x1="162.85" y1="169.93" x2="162.85" y2="111.73"/><line class="cls-6" x1="156.55" y1="169.93" x2="156.55" y2="111.73"/><line class="cls-6" x1="143.95" y1="169.93" x2="143.95" y2="97.06"/><line class="cls-6" x1="137.65" y1="169.93" x2="137.65" y2="140.73"/><line class="cls-6" x1="131.35" y1="169.93" x2="131.35" y2="140.73"/><line class="cls-6" x1="125.05" y1="169.93" x2="125.05" y2="75.73"/><line class="cls-6" x1="118.75" y1="169.93" x2="118.75" y2="111.9"/><line class="cls-6" x1="106.15" y1="169.93" x2="106.15" y2="75.73"/><line class="cls-6" x1="99.85" y1="169.93" x2="99.85" y2="75.73"/><line class="cls-6" x1="93.55" y1="169.93" x2="93.55" y2="95.52"/><line class="cls-6" x1="87.25" y1="169.93" x2="87.25" y2="95.52"/><line class="cls-6" x1="80.95" y1="169.93" x2="80.95" y2="75.73"/><line class="cls-6" x1="68.35" y1="169.93" x2="68.35" y2="141.07"/><line class="cls-6" x1="62.05" y1="169.93" x2="62.05" y2="140.9"/><line class="cls-6" x1="55.75" y1="169.93" x2="55.75" y2="75.73"/><line class="cls-6" x1="49.45" y1="169.93" x2="49.45" y2="75.73"/><line class="cls-6" x1="43.15" y1="169.93" x2="43.15" y2="112.24"/></g></g></g></svg>