<svg xmlns="http://www.w3.org/2000/svg" viewBox="0 0 40.89 37.77"><defs><style>.cls-1{fill:#32383a;}</style></defs><g id="Layer_2" data-name="Layer 2"><g id="Iconography"><path class="cls-1" d="M1.27,13.67H6a2.39,2.39,0,0,1,2.32,1.79H3.59A2.4,2.4,0,0,1,1.27,13.67Zm20.84.3a10.76,10.76,0,0,1,6-2.24v7.32H20.52a9,9,0,0,1,2.4-3.24,8.9,8.9,0,0,1,4.43-2l-.18-1.19a10.19,10.19,0,0,0-5,2.33,10.06,10.06,0,0,0-2.91,4.14h-.8A11,11,0,0,1,22.11,14ZM9.29,23.39v2.3a1.79,1.79,0,1,1,1.2,0v-2.3Zm7.33,3.45a.9.9,0,0,1-.89.9H10.49v-.81a3,3,0,1,0-1.2,0v.76a3.75,3.75,0,0,1-3.15-3.75A3.79,3.79,0,0,1,10,20.25H28.7a2.31,2.31,0,0,1,1.66.7A2.14,2.14,0,0,1,31,22.54a2.25,2.25,0,0,1-2.24,2.2h-10A2.11,2.11,0,0,0,16.62,26.84Zm12.14,6.74A11,11,0,0,1,18.35,26a1,1,0,0,1,.37-.08h.4a10.17,10.17,0,0,0,2.56,4l.83-.85a9,9,0,0,1-2.11-3.17h8.36a3.46,3.46,0,0,0,3.44-3.38,3.4,3.4,0,0,0-1-2.45,3.59,3.59,0,0,0-1.92-1V11.72a10.94,10.94,0,0,1-.54,21.86Zm12,4.19a1.79,1.79,0,0,0-1.2-1.69v-1.9H36.83l-1.22-1.53A12.13,12.13,0,0,0,29.3,10.52V0h-4V1.32h2.8v9.21A12,12,0,0,0,21.38,13a12.17,12.17,0,0,0-4.21,6H9.59v-1.8H4.79v-.6h4.8v-.6A3.6,3.6,0,0,0,6,12.47H0v.6a3.59,3.59,0,0,0,3.59,3.59v1.8h4.8v.84a5,5,0,0,0-3.45,4.63,4.9,4.9,0,0,0,1.43,3.53,4.44,4.44,0,0,0,.56.5L3.68,34.18H1.2v1.9A1.79,1.79,0,0,0,0,37.77H1.2a.6.6,0,0,1,.6-.6H6.59a.6.6,0,0,1,.6.6h1.2A1.81,1.81,0,0,0,6.59,36H2.4v-.59h2L8,28.55a5,5,0,0,0,1.32.35v2.28h1.2V28.93h5.24a2.1,2.1,0,0,0,1.95-1.33,12.17,12.17,0,0,0,11.08,7.18,12,12,0,0,0,5.83-1.5l1.67,2.1h2.08V36H34.15a1.81,1.81,0,0,0-1.8,1.8h1.2a.6.6,0,0,1,.6-.6h4.79a.6.6,0,0,1,.6.6Z"/><path class="cls-1" d="M22.71,30.84a10.28,10.28,0,0,0,3.34,1.63l.32-1.16a8.88,8.88,0,0,1-2.95-1.43Z"/><path class="cls-1" d="M27.35,31.52l-.18,1.19a10.44,10.44,0,0,0,1.59.12A10.83,10.83,0,0,0,30,32.75l-.15-1.19A8.94,8.94,0,0,1,27.35,31.52Z"/><path class="cls-1" d="M37.39,17.23l-1,.64A9,9,0,0,1,31,31.35l.29,1.16a10.2,10.2,0,0,0,6.1-15.28Z"/><path class="cls-1" d="M35.77,17l.94-.75A11.3,11.3,0,0,0,35.5,15l-.8.9A8.78,8.78,0,0,1,35.77,17Z"/><path class="cls-1" d="M34.65,14.33a10.1,10.1,0,0,0-3.5-1.59l-.29,1.17A8.75,8.75,0,0,1,34,15.31Z"/><rect class="cls-1" x="7.79" y="31.78" width="4.19" height="1.2"/><rect class="cls-1" x="28.16" y="22.04" width="1.2" height="1.2"/><rect class="cls-1" x="14.38" y="21" width="1.2" height="1.2"/><rect class="cls-1" x="16.18" y="21" width="1.2" height="1.2"/><rect class="cls-1" x="17.97" y="21" width="1.2" height="1.2"/><path class="cls-1" d="M26,.66A.66.66,0,1,1,25.31,0,.66.66,0,0,1,26,.66Z"/><polygon class="cls-1" points="29.19 19.22 17.86 3.22 14.59 5.53 15.36 6.61 17.64 4.99 28.22 19.91 29.19 19.22"/><path class="cls-1" d="M15.52,5.68a.66.66,0,1,1-.92-.16A.66.66,0,0,1,15.52,5.68Z"/></g></g></svg>