<svg xmlns="http://www.w3.org/2000/svg" viewBox="0 0 24.83 24.83"><defs><style>.cls-1{fill:#32383a;}.cls-2{fill:#faf2df;}</style></defs><g id="Layer_2" data-name="Layer 2"><g id="Design_Development" data-name="Design Development"><path class="cls-1" d="M0,12.41A12.42,12.42,0,1,1,12.42,24.83,12.42,12.42,0,0,1,0,12.41Z"/><path class="cls-2" d="M17.36,13.08h-8l3.5,3.5-.61.6L7.7,12.64,12.24,8.1l.61.6-3.5,3.5h8Z"/><path class="cls-2" d="M12.24,17.52,7.37,12.64l4.87-4.88.95.94L9.92,12h7.67v1.36H9.92l3.27,3.26ZM8,12.64l4.2,4.21.27-.27L8.77,12.84h8.35v-.4H8.77L12.51,8.7l-.27-.27Z"/></g></g></svg>