<svg xmlns="http://www.w3.org/2000/svg" viewBox="0 0 16.95 23.18"><defs><style>.cls-1{fill:#32383a;}</style></defs><g id="Layer_2" data-name="Layer 2"><g id="Design_Development" data-name="Design Development"><path class="cls-1" d="M16.33,2.21H11.19v-1A1.18,1.18,0,0,0,10,0H6.94A1.18,1.18,0,0,0,5.76,1.18v1H4.34a.34.34,0,1,0,0,.68H16.27l-.06,1.43H.74L.68,2.89H2.76a.34.34,0,0,0,0-.68H.61A.62.62,0,0,0,0,2.84v0L.07,4.4a.61.61,0,0,0,.6.6H.91l.73,17.3a.9.9,0,0,0,.88.88H14.43a.9.9,0,0,0,.88-.88l.32-7.57a.33.33,0,0,0-.33-.35.33.33,0,0,0-.35.32l-.32,7.57a.22.22,0,0,1-.2.23H2.52a.22.22,0,0,1-.2-.23L1.59,5H15.36L15,13.11a.34.34,0,1,0,.68,0L16,5h.23a.61.61,0,0,0,.61-.6L17,2.86v0a.62.62,0,0,0-.62-.63Zm-9.89,0v-1a.5.5,0,0,1,.5-.5H10a.5.5,0,0,1,.5.5v1Z"/><path class="cls-1" d="M4.31,8.89a.37.37,0,0,1-.37.38.38.38,0,0,1,0-.76.37.37,0,0,1,.37.38Z"/><path class="cls-1" d="M4.31,11.16a.37.37,0,0,1-.37.38.38.38,0,0,1,0-.76.37.37,0,0,1,.37.38Z"/><path class="cls-1" d="M5.45,7.76a.38.38,0,0,1-.76,0,.38.38,0,0,1,.76,0Z"/><path class="cls-1" d="M7.72,7.76a.37.37,0,0,1-.38.37A.38.38,0,0,1,7,7.76a.39.39,0,0,1,.38-.38.38.38,0,0,1,.38.38Z"/><path class="cls-1" d="M5.45,10a.38.38,0,1,1-.38-.38.38.38,0,0,1,.38.38Z"/><path class="cls-1" d="M7.72,10a.38.38,0,0,1-.38.38.38.38,0,0,1,0-.76.38.38,0,0,1,.38.38Z"/><path class="cls-1" d="M6.59,8.89a.38.38,0,1,1-.38-.38.38.38,0,0,1,.38.38Z"/><path class="cls-1" d="M8.86,8.89a.38.38,0,1,1-.38-.38.38.38,0,0,1,.38.38Z"/><path class="cls-1" d="M6.59,11.16a.38.38,0,1,1-.38-.38.38.38,0,0,1,.38.38Z"/><path class="cls-1" d="M8.86,11.16a.38.38,0,1,1-.38-.38.38.38,0,0,1,.38.38Z"/><path class="cls-1" d="M10,7.76a.38.38,0,0,1-.76,0,.38.38,0,1,1,.76,0Z"/><path class="cls-1" d="M12.26,7.76a.37.37,0,0,1-.38.37.37.37,0,0,1-.37-.37.38.38,0,0,1,.37-.38.37.37,0,0,1,.38.38Z"/><path class="cls-1" d="M10,10a.38.38,0,1,1-.38-.38A.38.38,0,0,1,10,10Z"/><path class="cls-1" d="M12.26,10a.37.37,0,0,1-.38.38.38.38,0,0,1,0-.76.37.37,0,0,1,.38.38Z"/><path class="cls-1" d="M11.12,8.89a.37.37,0,0,1-.37.38.38.38,0,0,1,0-.76.37.37,0,0,1,.37.38Z"/><path class="cls-1" d="M13.4,8.89A.38.38,0,1,1,13,8.51a.38.38,0,0,1,.38.38Z"/><path class="cls-1" d="M11.12,11.16a.37.37,0,0,1-.37.38.38.38,0,0,1,0-.76.37.37,0,0,1,.37.38Z"/><path class="cls-1" d="M13.4,11.16a.38.38,0,1,1-.38-.38.38.38,0,0,1,.38.38Z"/><path class="cls-1" d="M4.31,13.44a.37.37,0,0,1-.37.37.38.38,0,1,1,0-.75.37.37,0,0,1,.37.38Z"/><path class="cls-1" d="M4.31,15.7a.37.37,0,0,1-.37.38.38.38,0,1,1,0-.75.37.37,0,0,1,.37.37Z"/><path class="cls-1" d="M5.45,12.3a.38.38,0,1,1-.38-.38.38.38,0,0,1,.38.38Z"/><path class="cls-1" d="M7.72,12.3a.38.38,0,0,1-.38.38.38.38,0,1,1,0-.76.38.38,0,0,1,.38.38Z"/><path class="cls-1" d="M5.45,14.57a.38.38,0,1,1-.38-.38.38.38,0,0,1,.38.38Z"/><path class="cls-1" d="M7.72,14.57a.38.38,0,0,1-.38.38.38.38,0,1,1,0-.76.38.38,0,0,1,.38.38Z"/><path class="cls-1" d="M6.59,13.44a.38.38,0,1,1-.38-.38.38.38,0,0,1,.38.38Z"/><path class="cls-1" d="M8.86,13.44a.38.38,0,1,1-.38-.38.38.38,0,0,1,.38.38Z"/><path class="cls-1" d="M6.59,15.7a.38.38,0,1,1-.38-.37.38.38,0,0,1,.38.37Z"/><path class="cls-1" d="M8.86,15.7a.38.38,0,1,1-.38-.37.38.38,0,0,1,.38.37Z"/><path class="cls-1" d="M10,12.3a.38.38,0,1,1-.38-.38.38.38,0,0,1,.38.38Z"/><path class="cls-1" d="M12.26,12.3a.37.37,0,0,1-.38.38.38.38,0,0,1,0-.76.37.37,0,0,1,.38.38Z"/><path class="cls-1" d="M10,14.57a.38.38,0,1,1-.38-.38.38.38,0,0,1,.38.38Z"/><path class="cls-1" d="M12.26,14.57a.37.37,0,0,1-.38.38.38.38,0,0,1,0-.76.37.37,0,0,1,.38.38Z"/><path class="cls-1" d="M11.12,13.44a.37.37,0,0,1-.37.37.38.38,0,1,1,0-.75.37.37,0,0,1,.37.38Z"/><path class="cls-1" d="M13.4,13.44a.38.38,0,1,1-.38-.38.38.38,0,0,1,.38.38Z"/><path class="cls-1" d="M11.12,15.7a.37.37,0,0,1-.37.38.38.38,0,1,1,0-.75.37.37,0,0,1,.37.37Z"/><path class="cls-1" d="M13.4,15.7a.38.38,0,1,1-.38-.37.38.38,0,0,1,.38.37Z"/><path class="cls-1" d="M4.31,18a.37.37,0,0,1-.37.38A.37.37,0,0,1,3.56,18a.38.38,0,0,1,.38-.37.37.37,0,0,1,.37.37Z"/><path class="cls-1" d="M5.45,16.84a.38.38,0,1,1-.76,0,.38.38,0,1,1,.76,0Z"/><path class="cls-1" d="M7.72,16.84a.39.39,0,0,1-.38.39A.4.4,0,0,1,7,16.84a.39.39,0,0,1,.38-.38.38.38,0,0,1,.38.38Z"/><path class="cls-1" d="M5.45,19.11a.38.38,0,1,1-.38-.38.38.38,0,0,1,.38.38Z"/><path class="cls-1" d="M7.72,19.11a.38.38,0,0,1-.38.38.38.38,0,1,1,0-.76.38.38,0,0,1,.38.38Z"/><path class="cls-1" d="M6.59,18a.38.38,0,1,1-.76,0,.38.38,0,0,1,.76,0Z"/><path class="cls-1" d="M8.86,18a.38.38,0,0,1-.76,0,.38.38,0,0,1,.76,0Z"/><path class="cls-1" d="M10,16.84a.38.38,0,1,1-.76,0,.38.38,0,0,1,.76,0Z"/><path class="cls-1" d="M12.26,16.84a.38.38,0,0,1-.38.39.39.39,0,0,1-.37-.39.38.38,0,0,1,.37-.38.37.37,0,0,1,.38.38Z"/><path class="cls-1" d="M10,19.11a.38.38,0,1,1-.38-.38.38.38,0,0,1,.38.38Z"/><path class="cls-1" d="M12.26,19.11a.37.37,0,0,1-.38.38.38.38,0,0,1,0-.76.37.37,0,0,1,.38.38Z"/><path class="cls-1" d="M11.12,18a.37.37,0,0,1-.37.38.37.37,0,0,1-.38-.38.38.38,0,0,1,.38-.37.37.37,0,0,1,.37.37Z"/><path class="cls-1" d="M13.4,18a.38.38,0,1,1-.76,0,.38.38,0,0,1,.76,0Z"/></g></g></svg>