<svg xmlns="http://www.w3.org/2000/svg" viewBox="0 0 40.69 40.76"><defs><style>.cls-1{fill:#32383a;}</style></defs><g id="Layer_2" data-name="Layer 2"><g id="Iconography"><path class="cls-1" d="M10.57,39.57H.55a.6.6,0,0,0,0,1.19c2.58,0,11.25,0,12.23,0,.81,0,.65-.95.09-1.2-1.34-.56-2.43-1.45-2.4-3.07s.87-3.07,2.43-3.22c.87-.08,1.24.55,1.24,1.32l-.05,2.31a.58.58,0,0,0,.12.36L16,39.59a.61.61,0,0,0-.43.58.59.59,0,0,0,.6.59s18.4,0,24,0a.6.6,0,0,0,0-1.19h0l-6.17,0a2.39,2.39,0,0,0,.18-2.13l-3-7.06v-.42a2.41,2.41,0,0,0-1.81-2.33V26.39a8.86,8.86,0,0,0-.82-3.75,8.44,8.44,0,0,1-.66-2.42l-.61-4.66A.6.6,0,0,0,26.6,15a.61.61,0,0,0-.51.67l.6,4.66a8.93,8.93,0,0,0,.77,2.77,7.77,7.77,0,0,1,.71,3.25v1.38H23.48v-20h1.58l.63,4.82a.58.58,0,0,0,.66.51.59.59,0,0,0,.52-.66L26.2,7.28c.56-1.21,1-2.39.36-3.69L25.7,1.8A3.13,3.13,0,0,0,22.88,0a.6.6,0,0,0-.6.6l0,31.72a.89.89,0,0,1-.9.89,3.77,3.77,0,0,0-1.9.52,4,4,0,0,0-2.7-1H14.66a2.31,2.31,0,0,0-1.85-.59,3.8,3.8,0,0,0-3.21,2.7S8.58,37.75,10.57,39.57ZM30,29.93v.54c0,.08,3.05,7.4,3.05,7.4a1.23,1.23,0,0,1-1.13,1.64H23.57a.8.8,0,0,1,0-1.6l7.34,0a.61.61,0,0,0,.55-.84l-2.09-4.77V28.89A1.21,1.21,0,0,1,30,29.93Zm-.61,5.35L30,36.74H29.1A6,6,0,0,0,29.37,35.28ZM28.17,29v2.1H23.49V29ZM23.48,1.29a2,2,0,0,1,1.14,1l.86,1.79a2.65,2.65,0,0,1-.28,2.47H23.48Zm0,31v0h4.7V35a4.63,4.63,0,0,1-.36,1.77H23.58a2,2,0,0,0-1.79,2.82A3,3,0,0,1,20,39.16a4,4,0,0,0,.27-4.5,2.66,2.66,0,0,1,1.12-.25,2.09,2.09,0,0,0,2.09-2.09Zm-8.18,4.4,0-2.11a3.42,3.42,0,0,0-.07-.75H16.8a2.88,2.88,0,0,1,2,.85,2.81,2.81,0,0,1,.82,2,2.86,2.86,0,0,1-2.27,2.76Z"/></g></g></svg>