<svg xmlns="http://www.w3.org/2000/svg" viewBox="0 0 80.38 7.96"><defs><style>.cls-1{fill:#aee0cd;}</style></defs><g id="Layer_2" data-name="Layer 2"><g id="Design_Development" data-name="Design Development"><path class="cls-1" d="M2.44,6.32A2.39,2.39,0,0,1,0,4,2.38,2.38,0,0,1,2.44,1.64,2.13,2.13,0,0,1,4.72,3.53H3.9A1.32,1.32,0,0,0,2.42,2.38,1.51,1.51,0,0,0,.86,4a1.62,1.62,0,0,0,1.76,1.6,1.86,1.86,0,0,0,2-1.27h.09A2.27,2.27,0,0,1,2.44,6.32Z"/><path class="cls-1" d="M10.09,3.61V6.23H9.27V3.77c0-1-.49-1.43-1.31-1.43A1.36,1.36,0,0,0,6.48,3.77V6.23H5.66V.16h.82v3.1A1.79,1.79,0,0,1,8.33,1.64C9.48,1.64,10.09,2.39,10.09,3.61Z"/><path class="cls-1" d="M16.14,4.05c0,1.73-.49,2.27-1.09,2.27a.73.73,0,0,1-.76-.82V3.89h-.41c0,1.19-.39,2.43-1.68,2.43A1.08,1.08,0,0,1,11,5.27c0-.92,1-1.29,2.15-1.42-1.16-.05-1.81-.3-1.81-1s.7-1.24,1.81-1.24a1.73,1.73,0,0,1,2,1.89V5.25c0,.27.11.37.27.37s.67-.21.67-1.66a9.45,9.45,0,0,0-.31-2.24h.09A10.44,10.44,0,0,1,16.14,4.05Zm-1.85-.44c0-.62-.24-1.27-1.41-1.27-.69,0-1.17.24-1.17.7s.62.77,2.09.77h.49Zm-.49.28c-1.38,0-2,.41-2,1.07a.62.62,0,0,0,.71.66C13.38,5.62,13.8,4.93,13.8,3.89Z"/><path class="cls-1" d="M17.77,6.23H17V.16h.82Z"/><path class="cls-1" d="M19.74,6.23h-.82V.16h.82Z"/><path class="cls-1" d="M25.44,4A2.15,2.15,0,0,1,23.2,6.32,2.41,2.41,0,0,1,20.68,4a2.35,2.35,0,0,1,2.44-2.34A2.17,2.17,0,0,1,25.44,4Zm-.08,0H21.5a1.67,1.67,0,0,0,1.89,1.6C24.62,5.58,25.32,5,25.36,4ZM21.6,3.36h2.95a1.32,1.32,0,0,0-1.45-1A1.48,1.48,0,0,0,21.6,3.36Z"/><path class="cls-1" d="M30.81,3.61V6.23H30V3.77c0-1-.49-1.43-1.31-1.43A1.36,1.36,0,0,0,27.2,3.77V6.23h-.82V1.72h.82V3.26a1.79,1.79,0,0,1,1.85-1.62C30.2,1.64,30.81,2.39,30.81,3.61Z"/><path class="cls-1" d="M36.85,6.1c0,1.18-1.2,1.86-2.71,1.86-1.26,0-2.22-.4-2.22-1.26a1.3,1.3,0,0,1,.41-.9A.76.76,0,0,1,32,5.12a1.4,1.4,0,0,1,.45-1,1.3,1.3,0,0,1-.45-1c0-1,1-1.52,2.06-1.52a2.38,2.38,0,0,1,1.69.61,1,1,0,0,0,.54-.78c0-.48-.46-.57-1-.57V.16c.85,0,1.27.3,1.27.9a1.56,1.56,0,0,1-.8,1.26,1.29,1.29,0,0,1,.31.84c0,1-1,1.52-2,1.52a2.5,2.5,0,0,1-1.54-.48,1.11,1.11,0,0,0-.31.74.55.55,0,0,0,.57.6c.91,0,1.63-.58,2.72-.58C36.37,5,36.85,5.4,36.85,6.1ZM36,6.32c0-.41-.26-.66-.79-.66-.9,0-1.47.29-2.28.29a1.36,1.36,0,0,1-.56-.11,1.15,1.15,0,0,0-.27.7c0,.74.83.92,1.75.92C35.11,7.46,36,6.94,36,6.32ZM32.76,3.16a.69.69,0,0,0,.22.51,7.12,7.12,0,0,1,1-.55c.34-.17.71-.32,1-.49a1.52,1.52,0,0,0-1-.31C33.29,2.32,32.76,2.62,32.76,3.16Zm2.35-.46c-.36.18-.75.34-1.09.49a7.28,7.28,0,0,0-1,.53A1.53,1.53,0,0,0,34,4c.73,0,1.25-.31,1.25-.84A.71.71,0,0,0,35.11,2.7Z"/><path class="cls-1" d="M42,4a2.15,2.15,0,0,1-2.23,2.34A2.41,2.41,0,0,1,37.22,4a2.35,2.35,0,0,1,2.43-2.34A2.16,2.16,0,0,1,42,4Zm-.08,0H38a1.66,1.66,0,0,0,1.88,1.6C41.15,5.58,41.85,5,41.89,4Zm-3.75-.62h3a1.32,1.32,0,0,0-1.45-1A1.47,1.47,0,0,0,38.14,3.36Z"/><path class="cls-1" d="M49.14,1.72,47.52,5.58c-.56,1.31-1.2,2.21-2.79,2.21V7.06a1.9,1.9,0,0,0,1.86-1.32h-.52l-1.82-4h.89L46.6,5h.29l1.39-3.28Z"/><path class="cls-1" d="M49.44,4a2.43,2.43,0,1,1,2.43,2.34A2.35,2.35,0,0,1,49.44,4Zm4,0a1.56,1.56,0,1,0-3.11,0,1.56,1.56,0,1,0,3.11,0Z"/><path class="cls-1" d="M59.58,1.72V6.23h-.82V4.7A1.77,1.77,0,0,1,57,6.32c-1.1,0-1.72-.75-1.72-2V1.72h.82V4.18c0,1,.49,1.44,1.27,1.44a1.35,1.35,0,0,0,1.44-1.44V1.72Z"/><path class="cls-1" d="M64.38,3.44h-.82c0-.54-.2-1-.82-1s-1.19.48-1.19,2.17V6.23h-.82V1.81h.82V3.7c.14-1.35.62-2,1.48-2S64.38,2.47,64.38,3.44Z"/><path class="cls-1" d="M69,4.85c0,.86-.84,1.47-2.26,1.47s-2-.64-2-1.43a1.25,1.25,0,0,1,.53-1A1,1,0,0,1,64.79,3c0-.72.75-1.39,2.1-1.39s1.89.75,1.92,1.56a9.82,9.82,0,0,0-2.52.26l.58.08C68.41,3.7,69,4,69,4.85ZM68.16,5c0-.43-.32-.59-1.48-.73a3.94,3.94,0,0,1-1.38-.34,1,1,0,0,0-.39.79c0,.7.77,1.06,1.56,1.06C67.67,5.78,68.16,5.37,68.16,5Zm-2-1.58A8.08,8.08,0,0,1,68,3.13c0-.37-.31-.79-1.21-.79-.72,0-1.16.28-1.16.63S65.78,3.34,66.11,3.42Z"/><path class="cls-1" d="M74.43,4a2.15,2.15,0,0,1-2.24,2.34A2.4,2.4,0,0,1,69.68,4a2.35,2.35,0,0,1,2.43-2.34A2.17,2.17,0,0,1,74.43,4Zm-.08,0H70.5a1.66,1.66,0,0,0,1.88,1.6C73.61,5.58,74.31,5,74.35,4Zm-3.76-.62h3a1.33,1.33,0,0,0-1.46-1A1.49,1.49,0,0,0,70.59,3.36Z"/><path class="cls-1" d="M76.2,6.23h-.82V.16h.82Z"/><path class="cls-1" d="M80.38,1.72v.74H77.55c1.32.18,2.17,1,2.17,1.93a1.93,1.93,0,0,1-2.19,1.84V5.5A1.25,1.25,0,0,0,78.9,4.2c0-.85-.41-1.74-2-1.74V1.72h1.92C77.59,1.63,77.1,1.4,77.1.93S77.82,0,78.61,0,80.3.34,80.3,1.31h-.82c0-.46-.52-.66-1-.66s-1.06.11-1.06.46S77.85,1.72,80.38,1.72Z"/></g></g></svg>