<svg xmlns="http://www.w3.org/2000/svg" viewBox="0 0 274.79 300.89"><defs><style>.cls-1,.cls-2{fill:none;stroke:#32383a;stroke-miterlimit:10;}.cls-1{stroke-width:1.51px;}.cls-2{stroke-width:1.01px;}.cls-3{fill:#32383a;}</style></defs><g id="Layer_2" data-name="Layer 2"><g id="Design_Development" data-name="Design Development"><line class="cls-1" x1="133.72" y1="0.22" x2="136.05" y2="37.16"/><line class="cls-1" x1="147.84" y1="224.71" x2="145.52" y2="187.76"/><line class="cls-1" x1="161.85" y1="222.95" x2="154.93" y2="186.64"/><line class="cls-1" x1="119.7" y1="2" x2="126.63" y2="38.3"/><line class="cls-1" x1="175.52" y1="219.42" x2="164.11" y2="184.29"/><line class="cls-1" x1="117.44" y1="40.64" x2="106.02" y2="5.51"/><line class="cls-1" x1="92.9" y1="10.7" x2="108.64" y2="44.18"/><line class="cls-1" x1="172.9" y1="180.76" x2="188.66" y2="214.23"/><line class="cls-1" x1="100.33" y1="48.73" x2="80.51" y2="17.5"/><line class="cls-1" x1="201.04" y1="207.42" x2="181.22" y2="176.2"/><line class="cls-1" x1="188.92" y1="170.67" x2="212.46" y2="199.11"/><line class="cls-1" x1="69.09" y1="25.81" x2="92.63" y2="54.25"/><line class="cls-1" x1="85.77" y1="60.8" x2="58.8" y2="35.47"/><line class="cls-1" x1="222.76" y1="189.46" x2="195.79" y2="164.13"/><line class="cls-1" x1="201.82" y1="156.82" x2="231.75" y2="178.57"/><line class="cls-1" x1="49.8" y1="46.35" x2="79.72" y2="68.1"/><line class="cls-1" x1="74.58" y1="76.07" x2="42.22" y2="58.28"/><line class="cls-1" x1="239.33" y1="166.63" x2="206.97" y2="148.84"/><line class="cls-1" x1="36.21" y1="71.06" x2="70.58" y2="84.67"/><line class="cls-1" x1="210.97" y1="140.25" x2="245.33" y2="153.85"/><line class="cls-1" x1="67.69" y1="93.69" x2="31.84" y2="84.49"/><line class="cls-1" x1="249.69" y1="140.42" x2="213.87" y2="131.23"/><line class="cls-1" x1="29.19" y1="98.37" x2="65.88" y2="102.99"/><line class="cls-1" x1="252.35" y1="126.54" x2="215.66" y2="121.91"/><line class="cls-1" x1="253.23" y1="112.45" x2="216.31" y2="112.45"/><line class="cls-1" x1="65.23" y1="112.46" x2="28.31" y2="112.46"/><line class="cls-1" x1="252.35" y1="98.36" x2="215.66" y2="102.99"/><line class="cls-1" x1="65.88" y1="121.91" x2="29.19" y2="126.54"/><line class="cls-1" x1="67.67" y1="131.23" x2="31.83" y2="140.42"/><line class="cls-1" x1="249.69" y1="84.47" x2="213.86" y2="93.68"/><line class="cls-1" x1="70.57" y1="140.25" x2="36.19" y2="153.86"/><line class="cls-1" x1="245.32" y1="71.05" x2="210.96" y2="84.66"/><line class="cls-1" x1="239.3" y1="58.27" x2="206.95" y2="76.05"/><line class="cls-1" x1="74.57" y1="148.84" x2="42.2" y2="166.63"/><line class="cls-1" x1="79.7" y1="156.82" x2="49.77" y2="178.55"/><line class="cls-1" x1="231.74" y1="46.35" x2="201.82" y2="68.1"/><line class="cls-1" x1="222.74" y1="35.47" x2="195.77" y2="60.79"/><line class="cls-1" x1="85.74" y1="164.12" x2="58.77" y2="189.43"/><line class="cls-1" x1="92.6" y1="170.67" x2="69.06" y2="199.11"/><line class="cls-1" x1="212.44" y1="25.81" x2="188.9" y2="54.25"/><line class="cls-1" x1="201.01" y1="17.5" x2="181.19" y2="48.73"/><line class="cls-1" x1="100.31" y1="176.19" x2="80.48" y2="207.42"/><line class="cls-1" x1="108.6" y1="180.76" x2="92.86" y2="214.21"/><line class="cls-1" x1="188.64" y1="10.7" x2="172.88" y2="44.18"/><line class="cls-1" x1="117.4" y1="184.28" x2="105.99" y2="219.41"/><line class="cls-1" x1="175.5" y1="5.51" x2="164.08" y2="40.64"/><line class="cls-1" x1="161.82" y1="2" x2="154.9" y2="38.3"/><line class="cls-1" x1="119.68" y1="222.93" x2="126.59" y2="186.63"/><line class="cls-1" x1="133.68" y1="224.71" x2="136.01" y2="187.76"/><line class="cls-1" x1="147.82" y1="0.22" x2="145.49" y2="37.16"/><line class="cls-2" x1="140.77" x2="140.77" y2="70.5"/><line class="cls-2" x1="140.77" y1="224.93" x2="140.77" y2="154.44"/><line class="cls-2" x1="146.03" y1="154.07" x2="154.87" y2="224.05"/><line class="cls-2" x1="126.69" y1="0.89" x2="135.52" y2="70.86"/><line class="cls-2" x1="130.36" y1="71.86" x2="112.81" y2="3.54"/><line class="cls-2" x1="168.74" y1="221.39" x2="151.2" y2="153.07"/><line class="cls-2" x1="156.21" y1="151.47" x2="182.18" y2="217.02"/><line class="cls-2" x1="99.38" y1="7.89" x2="125.34" y2="73.47"/><line class="cls-2" x1="120.56" y1="75.7" x2="86.6" y2="13.92"/><line class="cls-2" x1="194.95" y1="211.01" x2="160.99" y2="149.24"/><line class="cls-2" x1="74.67" y1="21.46" x2="116.13" y2="78.55"/><line class="cls-2" x1="165.41" y1="146.39" x2="206.87" y2="203.45"/><line class="cls-2" x1="112.08" y1="81.9" x2="63.79" y2="30.47"/><line class="cls-2" x1="217.76" y1="194.44" x2="169.47" y2="143.02"/><line class="cls-2" x1="173.11" y1="139.2" x2="227.42" y2="184.14"/><line class="cls-2" x1="54.12" y1="40.77" x2="108.44" y2="85.72"/><line class="cls-2" x1="105.37" y1="89.98" x2="45.83" y2="52.2"/><line class="cls-2" x1="235.73" y1="172.72" x2="176.18" y2="134.93"/><line class="cls-2" x1="39.02" y1="64.57" x2="102.83" y2="94.6"/><line class="cls-2" x1="178.71" y1="130.31" x2="242.53" y2="160.35"/><line class="cls-2" x1="100.87" y1="99.48" x2="33.81" y2="77.71"/><line class="cls-2" x1="247.72" y1="147.2" x2="180.67" y2="125.43"/><line class="cls-2" x1="181.98" y1="120.31" x2="251.24" y2="133.53"/><line class="cls-2" x1="30.31" y1="91.37" x2="99.56" y2="104.59"/><line class="cls-2" x1="253.01" y1="119.51" x2="182.6" y2="115.08"/><line class="cls-2" x1="98.93" y1="109.83" x2="28.52" y2="105.4"/><line class="cls-2" x1="28.52" y1="119.52" x2="98.93" y2="115.08"/><line class="cls-2" x1="253.01" y1="105.38" x2="182.6" y2="109.81"/><line class="cls-2" x1="251.23" y1="91.37" x2="181.97" y2="104.58"/><line class="cls-2" x1="30.3" y1="133.53" x2="99.56" y2="120.31"/><line class="cls-2" x1="33.8" y1="147.21" x2="100.86" y2="125.42"/><line class="cls-2" x1="247.72" y1="77.7" x2="180.67" y2="99.48"/><line class="cls-2" x1="242.52" y1="64.56" x2="178.7" y2="94.59"/><line class="cls-2" x1="39" y1="160.35" x2="102.83" y2="130.3"/><line class="cls-2" x1="45.8" y1="172.7" x2="105.35" y2="134.92"/><line class="cls-2" x1="235.71" y1="52.2" x2="176.16" y2="89.98"/><line class="cls-2" x1="227.41" y1="40.77" x2="173.09" y2="85.7"/><line class="cls-2" x1="54.1" y1="184.14" x2="108.42" y2="139.2"/><line class="cls-2" x1="63.76" y1="194.44" x2="112.05" y2="143.01"/><line class="cls-2" x1="217.74" y1="30.47" x2="169.45" y2="81.9"/><line class="cls-2" x1="74.64" y1="203.45" x2="116.11" y2="146.39"/><line class="cls-2" x1="206.85" y1="21.46" x2="165.4" y2="78.54"/><line class="cls-2" x1="194.94" y1="13.92" x2="160.98" y2="75.7"/><line class="cls-2" x1="86.57" y1="211" x2="120.54" y2="149.23"/><line class="cls-2" x1="182.16" y1="7.89" x2="156.19" y2="73.47"/><line class="cls-2" x1="99.34" y1="217.02" x2="125.31" y2="151.46"/><line class="cls-2" x1="168.72" y1="3.54" x2="151.17" y2="71.86"/><line class="cls-2" x1="112.77" y1="221.39" x2="130.31" y2="153.07"/><line class="cls-2" x1="126.65" y1="224.03" x2="135.49" y2="154.07"/><line class="cls-2" x1="154.85" y1="0.89" x2="146" y2="70.86"/><path class="cls-3" d="M6.5,296.52a6.24,6.24,0,1,1,0-12.47c3.8,0,6,2.64,6.08,5H10.39c-.11-1.49-1.33-3.06-3.94-3.06a4,4,0,0,0-4.15,4.26c0,2.41,1.86,4.27,4.7,4.27s4.92-1.45,5.36-3.39h.22A6,6,0,0,1,6.5,296.52Z"/><path class="cls-3" d="M26.91,289.3v7H24.72v-6.57c0-2.56-1.31-3.82-3.5-3.82a3.62,3.62,0,0,0-3.94,3.82v6.57H15.1V280.11h2.18v8.27a4.76,4.76,0,0,1,4.93-4.33C25.27,284.05,26.91,286,26.91,289.3Z"/><path class="cls-3" d="M43,290.48c0,4.62-1.31,6-2.91,6a1.94,1.94,0,0,1-2-2.19V290H37c0,3.17-1.05,6.48-4.48,6.48-1.89,0-3.22-1.12-3.22-2.78,0-2.47,2.69-3.46,5.73-3.79-3.08-.15-4.81-.81-4.81-2.6,0-2,1.86-3.3,4.83-3.3,3.2,0,5.23,1.55,5.23,5v4.59c0,.73.31,1,.73,1,.61,0,1.79-.55,1.79-4.42a26.25,26.25,0,0,0-.81-6h.22A27,27,0,0,1,43,290.48Zm-4.92-1.18c0-1.64-.66-3.39-3.77-3.39-1.84,0-3.13.63-3.13,1.86,0,1.51,1.64,2.05,5.58,2.05h1.32ZM36.8,290c-3.7,0-5.4,1.09-5.4,2.87a1.66,1.66,0,0,0,1.9,1.75C35.66,294.66,36.8,292.82,36.8,290Z"/><path class="cls-3" d="M47.37,296.3H45.18V280.11h2.19Z"/><path class="cls-3" d="M52.62,296.3H50.43V280.11h2.19Z"/><path class="cls-3" d="M67.83,290.28c0,3.35-2,6.24-6,6.24a6.41,6.41,0,0,1-6.71-6.24,6.28,6.28,0,0,1,6.5-6.23C65.88,284.05,67.83,286.91,67.83,290.28Zm-.22,0H57.32c0,2.41,1.87,4.27,5,4.27S67.5,292.89,67.61,290.28Zm-10-1.64h7.87c-.41-1.64-1.55-2.76-3.87-2.76A3.93,3.93,0,0,0,57.59,288.64Z"/><path class="cls-3" d="M82.16,289.3v7H80v-6.57c0-2.56-1.31-3.82-3.5-3.82a3.61,3.61,0,0,0-3.94,3.82v6.57H70.34v-12h2.19v4.12a4.75,4.75,0,0,1,4.92-4.33C80.52,284.05,82.16,286,82.16,289.3Z"/><path class="cls-3" d="M98.24,296c0,3.13-3.19,4.94-7.22,4.94-3.35,0-5.91-1.05-5.91-3.34a3.41,3.41,0,0,1,1.08-2.41,2,2,0,0,1-1-1.82,3.65,3.65,0,0,1,1.18-2.6,3.5,3.5,0,0,1-1.18-2.63c0-2.6,2.65-4,5.47-4a6.26,6.26,0,0,1,4.51,1.64,2.73,2.73,0,0,0,1.44-2.1c0-1.27-1.22-1.51-2.56-1.51v-2c2.28,0,3.4.79,3.4,2.4a4.14,4.14,0,0,1-2.13,3.35,3.41,3.41,0,0,1,.81,2.23c0,2.61-2.64,4.05-5.47,4.05a6.62,6.62,0,0,1-4.09-1.27,3,3,0,0,0-.83,2,1.47,1.47,0,0,0,1.53,1.6c2.43,0,4.33-1.53,7.24-1.53C97,292.91,98.24,294.09,98.24,296Zm-2.19.57c0-1.07-.68-1.75-2.1-1.75-2.38,0-3.91.76-6.08.76a3.45,3.45,0,0,1-1.49-.28,3,3,0,0,0-.72,1.86c0,2,2.21,2.47,4.66,2.47C93.6,299.58,96.05,298.18,96.05,296.52Zm-8.7-8.43a1.87,1.87,0,0,0,.59,1.38A19.13,19.13,0,0,1,90.65,288c.92-.43,1.9-.85,2.78-1.29a4,4,0,0,0-2.74-.83C88.75,285.86,87.35,286.67,87.35,288.09Zm6.25-1.22c-1,.48-2,.9-2.89,1.31a18.5,18.5,0,0,0-2.6,1.42,4.06,4.06,0,0,0,2.58.72c2,0,3.35-.8,3.35-2.23A1.79,1.79,0,0,0,93.6,286.87Z"/><path class="cls-3" d="M111.92,290.28c0,3.35-2,6.24-6,6.24a6.41,6.41,0,0,1-6.71-6.24,6.27,6.27,0,0,1,6.49-6.23C110,284.05,111.92,286.91,111.92,290.28Zm-.22,0H101.41c0,2.41,1.86,4.27,5,4.27S111.59,292.89,111.7,290.28Zm-10-1.64h7.87c-.41-1.64-1.55-2.76-3.87-2.76A3.93,3.93,0,0,0,101.68,288.64Z"/><path class="cls-3" d="M131.39,290.28c0,3.35-1.95,6.24-6,6.24a6.41,6.41,0,0,1-6.72-6.24,6.28,6.28,0,0,1,6.5-6.23C129.44,284.05,131.39,286.91,131.39,290.28Zm-.22,0H120.89c0,2.41,1.86,4.27,5,4.27S131.06,292.89,131.17,290.28Zm-10-1.64H129c-.42-1.64-1.56-2.76-3.88-2.76A3.93,3.93,0,0,0,121.15,288.64Z"/><path class="cls-3" d="M144.56,296.3h-2.49l-3.28-5.14h-.66l-3.41,5.14h-2.5l4.16-6.15-4.11-5.89h2.51l3.35,4.93h.66l3.21-4.93h2.52l-4,5.89Z"/><path class="cls-3" d="M159.59,290.28a6,6,0,0,1-5.91,6.24c-3.06,0-4.68-2.21-5.12-5v8.76h-2.18v-16h2.18v4.82c.44-2.82,2.06-5,5.12-5A6,6,0,0,1,159.59,290.28Zm-2.29,0a4.37,4.37,0,1,0-4.38,4.27A4.12,4.12,0,0,0,157.3,290.28Z"/><path class="cls-3" d="M174.25,290.28c0,3.35-1.95,6.24-6,6.24a6.41,6.41,0,0,1-6.72-6.24,6.28,6.28,0,0,1,6.5-6.23C172.3,284.05,174.25,286.91,174.25,290.28Zm-.22,0H163.75c0,2.41,1.86,4.27,5,4.27S173.92,292.89,174,290.28Zm-10-1.64h7.88c-.42-1.64-1.56-2.76-3.87-2.76A4,4,0,0,0,164,288.64Z"/><path class="cls-3" d="M182.72,296.52a6.24,6.24,0,1,1,0-12.47c3.81,0,6,2.64,6.08,5h-2.19c-.11-1.49-1.33-3.06-3.93-3.06a4,4,0,0,0-4.16,4.26c0,2.41,1.86,4.27,4.7,4.27s4.93-1.45,5.36-3.39h.22A6,6,0,0,1,182.72,296.52Z"/><path class="cls-3" d="M200.51,284.26v2c-6.41,0-8.31,2.45-8.31,4.95,0,2.1,1.66,3.26,3.6,3.26a4.39,4.39,0,0,0,4.49-4.71h.22c0,4.64-1.75,6.79-4.95,6.79a4.61,4.61,0,0,1-4.9-4.71c0-3.15,2.56-5.12,7.42-5.58H190v-2h4.15v-4.15h2.19v4.15Z"/><path class="cls-3" d="M215.54,290.48c0,4.62-1.31,6-2.91,6a1.94,1.94,0,0,1-2-2.19V290h-1.1c0,3.17-1.05,6.48-4.48,6.48-1.88,0-3.22-1.12-3.22-2.78,0-2.47,2.69-3.46,5.74-3.79-3.09-.15-4.82-.81-4.82-2.6,0-2,1.86-3.3,4.84-3.3,3.19,0,5.23,1.55,5.23,5v4.59c0,.73.3,1,.72,1,.61,0,1.79-.55,1.79-4.42a26.25,26.25,0,0,0-.81-6h.22A27,27,0,0,1,215.54,290.48Zm-4.92-1.18c0-1.64-.66-3.39-3.77-3.39-1.83,0-3.12.63-3.12,1.86,0,1.51,1.64,2.05,5.58,2.05h1.31Zm-1.31.74c-3.7,0-5.41,1.09-5.41,2.87a1.67,1.67,0,0,0,1.9,1.75C208.17,294.66,209.31,292.82,209.31,290Z"/><path class="cls-3" d="M226.88,284.26v2c-6.42,0-8.32,2.45-8.32,4.95,0,2.1,1.66,3.26,3.61,3.26a4.39,4.39,0,0,0,4.49-4.71h.22c0,4.64-1.76,6.79-4.95,6.79a4.61,4.61,0,0,1-4.9-4.71c0-3.15,2.56-5.12,7.42-5.58h-8.08v-2h4.16v-4.15h2.19v4.15Z"/><path class="cls-3" d="M228.3,281.29A1.64,1.64,0,1,1,230,283,1.65,1.65,0,0,1,228.3,281.29Zm2.73,15h-2.19v-12H231Z"/><path class="cls-3" d="M233.55,290.28a6.46,6.46,0,1,1,6.45,6.24A6.26,6.26,0,0,1,233.55,290.28Zm10.61,0a4.16,4.16,0,1,0-4.16,4.2A4.07,4.07,0,0,0,244.16,290.28Z"/><path class="cls-3" d="M260.79,289.3v7H258.6v-6.57c0-2.56-1.31-3.82-3.5-3.82a3.61,3.61,0,0,0-3.94,3.82v6.57H249v-12h2.19v4.12a4.75,4.75,0,0,1,4.92-4.33C259.15,284.05,260.79,286,260.79,289.3Z"/><path class="cls-3" d="M274.79,292.62c0,2.28-2.23,3.9-6,3.9-3.5,0-5.47-1.71-5.47-3.81a3.29,3.29,0,0,1,1.43-2.73,2.57,2.57,0,0,1-1.1-2.24c0-1.9,2-3.69,5.6-3.69,3.81,0,5,2,5.13,4.15a25.68,25.68,0,0,0-6.72.7c.44.07.94.13,1.53.2C273.28,289.54,274.79,290.41,274.79,292.62Zm-2.19.4c0-1.16-.85-1.58-3.94-1.95a10.35,10.35,0,0,1-3.67-.92,2.68,2.68,0,0,0-1,2.1c0,1.88,2,2.85,4.14,2.85C271.31,295.1,272.6,294,272.6,293Zm-5.44-4.23a22,22,0,0,1,5-.76c-.11-1-.83-2.12-3.23-2.12-1.93,0-3.09.74-3.09,1.68C265.82,288.22,266.26,288.57,267.16,288.79Z"/></g></g></svg>