<svg xmlns="http://www.w3.org/2000/svg" viewBox="0 0 16.55 16.55"><defs><style>.cls-1{fill:#aee0cd;}.cls-2{fill:#32383a;}</style></defs><g id="Layer_2" data-name="Layer 2"><g id="Design_Development" data-name="Design Development"><path class="cls-1" d="M8.27,16.55a8.28,8.28,0,1,1,8.28-8.28A8.28,8.28,0,0,1,8.27,16.55Z"/><path class="cls-2" d="M8.72,5v5.34L11.05,8l.4.4-3,3-3-3L5.8,8l2.33,2.33V5Z"/><path class="cls-2" d="M11.68,8.39,8.42,11.64,5.17,8.39l.63-.63L8,9.94V4.82h.91V9.94l2.17-2.18Zm-3.26,2.8,2.81-2.8-.18-.18L8.56,10.7V5.14H8.29V10.7L5.8,8.21l-.18.18Z"/></g></g></svg>