<svg xmlns="http://www.w3.org/2000/svg" viewBox="0 0 18.38 18.38"><defs><style>.cls-1{fill:#faf2df;}.cls-2{fill:#32383a;}</style></defs><g id="Layer_2" data-name="Layer 2"><g id="Design_Development" data-name="Design Development"><path class="cls-1" d="M18.38,9.19A9.19,9.19,0,1,1,9.19,0,9.2,9.2,0,0,1,18.38,9.19Z"/><polygon class="cls-2" points="5.53 8.7 11.46 8.7 8.87 6.11 9.32 5.66 12.68 9.02 9.32 12.39 8.87 11.94 11.46 9.35 5.53 9.35 5.53 8.7"/><polygon class="cls-2" points="9.32 5.42 12.93 9.02 9.32 12.64 8.62 11.94 11.03 9.53 5.36 9.53 5.36 8.52 11.03 8.52 8.62 6.11 9.32 5.42"/><polygon class="cls-2" points="12.43 9.02 9.32 5.91 9.12 6.11 11.89 8.87 5.71 8.87 5.71 9.17 11.88 9.17 9.12 11.94 9.32 12.14 12.43 9.02"/></g></g></svg>