<svg xmlns="http://www.w3.org/2000/svg" viewBox="0 0 39.83 37.39"><defs><style>.cls-1{fill:#32383a;}</style></defs><g id="Layer_2" data-name="Layer 2"><g id="Iconography"><path class="cls-1" d="M35.73,27.66l-1.08.23-.23-1.07,1.07-.24Zm-2.15.46-1.08.23-.23-1.07,1.08-.23Zm-2.15.46-1.08.24-.23-1.08,1.08-.23Z"/><path class="cls-1" d="M38.77,24.82,35.43,9.35,30,10.53,18.49,4.12A3.11,3.11,0,0,0,12.9,1.47l.93.58a2,2,0,0,1,1.29-.9A2,2,0,1,1,16,5.08a2,2,0,0,1-2.4-1.54,2.28,2.28,0,0,1,0-.69l-1.09-.14a3.09,3.09,0,0,0,.81,2.53L5.39,15.83,0,17l4.4,20.4,35.43-7.63L39,25.89l-1.07.23.6,2.79L5.24,36.09,2,21.05l9.12-2L10.89,18,1.77,20l-.46-2.15,3.08-.66L3.77,18l.88.66L6,16.81l23.79-5.12,2.06,1.14.53-1-1-.53,3.14-.68.46,2.15L12,17.78l.23,1.07,23.07-5,2.41,11.17,1.08-.23ZM7,15.48,14.16,5.9a3.15,3.15,0,0,0,2,.26A3.1,3.1,0,0,0,18,5.08l10.41,5.8Z"/><path class="cls-1" d="M14.29,22.73a2.33,2.33,0,0,1,1.24,1.35l-1.79.38a1.12,1.12,0,0,0-.5-.31,1.37,1.37,0,0,0-.67,0,1.32,1.32,0,0,0-.9.64,1.65,1.65,0,0,0-.13,1.2,1.76,1.76,0,0,0,.66,1.13,1.56,1.56,0,0,0,1.25.16,1.46,1.46,0,0,0,.72-.37,1.48,1.48,0,0,0,.39-.73l-1.71.37-.26-1.22,3.12-.67.37,1.69a3.28,3.28,0,0,1-.78,1.54,3,3,0,0,1-1.71.93,3.35,3.35,0,0,1-1.73,0,2.79,2.79,0,0,1-1.32-.87,3.53,3.53,0,0,1-.72-1.55,3.48,3.48,0,0,1,0-1.7,2.76,2.76,0,0,1,.84-1.33,3.41,3.41,0,0,1,1.55-.75A3.14,3.14,0,0,1,14.29,22.73Z"/><path class="cls-1" d="M21.71,20.58l-1.26,4.67.42,1.95-1.71.37-.42-2-3.07-3.73,2-.42,1.59,2.12L19.79,21Z"/><path class="cls-1" d="M29.93,18.84,31.25,25l-1.69.37-.75-3.48-.39,3.72L27,25.89l-1.89-3.23.75,3.47-1.71.37-1.32-6.12,2.1-.45,2.36,3.65.61-4.29Z"/><path class="cls-1" d="M4.54,23.69,5.05,26a.49.49,0,0,0,.59.38A.51.51,0,0,0,6,25.83l-.51-2.35a.49.49,0,0,0-.59-.38A.51.51,0,0,0,4.54,23.69Z"/></g></g></svg>