<svg xmlns="http://www.w3.org/2000/svg" viewBox="0 0 25.02 29.14"><defs><style>.cls-1{fill:#32383a;}</style></defs><g id="Layer_2" data-name="Layer 2"><g id="Iconography"><path class="cls-1" d="M16.24,4a1.71,1.71,0,0,0-1.71-1.7h-4a1.71,1.71,0,1,0,0,3.41h4A1.72,1.72,0,0,0,16.24,4ZM9.92,4a.57.57,0,0,1,.57-.56h4a.57.57,0,1,1,0,1.13h-4A.57.57,0,0,1,9.92,4Z"/><path class="cls-1" d="M24.3,21.33a.57.57,0,0,0-.67.44A11.45,11.45,0,0,1,19.89,28H5.14A11.37,11.37,0,1,1,23.63,16.92a.57.57,0,0,0,1.11-.25A12.54,12.54,0,0,0,21,10.16L19.07,2.52A3.35,3.35,0,0,0,15.83,0H9.19A3.33,3.33,0,0,0,6,2.52L4,10.16l-.35.33A12.52,12.52,0,0,0,4.57,29a.59.59,0,0,0,.36.13H20.1a.61.61,0,0,0,.36-.13,12.55,12.55,0,0,0,4.28-7,.57.57,0,0,0-.44-.68ZM7.06,2.8A2.19,2.19,0,0,1,9.19,1.14h6.64A2.18,2.18,0,0,1,18,2.8L19.54,9a12.56,12.56,0,0,0-7-2.16A12.4,12.4,0,0,0,5.49,9Z"/><path class="cls-1" d="M24.86,18.94a.56.56,0,0,0-.4-.17.57.57,0,0,0-.41.17.59.59,0,0,0-.16.4.58.58,0,0,0,.16.4.57.57,0,0,0,.41.17.56.56,0,0,0,.4-.17.58.58,0,0,0,.16-.4A.59.59,0,0,0,24.86,18.94Z"/><path class="cls-1" d="M15.36,16.35H9.66a.4.4,0,0,0,0,.8h5.7a.4.4,0,1,0,0-.8Z"/><path class="cls-1" d="M15,19.85H10a.4.4,0,0,0,0,.8h5a.4.4,0,0,0,0-.8Z"/><path class="cls-1" d="M15.76,18.1H9.26a.4.4,0,0,0,0,.8h6.5a.4.4,0,0,0,0-.8Z"/></g></g></svg>