<?xml version="1.0" encoding="utf-8"?>
<!-- Generator: Adobe Illustrator 24.1.0, SVG Export Plug-In . SVG Version: 6.00 Build 0)  -->
<svg version="1.1" id="Capa_1" xmlns="http://www.w3.org/2000/svg" xmlns:xlink="http://www.w3.org/1999/xlink" x="0px" y="0px"
	 viewBox="0 0 800 800" style="enable-background:new 0 0 800 800;" xml:space="preserve">
<style type="text/css">
	.st0{fill:#DCD7C5;}
</style>
<g>
	<path class="st0" d="M287.8,223.7c50.6,0,91.8-41.2,91.8-91.8s-41.2-91.8-91.8-91.8c-50.6,0-91.8,41.2-91.8,91.8
		C196,182.5,237.1,223.7,287.8,223.7z"/>
	<path class="st0" d="M682.1,4c-10-2.6-21-4-32.7-4c-30.5,0-60.8,8.9-83,15.4c-5.6,1.6-10.9,3.2-15.4,4.4
		c-7.3,1.9-16.3,2.3-22.5,2.3c-7.4,0-14.9-0.6-20.3-1.5c-2.6-3.3-6.7-5.5-11.3-5.5c-8,0-14.5,6.5-14.5,14.5v314.1l-94.5-97.5
		c-6.1-6.3-16.2-12-31.2-12H226c-20.6,0-33,10.9-38.5,23.6l-74.4,172.1c-8.4,19.5,0.6,42.3,20.1,50.8c4.9,2.1,10,3.2,15.3,3.2
		c15.4,0,29.3-9.1,35.4-23.3l13.5-31.3l0.1,328.3c0,23.4,19.1,42.5,42.5,42.5c23.4,0,42.5-19.1,42.5-42.5V532.2h17.9v225.3
		c0,23.4,19.1,42.5,42.5,42.5c23.4,0,42.5-19.1,42.5-42.5V354.8l83.5,86.1c3.8,3.9,8.3,6.9,13.3,8.9v325.8c0,8,6.5,14.5,14.5,14.5
		c8,0,14.5-6.5,14.5-14.5V449.8c4.6-1.8,8.8-4.6,12.4-8.1c15.3-14.8,15.7-39.3,0.8-54.6l-13.3-13.7V180.2c1.1,0,2.2,0.1,3.3,0.1
		c28.7,0,61.5-6.4,90.2-17.7c12-4.7,25.1-7.1,39.1-7.1c18.9,0,33,4.3,36.9,5.7c0.8,0.3,1.6,0.4,2.4,0.4c2.1,0,3.9-0.9,5.1-2.7
		c1.1-1.6,1.7-3.7,1.7-6.3l0-138.8C690.1,8.2,685.2,4.8,682.1,4z"/>
</g>
</svg>
