<svg xmlns="http://www.w3.org/2000/svg" viewBox="0 0 76.07 15.09"><defs><style>.cls-1{fill:#aee0cd;}.cls-2{fill:#32383a;}</style></defs><g id="Layer_2" data-name="Layer 2"><g id="Design_Development" data-name="Design Development"><path class="cls-1" d="M76.07,7.54A7.55,7.55,0,1,1,68.52,0,7.55,7.55,0,0,1,76.07,7.54Z"/><path class="cls-2" d="M65.52,7.14h4.87L68.26,5l.37-.37,2.76,2.76-2.76,2.76-.37-.37,2.13-2.13H65.52Z"/><path class="cls-2" d="M68.63,4.44l3,3-3,3-.57-.57,2-2H65.38V7H70l-2-2Zm2.55,3L68.63,4.85,68.47,5l2.27,2.26H65.67v.25h5.07L68.47,9.8l.16.16Z"/><path class="cls-2" d="M2.41,11.44H1V.94H2.41Z"/><path class="cls-2" d="M12.27,7.54a3.71,3.71,0,0,1-3.87,4A4.16,4.16,0,0,1,4,7.54a4.08,4.08,0,0,1,4.22-4A3.75,3.75,0,0,1,12.27,7.54Zm-.14,0H5.46c0,1.56,1.21,2.77,3.27,2.77S12.06,9.23,12.13,7.54ZM5.63,6.47h5.11A2.28,2.28,0,0,0,8.23,4.69,2.56,2.56,0,0,0,5.63,6.47Z"/><path class="cls-2" d="M19.86,3.64V4.91c-4.16,0-5.39,1.59-5.39,3.21a2.13,2.13,0,0,0,2.34,2.11,2.84,2.84,0,0,0,2.91-3.05h.14c0,3-1.13,4.4-3.2,4.4a3,3,0,0,1-3.18-3.05c0-2,1.66-3.32,4.81-3.62H13.05V3.64h2.7V.94h1.42v2.7Z"/><path class="cls-2" d="M22.27,3.07c0,1.56-1.64,2-2.55,2V5c.89,0,1.57-.5,1.57-1.27s-.51-1-1.2-1V1.08A1.94,1.94,0,0,1,22.27,3.07Z"/><path class="cls-2" d="M30.43,9.06c0,1.47-1.45,2.52-3.9,2.52-2.27,0-3.55-1.1-3.55-2.47a2.16,2.16,0,0,1,.92-1.77,1.66,1.66,0,0,1-.71-1.45c0-1.23,1.3-2.4,3.64-2.4s3.26,1.29,3.32,2.7a17.11,17.11,0,0,0-4.36.45c.28.05.61.09,1,.13C29.45,7.06,30.43,7.62,30.43,9.06ZM29,9.31c0-.75-.55-1-2.55-1.26a6.71,6.71,0,0,1-2.39-.6,1.75,1.75,0,0,0-.66,1.36c0,1.23,1.32,1.85,2.68,1.85C28.17,10.66,29,10,29,9.31ZM25.48,6.57a14.41,14.41,0,0,1,3.23-.49c-.07-.64-.54-1.38-2.1-1.38-1.24,0-2,.48-2,1.09C24.61,6.2,24.9,6.43,25.48,6.57Z"/><path class="cls-2" d="M43.55,11.21c0,2-2.07,3.21-4.68,3.21-2.17,0-3.83-.68-3.83-2.17a2.22,2.22,0,0,1,.69-1.56,1.31,1.31,0,0,1-.62-1.18,2.38,2.38,0,0,1,.77-1.69,2.25,2.25,0,0,1-.77-1.7c0-1.69,1.72-2.63,3.55-2.63a4.06,4.06,0,0,1,2.92,1.07,1.78,1.78,0,0,0,.94-1.36c0-.83-.8-1-1.66-1V.94c1.47,0,2.2.51,2.2,1.56a2.71,2.71,0,0,1-1.38,2.17,2.23,2.23,0,0,1,.53,1.45c0,1.69-1.72,2.62-3.55,2.62A4.3,4.3,0,0,1,36,7.92a2,2,0,0,0-.54,1.28,1,1,0,0,0,1,1c1.57,0,2.81-1,4.7-1C42.73,9.24,43.55,10,43.55,11.21Zm-1.42.37c0-.69-.44-1.13-1.36-1.13-1.54,0-2.54.49-3.94.49a2.24,2.24,0,0,1-1-.18A2,2,0,0,0,35.39,12c0,1.27,1.44,1.6,3,1.6C40.54,13.57,42.13,12.66,42.13,11.58ZM36.49,6.12a1.23,1.23,0,0,0,.38.89,11.93,11.93,0,0,1,1.76-1c.6-.29,1.23-.56,1.8-.84a2.62,2.62,0,0,0-1.77-.54C37.39,4.67,36.49,5.2,36.49,6.12Zm4-.8c-.62.32-1.29.59-1.87.86A11.64,11.64,0,0,0,37,7.1a2.71,2.71,0,0,0,1.68.47c1.26,0,2.17-.53,2.17-1.45A1.19,1.19,0,0,0,40.54,5.32Z"/><path class="cls-2" d="M44.19,7.54a4.19,4.19,0,1,1,4.19,4A4.07,4.07,0,0,1,44.19,7.54Zm6.88,0a2.7,2.7,0,1,0-5.39,0,2.7,2.7,0,1,0,5.39,0Z"/><path class="cls-2" d="M53.55,10.5a1.07,1.07,0,1,1,1.08,1.08A1.08,1.08,0,0,1,53.55,10.5Z"/><path class="cls-2" d="M0,13.21V12.5H31v.71Z"/></g></g></svg>