<svg xmlns="http://www.w3.org/2000/svg" viewBox="0 0 23.91 23.91"><defs><style>.cls-1{fill:#aee0cd;}.cls-2{fill:#32383a;}</style></defs><g id="Layer_2" data-name="Layer 2"><g id="Design_Development" data-name="Design Development"><path class="cls-1" d="M23.91,12A12,12,0,1,1,12,0,11.95,11.95,0,0,1,23.91,12Z"/><path class="cls-2" d="M7.2,11.32h7.71L11.54,8l.59-.58,4.37,4.37-4.37,4.38-.59-.59,3.37-3.37H7.2Z"/><path class="cls-2" d="M12.13,7l4.69,4.7-4.69,4.7-.91-.91,3.14-3.14H7v-1.3h7.39L11.22,8Zm4,4.7-4-4L11.87,8l3.6,3.59h-8v.4h8l-3.6,3.59.26.26Z"/></g></g></svg>