<svg xmlns="http://www.w3.org/2000/svg" viewBox="0 0 107.05 15.09"><defs><style>.cls-1{fill:#32383a;}.cls-2{fill:#aee0cd;}</style></defs><g id="Layer_2" data-name="Layer 2"><g id="Design_Development" data-name="Design Development"><path class="cls-1" d="M2.41,11.81H1V1.31H2.41Z"/><path class="cls-1" d="M4,7.91A4.07,4.07,0,0,1,8.23,3.86a4,4,0,1,1,0,8.09A4.07,4.07,0,0,1,4,7.91Zm6.89,0a2.65,2.65,0,0,0-2.7-2.73,2.65,2.65,0,0,0-2.7,2.73,2.64,2.64,0,0,0,2.7,2.72A2.64,2.64,0,0,0,10.93,7.91Z"/><path class="cls-1" d="M22.49,11.58c0,2-2.07,3.21-4.69,3.21-2.17,0-3.83-.68-3.83-2.17a2.24,2.24,0,0,1,.7-1.56A1.3,1.3,0,0,1,14,9.88a2.38,2.38,0,0,1,.77-1.69A2.24,2.24,0,0,1,14,6.49c0-1.69,1.72-2.63,3.55-2.63a4.09,4.09,0,0,1,2.93,1.07,1.79,1.79,0,0,0,.93-1.36c0-.83-.79-1-1.66-1V1.31c1.48,0,2.2.51,2.2,1.56A2.68,2.68,0,0,1,20.61,5a2.23,2.23,0,0,1,.53,1.45c0,1.69-1.72,2.62-3.55,2.62a4.27,4.27,0,0,1-2.65-.82,2,2,0,0,0-.54,1.28,1,1,0,0,0,1,1c1.58,0,2.81-1,4.7-1C21.66,9.61,22.49,10.38,22.49,11.58ZM21.07,12c0-.69-.44-1.13-1.36-1.13-1.55,0-2.54.49-4,.49a2.2,2.2,0,0,1-1-.18,1.93,1.93,0,0,0-.47,1.21c0,1.27,1.43,1.6,3,1.6C19.48,13.94,21.07,13,21.07,12ZM15.42,6.49a1.23,1.23,0,0,0,.38.89,11.93,11.93,0,0,1,1.76-1c.6-.29,1.24-.56,1.81-.84A2.65,2.65,0,0,0,17.59,5C16.33,5,15.42,5.57,15.42,6.49Zm4.06-.8c-.63.32-1.29.59-1.87.86a10.68,10.68,0,0,0-1.69.92,2.67,2.67,0,0,0,1.67.47c1.26,0,2.17-.53,2.17-1.45A1.24,1.24,0,0,0,19.48,5.69Z"/><path class="cls-1" d="M26.24,2.08a1.08,1.08,0,0,1,1.08-1,1.06,1.06,0,0,1,0,2.12A1.08,1.08,0,0,1,26.24,2.08ZM28,11.81H26.6V4H28Z"/><path class="cls-1" d="M37.67,7.27v4.54H36.25V7.55c0-1.66-.85-2.48-2.27-2.48a2.35,2.35,0,0,0-2.56,2.48v4.26H30V4h1.42V6.67a3.09,3.09,0,0,1,3.2-2.81C36.6,3.86,37.67,5.16,37.67,7.27Z"/><path class="cls-1" d="M48.73,4V5.28c-4.16,0-5.39,1.59-5.39,3.21a2.13,2.13,0,0,0,2.34,2.11,2.84,2.84,0,0,0,2.91-3h.14c0,3-1.13,4.4-3.21,4.4a3,3,0,0,1-3.18-3c0-2,1.67-3.32,4.82-3.62H41.92V4h2.7V1.31H46V4Z"/><path class="cls-1" d="M49.65,7.91a4.19,4.19,0,1,1,4.19,4A4.07,4.07,0,0,1,49.65,7.91Zm6.88,0a2.7,2.7,0,1,0-5.39,0,2.7,2.7,0,1,0,5.39,0Z"/><path class="cls-1" d="M71.34,7.91a3.88,3.88,0,0,1-3.83,4c-2,0-3-1.43-3.32-3.26v5.68H62.77V4h1.42V7.13c.29-1.83,1.34-3.27,3.32-3.27A3.88,3.88,0,0,1,71.34,7.91Zm-1.49,0a2.83,2.83,0,0,0-5.66,0,2.83,2.83,0,0,0,5.66,0Z"/><path class="cls-1" d="M74.39,11.81H73V1.31h1.42Z"/><path class="cls-1" d="M84,4,81.2,10.68c-1,2.27-2.07,3.83-4.81,3.83V13.23A3.27,3.27,0,0,0,79.6,11h-.9L75.55,4h1.54l2.54,5.67h.49L82.52,4Z"/><path class="cls-1" d="M84,10.87A1.06,1.06,0,1,1,85,12,1.07,1.07,0,0,1,84,10.87Z"/><path class="cls-1" d="M0,13.58v-.7H38.66v.7Z"/><path class="cls-2" d="M107.05,7.54A7.55,7.55,0,1,1,99.5,0,7.55,7.55,0,0,1,107.05,7.54Z"/><path class="cls-1" d="M96.5,7.14h4.87L99.24,5l.37-.37,2.76,2.76-2.76,2.76-.37-.37,2.13-2.13H96.5Z"/><path class="cls-1" d="M99.61,4.44l3,3-3,3L99,9.8l2-2H96.36V7H101L99,5Zm2.55,3L99.61,4.85,99.45,5l2.27,2.26H96.65v.25h5.07L99.45,9.8l.16.16Z"/></g></g></svg>