<svg xmlns="http://www.w3.org/2000/svg" viewBox="0 0 26.46 26.47"><defs><style>.cls-1{fill:#32383a;}</style></defs><g id="Layer_2" data-name="Layer 2"><g id="Iconography"><path class="cls-1" d="M24.17,5.79a.51.51,0,0,0-.85.58,12.23,12.23,0,0,1,2.1,6.35H22.85a.52.52,0,1,0,0,1h2.57A12.23,12.23,0,0,1,16.7,24.93a9.57,9.57,0,0,0,1.81-2.46,19.94,19.94,0,0,0,2.06-9.24A19.86,19.86,0,0,0,18.51,4,9.94,9.94,0,0,0,16.7,1.53,12.34,12.34,0,0,1,20.17,3.2a.52.52,0,0,0,.59-.85A13.23,13.23,0,0,0,3.87,3.88a13.24,13.24,0,0,0,9.36,22.59A13.24,13.24,0,0,0,24.17,5.79ZM13.23,25.43c-1.62,0-3.17-1.22-4.37-3.45a18.87,18.87,0,0,1-1.94-8.75,20.93,20.93,0,0,1,1-6.46.52.52,0,0,0-1-.32,22.35,22.35,0,0,0-1,6.78A19.94,19.94,0,0,0,8,22.47a10.06,10.06,0,0,0,1.81,2.46A12.25,12.25,0,0,1,1,13.75H3.62a.52.52,0,0,0,0-1H1A12.23,12.23,0,0,1,9.77,1.54a8,8,0,0,0-.82.9.52.52,0,0,0,.82.64,4.53,4.53,0,0,1,3.46-2c1.63,0,3.18,1.23,4.37,3.46a18.83,18.83,0,0,1,1.94,8.74A18.87,18.87,0,0,1,17.6,22C16.41,24.21,14.86,25.43,13.23,25.43Z"/><path class="cls-1" d="M22.65,3.93l-.06-.05a.5.5,0,0,0-.73,0,.52.52,0,0,0,0,.73l.05,0a.51.51,0,0,0,.37.15.51.51,0,0,0,.36-.15A.52.52,0,0,0,22.65,3.93Z"/><path class="cls-1" d="M8.43,4.17a.52.52,0,0,0-.69.23l0,0A.52.52,0,0,0,8,5.14a.59.59,0,0,0,.23.05.52.52,0,0,0,.46-.29l0,0A.51.51,0,0,0,8.43,4.17Z"/><path class="cls-1" d="M16,11.13H10.45a.39.39,0,1,0,0,.78H16a.39.39,0,1,0,0-.78Z"/><path class="cls-1" d="M15.66,14.55H10.81a.4.4,0,1,0,0,.79h4.85a.4.4,0,0,0,0-.79Z"/><path class="cls-1" d="M16.41,12.84H10.06a.4.4,0,0,0-.4.39.39.39,0,0,0,.4.39h6.35a.39.39,0,0,0,.39-.39A.4.4,0,0,0,16.41,12.84Z"/><path class="cls-1" d="M13.62,16.41V10.06a.39.39,0,1,0-.78,0v6.35a.39.39,0,0,0,.78,0Z"/></g></g></svg>