<svg xmlns="http://www.w3.org/2000/svg" viewBox="0 0 34.39 32.09"><defs><style>.cls-1{fill:#32383a;}</style></defs><g id="Layer_2" data-name="Layer 2"><g id="Iconography"><g id="outline"><path class="cls-1" d="M0,0V32.09H34.39V0ZM1.15,3.44H3.44V2.29H1.15V1.15H14.9V3.44h3.44V4.59H14.9V8h3.44V9.17H14.9v3.44h3.44v1.14H16.62v3.44H14.9V13.75H11.46v3.44H10.32V13.75H6.88v3.44H5.73V13.75H2.29v3.44H1.15ZM18.34,31H1.15V18.34H3.44V14.9H4.58v3.44H8V14.9H9.17v3.44h3.44V14.9h1.14v3.44H14.9v2.29h3.44v1.15H14.9v3.44h3.44v1.14H14.9V29.8h3.44Zm14.9-2.29H31.52V29.8h1.72V31H19.49V28.66H16.05V27.51h3.44V24.07H16.05V22.93h3.44V19.49H16.05V18.34h1.72V14.9h1.72v3.44h3.44V14.9h1.14v3.44h3.44V14.9h1.15v3.44h3.43V14.9h1.15ZM32.09,3.44V1.15h1.15v12.6H31v3.44H29.8V13.75H26.36v3.44H25.22V13.75H21.78v3.44H20.63V13.75H19.49V11.46H16.05V10.32h3.44V6.88H16.05V5.73h3.44V2.29H16.05V1.15H31V3.44Z"/><rect class="cls-1" x="30.95" y="4.59" width="1.15" height="1.15"/><rect class="cls-1" x="2.29" y="28.66" width="1.14" height="1.15"/><rect class="cls-1" x="4.58" y="28.66" width="1.15" height="1.15"/></g></g></g></svg>