<svg xmlns="http://www.w3.org/2000/svg" viewBox="0 0 42.53 12.49"><defs><style>.cls-1{fill:#aee0cd;}</style></defs><g id="Layer_2" data-name="Layer 2"><g id="Design_Development" data-name="Design Development"><path class="cls-1" d="M7.94,6.38a3.59,3.59,0,0,1-3.55,3.74c-1.84,0-2.81-1.32-3.08-3v5.26H0V2.76H1.31v2.9c.27-1.7,1.24-3,3.08-3A3.6,3.6,0,0,1,7.94,6.38Zm-1.38,0A2.48,2.48,0,0,0,3.93,3.81,2.47,2.47,0,0,0,1.31,6.38,2.47,2.47,0,0,0,3.93,8.94,2.48,2.48,0,0,0,6.56,6.38Z"/><path class="cls-1" d="M10.77,10H9.45V.26h1.32Z"/><path class="cls-1" d="M19.68,2.76l-2.6,6.18c-.89,2.1-1.92,3.55-4.46,3.55V11.31a3,3,0,0,0,3-2.11h-.82L11.85,2.76h1.42L15.62,8h.46L18.3,2.76Z"/><path class="cls-1" d="M19.64,9.13a1,1,0,1,1,1,1A1,1,0,0,1,19.64,9.13Z"/><path class="cls-1" d="M24.44,10H23.13V.26h1.31Z"/><path class="cls-1" d="M26,1a1,1,0,0,1,2,0,1,1,0,1,1-2,0Zm1.64,9H26.29V2.76H27.6Z"/><path class="cls-1" d="M34.31,2.76V4H29.77c2.11.29,3.47,1.52,3.47,3.09s-1.09,3-3.51,3V8.81a2,2,0,0,0,2.2-2.08c0-1.35-.66-2.78-3.15-2.78V2.76h3.08c-2-.14-2.81-.51-2.81-1.26,0-.91,1.14-1.5,2.42-1.5s2.71.54,2.71,2.11H32.86c0-.76-.83-1.06-1.65-1.06-.62,0-1.7.17-1.7.73S30.24,2.76,34.31,2.76Z"/><path class="cls-1" d="M42.53,6.38a3.44,3.44,0,0,1-3.59,3.74,3.85,3.85,0,0,1-4-3.74,3.78,3.78,0,0,1,3.91-3.75A3.47,3.47,0,0,1,42.53,6.38Zm-.13,0H36.21c0,1.44,1.12,2.56,3,2.56S42.33,8,42.4,6.38Zm-6-1h4.74a2.12,2.12,0,0,0-2.33-1.65A2.38,2.38,0,0,0,36.37,5.39Z"/></g></g></svg>