<svg xmlns="http://www.w3.org/2000/svg" viewBox="0 0 224.92 224.93"><defs><style>.cls-1,.cls-2{fill:none;stroke:#32383a;stroke-miterlimit:10;}.cls-1{stroke-width:1.51px;}.cls-2{stroke-width:1.01px;}</style></defs><g id="Layer_2" data-name="Layer 2"><g id="Design_Development" data-name="Design Development"><line class="cls-1" x1="105.41" y1="0.22" x2="107.74" y2="37.16"/><line class="cls-1" x1="119.54" y1="224.71" x2="117.21" y2="187.76"/><line class="cls-1" x1="133.55" y1="222.95" x2="126.62" y2="186.64"/><line class="cls-1" x1="91.4" y1="2" x2="98.32" y2="38.29"/><line class="cls-1" x1="147.22" y1="219.42" x2="135.8" y2="184.29"/><line class="cls-1" x1="89.13" y1="40.64" x2="77.71" y2="5.51"/><line class="cls-1" x1="64.59" y1="10.7" x2="80.33" y2="44.18"/><line class="cls-1" x1="144.59" y1="180.76" x2="160.36" y2="214.23"/><line class="cls-1" x1="72.02" y1="48.73" x2="52.21" y2="17.5"/><line class="cls-1" x1="172.73" y1="207.41" x2="152.91" y2="176.2"/><line class="cls-1" x1="160.62" y1="170.67" x2="184.15" y2="199.11"/><line class="cls-1" x1="40.78" y1="25.81" x2="64.32" y2="54.25"/><line class="cls-1" x1="57.46" y1="60.8" x2="30.49" y2="35.47"/><line class="cls-1" x1="194.45" y1="189.46" x2="167.48" y2="164.13"/><line class="cls-1" x1="173.52" y1="156.82" x2="203.45" y2="178.56"/><line class="cls-1" x1="21.49" y1="46.35" x2="51.41" y2="68.1"/><line class="cls-1" x1="46.27" y1="76.07" x2="13.92" y2="58.28"/><line class="cls-1" x1="211.02" y1="166.63" x2="178.66" y2="148.84"/><line class="cls-1" x1="7.9" y1="71.06" x2="42.27" y2="84.67"/><line class="cls-1" x1="182.66" y1="140.25" x2="217.02" y2="153.85"/><line class="cls-1" x1="39.38" y1="93.69" x2="3.53" y2="84.49"/><line class="cls-1" x1="221.39" y1="140.42" x2="185.56" y2="131.23"/><line class="cls-1" x1="0.88" y1="98.37" x2="37.58" y2="102.99"/><line class="cls-1" x1="224.04" y1="126.54" x2="187.35" y2="121.91"/><line class="cls-1" x1="224.92" y1="112.45" x2="188" y2="112.45"/><line class="cls-1" x1="36.92" y1="112.46" y2="112.46"/><line class="cls-1" x1="224.04" y1="98.36" x2="187.35" y2="102.99"/><line class="cls-1" x1="37.58" y1="121.91" x2="0.88" y2="126.54"/><line class="cls-1" x1="39.36" y1="131.23" x2="3.52" y2="140.42"/><line class="cls-1" x1="221.38" y1="84.47" x2="185.55" y2="93.68"/><line class="cls-1" x1="42.26" y1="140.25" x2="7.88" y2="153.86"/><line class="cls-1" x1="217.02" y1="71.05" x2="182.65" y2="84.66"/><line class="cls-1" x1="211" y1="58.27" x2="178.64" y2="76.05"/><line class="cls-1" x1="46.26" y1="148.84" x2="13.9" y2="166.63"/><line class="cls-1" x1="51.4" y1="156.82" x2="21.46" y2="178.55"/><line class="cls-1" x1="203.44" y1="46.35" x2="173.51" y2="68.1"/><line class="cls-1" x1="194.44" y1="35.47" x2="167.46" y2="60.79"/><line class="cls-1" x1="57.44" y1="164.12" x2="30.46" y2="189.43"/><line class="cls-1" x1="64.3" y1="170.67" x2="40.75" y2="199.11"/><line class="cls-1" x1="184.13" y1="25.81" x2="160.6" y2="54.25"/><line class="cls-1" x1="172.7" y1="17.5" x2="152.89" y2="48.73"/><line class="cls-1" x1="72" y1="176.19" x2="52.17" y2="207.41"/><line class="cls-1" x1="80.3" y1="180.76" x2="64.55" y2="214.21"/><line class="cls-1" x1="160.34" y1="10.7" x2="144.58" y2="44.18"/><line class="cls-1" x1="89.1" y1="184.28" x2="77.68" y2="219.41"/><line class="cls-1" x1="147.2" y1="5.51" x2="135.78" y2="40.64"/><line class="cls-1" x1="133.52" y1="2" x2="126.59" y2="38.29"/><line class="cls-1" x1="91.37" y1="222.93" x2="98.29" y2="186.63"/><line class="cls-1" x1="105.37" y1="224.71" x2="107.7" y2="187.76"/><line class="cls-1" x1="119.51" y1="0.22" x2="117.18" y2="37.16"/><line class="cls-2" x1="112.47" x2="112.47" y2="70.5"/><line class="cls-2" x1="112.47" y1="224.93" x2="112.47" y2="154.44"/><line class="cls-2" x1="117.73" y1="154.07" x2="126.56" y2="224.04"/><line class="cls-2" x1="98.38" y1="0.89" x2="107.21" y2="70.86"/><line class="cls-2" x1="102.05" y1="71.86" x2="84.51" y2="3.54"/><line class="cls-2" x1="140.44" y1="221.39" x2="122.9" y2="153.07"/><line class="cls-2" x1="127.91" y1="151.47" x2="153.87" y2="217.02"/><line class="cls-2" x1="71.08" y1="7.89" x2="97.04" y2="73.47"/><line class="cls-2" x1="92.26" y1="75.7" x2="58.3" y2="13.92"/><line class="cls-2" x1="166.64" y1="211.01" x2="132.69" y2="149.24"/><line class="cls-2" x1="46.36" y1="21.46" x2="87.82" y2="78.54"/><line class="cls-2" x1="137.11" y1="146.39" x2="178.56" y2="203.45"/><line class="cls-2" x1="83.77" y1="81.9" x2="35.48" y2="30.47"/><line class="cls-2" x1="189.45" y1="194.44" x2="141.17" y2="143.02"/><line class="cls-2" x1="144.8" y1="139.2" x2="199.12" y2="184.14"/><line class="cls-2" x1="25.81" y1="40.77" x2="80.13" y2="85.72"/><line class="cls-2" x1="77.06" y1="89.98" x2="17.52" y2="52.2"/><line class="cls-2" x1="207.42" y1="172.72" x2="147.87" y2="134.93"/><line class="cls-2" x1="10.71" y1="64.57" x2="74.53" y2="94.6"/><line class="cls-2" x1="150.4" y1="130.31" x2="214.22" y2="160.35"/><line class="cls-2" x1="72.56" y1="99.48" x2="5.51" y2="77.71"/><line class="cls-2" x1="219.42" y1="147.21" x2="152.37" y2="125.43"/><line class="cls-2" x1="153.67" y1="120.31" x2="222.93" y2="133.53"/><line class="cls-2" x1="2" y1="91.37" x2="71.26" y2="104.59"/><line class="cls-2" x1="224.7" y1="119.51" x2="154.3" y2="115.08"/><line class="cls-2" x1="70.62" y1="109.83" x2="0.22" y2="105.4"/><line class="cls-2" x1="0.22" y1="119.52" x2="70.62" y2="115.08"/><line class="cls-2" x1="224.7" y1="105.38" x2="154.3" y2="109.81"/><line class="cls-2" x1="222.93" y1="91.37" x2="153.66" y2="104.58"/><line class="cls-2" x1="1.99" y1="133.53" x2="71.26" y2="120.31"/><line class="cls-2" x1="5.5" y1="147.21" x2="72.56" y2="125.42"/><line class="cls-2" x1="219.41" y1="77.7" x2="152.36" y2="99.48"/><line class="cls-2" x1="214.21" y1="64.56" x2="150.39" y2="94.59"/><line class="cls-2" x1="10.69" y1="160.35" x2="74.52" y2="130.3"/><line class="cls-2" x1="17.49" y1="172.7" x2="77.04" y2="134.92"/><line class="cls-2" x1="207.4" y1="52.2" x2="147.85" y2="89.98"/><line class="cls-2" x1="199.1" y1="40.77" x2="144.79" y2="85.7"/><line class="cls-2" x1="25.8" y1="184.14" x2="80.11" y2="139.2"/><line class="cls-2" x1="35.46" y1="194.44" x2="83.75" y2="143.01"/><line class="cls-2" x1="189.44" y1="30.47" x2="141.15" y2="81.9"/><line class="cls-2" x1="46.34" y1="203.45" x2="87.8" y2="146.39"/><line class="cls-2" x1="178.55" y1="21.46" x2="137.09" y2="78.54"/><line class="cls-2" x1="166.63" y1="13.92" x2="132.67" y2="75.7"/><line class="cls-2" x1="58.26" y1="211" x2="92.23" y2="149.23"/><line class="cls-2" x1="153.85" y1="7.89" x2="127.88" y2="73.47"/><line class="cls-2" x1="71.03" y1="217.02" x2="97" y2="151.46"/><line class="cls-2" x1="140.41" y1="3.54" x2="122.87" y2="71.86"/><line class="cls-2" x1="84.47" y1="221.39" x2="102.01" y2="153.07"/><line class="cls-2" x1="98.35" y1="224.03" x2="107.18" y2="154.06"/><line class="cls-2" x1="126.54" y1="0.89" x2="117.69" y2="70.86"/></g></g></svg>