<svg xmlns="http://www.w3.org/2000/svg" viewBox="0 0 42.67 26.46"><defs><style>.cls-1{fill:#faf2df;}</style></defs><g id="Layer_2" data-name="Layer 2"><g id="Layer_1-2" data-name="Layer 1"><path class="cls-1" d="M41.05,7.71v.86h-.18V7.71h-.32V7.55h.83v.16Z"/><path class="cls-1" d="M42.5,8.57V7.82l-.32.75H42l-.31-.75v.75h-.17v-1h.23l.33.77.32-.77h.24v1Z"/><path class="cls-1" d="M15.53,14.51a7,7,0,0,1-6.94,7.33c-3.6,0-5.51-2.6-6-5.92V26.21H0V7.44H2.57V13.1c.51-3.32,2.42-5.91,6-5.91A7,7,0,0,1,15.53,14.51Zm-2.7,0a4.84,4.84,0,0,0-5.14-5,4.82,4.82,0,0,0-5.12,5,4.82,4.82,0,0,0,5.12,5A4.85,4.85,0,0,0,12.83,14.51Z"/><path class="cls-1" d="M38.48,7.44,33.39,19.53c-1.75,4.11-3.75,6.93-8.72,6.93V24.15c3,0,4.68-1.54,5.81-4.11H28.87L23.16,7.44h2.77l4.61,10.28h.89L35.78,7.44Z"/><path class="cls-1" d="M37.05,20.29a1.53,1.53,0,1,1,1.54,1.55A1.53,1.53,0,0,1,37.05,20.29Z"/><polygon class="cls-1" points="17.41 2.03 18.49 2.9 18.49 21.58 21.06 21.58 21.06 0 17.41 2.03"/></g></g></svg>