<svg xmlns="http://www.w3.org/2000/svg" viewBox="0 0 35.13 35.13"><defs><style>.cls-1{fill:#32383a;}</style></defs><g id="Layer_2" data-name="Layer 2"><g id="Iconography"><path class="cls-1" d="M11.26,9.38V8.14H23.87V9.38Zm8.58,20.18a.51.51,0,0,0-.51.51v1.76H15.81V30.07a.51.51,0,0,0-.52-.51h-.62V10.41h5.79V29.56Zm3.92-29A.51.51,0,0,0,23.25,0H21a.52.52,0,0,0-.52.52V7.11H14.67V.52A.51.51,0,0,0,14.16,0H11.88a.51.51,0,0,0-.51.52V7.11H9v-4a.52.52,0,1,0-1,0v0H5.06a.51.51,0,0,0-.51.51V4.83H2.79a.52.52,0,0,0-.52.52V7.11H.51A.51.51,0,0,0,0,7.62V9.9a.51.51,0,0,0,.51.51H2.27v1.76a.51.51,0,0,0,.52.51H4.55v1.19a.51.51,0,0,0,.51.52H8v0a.52.52,0,1,0,1,0v-4h2.38V29.56h-.62a.51.51,0,0,0-.52.51v1.76H2.75a1.61,1.61,0,0,0-1.61,1.61v1.18a.51.51,0,0,0,.51.51H5.79a.52.52,0,1,0,0-1H2.17v-.66a.58.58,0,0,1,.58-.58H32.38a.58.58,0,0,1,.59.58v.66H7.85a.52.52,0,0,0,0,1H33.48a.51.51,0,0,0,.52-.51V33.44a1.62,1.62,0,0,0-1.62-1.61H24.9V30.07a.51.51,0,0,0-.51-.51h-.63V10.41h2.39v4a.51.51,0,0,0,.51.52.52.52,0,0,0,.52-.52v0h2.89a.52.52,0,0,0,.52-.52V12.68h1.75a.51.51,0,0,0,.52-.51V10.41h1.76a.51.51,0,0,0,.51-.51V7.62a.51.51,0,0,0-.51-.51H32.86V5.35a.52.52,0,0,0-.52-.52H30.59V3.64a.51.51,0,0,0-.52-.51H27.18v0a.52.52,0,0,0-.52-.52.51.51,0,0,0-.51.52v4H23.76Zm-1,6.59H21.49V3.32h1.25Zm0-6.08V2.27H21.49V1Zm-9.1,0V2.27H12.4V1ZM12.4,3.32h1.24V7.11H12.4ZM1,9.38V8.14H2.27V9.38ZM3.3,11.65V5.86H4.55v5.79Zm2.28,1.71V4.16H8v9.2ZM9,8.14h1.24V9.38H9Zm3.41,2.27h1.24V29.56H12.4V10.41ZM11.26,31.83V30.58h3.52v1.25Zm12.61,0H20.35V30.58h3.52v1.25Zm-1.13-2.27H21.49V10.41h1.25ZM24.9,9.38V8.14h1.25V9.38Zm4.66,4H27.18V4.16h2.38v9.2Zm2.27-1.71H30.59V5.86h1.24v5.79ZM34.1,9.38H32.86V8.14H34.1Z"/></g></g></svg>