<svg xmlns="http://www.w3.org/2000/svg" viewBox="0 0 56.36 34.13"><defs><style>.cls-1{fill:#32383a;}</style></defs><g id="Layer_2" data-name="Layer 2"><g id="Iconography"><path class="cls-1" d="M45.64,17.75a2.94,2.94,0,1,1,2.46,1.33,3,3,0,0,1-.85-.12.57.57,0,0,0-.67.8c.25.46,1.08.45,1.52.45A4.07,4.07,0,1,0,44,16.14a4,4,0,0,0,.67,2.23.57.57,0,0,0,.78.17A.58.58,0,0,0,45.64,17.75Z"/><path class="cls-1" d="M38.45,8h-.93a.92.92,0,0,1-.92-.92v-5a.93.93,0,0,1,.92-.93h.93Zm7.13,16a8.06,8.06,0,0,0,2.52.4,8.21,8.21,0,0,0,4.12-1.1L48.74,32ZM4,27.87H1.75a1.81,1.81,0,0,0,0,3.62H5.82V33H2.31a.57.57,0,0,0,0,1.13h7.92a.57.57,0,0,0,0-1.13H7V31.49H31.13a.57.57,0,0,0,.42-.19l9.62-10.68a8.42,8.42,0,0,0,2.94,2.75L47.93,33H44.86a.57.57,0,0,0,0,1.13h7.47a.57.57,0,0,0,0-1.13H49.56L54,21.93a8.25,8.25,0,0,0,.32-11.25.57.57,0,0,0-.85.75,7.08,7.08,0,1,1-2.1-1.64.56.56,0,0,0,.52-1,8.26,8.26,0,0,0-7.44,0L39.58,4.32V.57A.56.56,0,0,0,39,0H37.52a2.05,2.05,0,0,0-2.05,2.06v5a2.05,2.05,0,0,0,2.05,2H39a.56.56,0,0,0,.57-.56V5.85l3.83,3.49a18,18,0,0,0-2.8,2.71l-3,3.32-5,5.44a.57.57,0,0,0,.84.77L40,14.35a8.6,8.6,0,0,0-.18,2.37l-10,11.15H4ZM1.75,29H30.08a.57.57,0,0,0,.42-.19l9.59-10.66a8.53,8.53,0,0,0,.5,1.42L30.88,30.36H1.75A.68.68,0,0,1,1.75,29Z"/><path class="cls-1" d="M14.15,26.4a1.64,1.64,0,0,0,0-3.28H10A.43.43,0,0,0,10,24h4.12a.79.79,0,0,1,0,1.58H7.94a.79.79,0,0,1,0-1.58h.28a.43.43,0,0,0,0-.85H7.94a1.64,1.64,0,0,0,0,3.28h2.51v1.74h.85V26.4Z"/><path class="cls-1" d="M11.3,28.25h-.85a.1.1,0,0,1-.1-.11V26.51H7.94a1.65,1.65,0,0,1-1.69-1.75,1.82,1.82,0,0,1,.42-1.19A1.62,1.62,0,0,1,7.94,23h.28a.51.51,0,0,1,.52.53.51.51,0,0,1-.52.53H7.94a.59.59,0,0,0-.49.21.7.7,0,0,0-.17.47.65.65,0,0,0,.66.69h6.21a.65.65,0,0,0,.66-.69.64.64,0,0,0-.66-.68H10a.51.51,0,0,1-.52-.53A.51.51,0,0,1,10,23h4.12a1.75,1.75,0,0,1,0,3.49H11.4v1.63A.1.1,0,0,1,11.3,28.25ZM10.56,28h.63V26.4a.11.11,0,0,1,.11-.11h2.85a1.53,1.53,0,0,0,0-3.06H10a.3.3,0,0,0-.31.32.29.29,0,0,0,.31.31h4.12a.9.9,0,0,1,0,1.8H7.94a.86.86,0,0,1-.87-.9.92.92,0,0,1,.21-.61.85.85,0,0,1,.66-.29h.28a.29.29,0,0,0,.31-.31.3.3,0,0,0-.31-.32H7.94a1.53,1.53,0,0,0,0,3.06h2.51a.11.11,0,0,1,.11.11Z"/><path class="cls-1" d="M32.77,21.86H31.09a.63.63,0,0,1-.63-.62.64.64,0,0,1,.63-.64h1.68a.64.64,0,0,1,.63.64A.63.63,0,0,1,32.77,21.86Z"/></g></g></svg>