<svg xmlns="http://www.w3.org/2000/svg" viewBox="0 0 24.88 24.83"><defs><style>.cls-1{fill:#32383a;}</style></defs><g id="Layer_2" data-name="Layer 2"><g id="Design_Development" data-name="Design Development"><path class="cls-1" d="M20.5,16.61a4.07,4.07,0,0,0-3.28,1.67l-7-3.8a5.2,5.2,0,0,0,0-4l7-3.8a4.24,4.24,0,1,0-.55-1L9.62,9.5a5.28,5.28,0,1,0,0,6l7.05,3.8a3.8,3.8,0,0,0-.27,1.41,4.11,4.11,0,1,0,4.1-4.11Zm0-15.25a2.93,2.93,0,1,1-2.93,2.93A2.92,2.92,0,0,1,20.5,1.36ZM5.25,16.61A4.11,4.11,0,1,1,9.36,12.5a4.12,4.12,0,0,1-4.11,4.11Zm15.25,7a2.93,2.93,0,1,1,2.94-2.93,2.94,2.94,0,0,1-2.94,2.93Z"/></g></g></svg>