<svg id="Layer_1" data-name="Layer 1" xmlns="http://www.w3.org/2000/svg" viewBox="0 0 8.89 14.01"><defs><style>.cls-1{fill:#b1daca;}</style></defs><path class="cls-1" d="M293.06,424.94h7.47l-2.24-2.24.39-.39,2.91,2.91-2.91,2.91-.39-.39,2.24-2.24h-7.47Z" transform="translate(-292.91 -414.34)"/><path class="cls-1" d="M298.68,422.09l3.12,3.13-3.12,3.12-.61-.6,2.09-2.09h-7.25v-.87h7.25l-2.09-2.08Zm2.69,3.13-2.69-2.7-.17.18,2.39,2.39h-7.69v.26h7.69l-2.39,2.39.17.17Z" transform="translate(-292.91 -414.34)"/><path class="cls-1" d="M301.63,417.74h-7.37L296.5,420l-.39.39-2.9-2.9,2.9-2.91.39.38-2.24,2.24h7.37Z" transform="translate(-292.91 -414.34)"/><path class="cls-1" d="M296.11,420.59,293,417.47l3.12-3.13.61.6L294.63,417h7.15v.87h-7.15l2.09,2.08Zm-2.69-3.12,2.69,2.69.18-.18-2.4-2.39h7.59v-.26h-7.59l2.4-2.39-.18-.17Z" transform="translate(-292.91 -414.34)"/></svg>