<svg xmlns="http://www.w3.org/2000/svg" viewBox="0 0 22.69 22.69"><defs><style>.cls-1{fill:#32383a;}.cls-2{fill:#aee0cd;}</style></defs><g id="Layer_2" data-name="Layer 2"><g id="Design_Development" data-name="Design Development"><path class="cls-1" d="M22.69,11.34A11.35,11.35,0,1,1,11.35,0,11.35,11.35,0,0,1,22.69,11.34Z"/><path class="cls-2" d="M9.48,8.49V15l5.61-3.24Z"/><path class="cls-2" d="M9.48,15.22a.25.25,0,0,1-.12,0,.22.22,0,0,1-.12-.2V8.49a.22.22,0,0,1,.12-.2.25.25,0,0,1,.24,0l5.61,3.24a.24.24,0,0,1,.12.21.24.24,0,0,1-.12.2L9.6,15.18A.28.28,0,0,1,9.48,15.22Zm.23-6.31v5.66l4.91-2.83Z"/></g></g></svg>