<svg xmlns="http://www.w3.org/2000/svg" viewBox="0 0 6.09 6.96"><defs><style>.cls-1{fill:#32383a;}</style></defs><g id="Layer_2" data-name="Layer 2"><g id="Layer_1-2" data-name="Layer 1"><g id="Layer_2-2" data-name="Layer 2"><g id="Design_Development" data-name="Design Development"><path class="cls-1" d="M.24.23V6.74L5.85,3.5Z"/><path class="cls-1" d="M.24,7A.13.13,0,0,1,.12,7,.24.24,0,0,1,0,6.75V.23A.24.24,0,0,1,.12,0,.25.25,0,0,1,.36,0L6,3.27a.24.24,0,0,1,.12.21.24.24,0,0,1-.12.2L.36,6.92A.18.18,0,0,1,.24,7ZM.47.65V6.3L5.38,3.48Z"/></g></g></g></g></svg>