<svg id="Layer_1" data-name="Layer 1" xmlns="http://www.w3.org/2000/svg" viewBox="0 0 10.44 8.27"><defs><style>.cls-1{fill:#33383a;}</style></defs><path class="cls-1" d="M297.48,419v3.42l-1-.7-1.38-1,1.38-1,1-.71m1.23-2.43-2.92,2.14h-2.11v4h2.11l2.92,2.14c0-6.24,0-3.18,0-8.28Z" transform="translate(-293.68 -416.61)"/><path class="cls-1" d="M301.28,424.79a.52.52,0,0,1-.46-.3.5.5,0,0,1,.27-.65,3.43,3.43,0,0,0,1.06-.72,3.36,3.36,0,0,0,.72-1.07,3.22,3.22,0,0,0,.27-1.3,3.35,3.35,0,0,0-1-2.37,3.43,3.43,0,0,0-1.06-.72.49.49,0,0,1-.27-.64.5.5,0,0,1,.65-.27,4.33,4.33,0,0,1,2.65,4,4.25,4.25,0,0,1-.34,1.69,4.42,4.42,0,0,1-.93,1.38,4.48,4.48,0,0,1-1.38.93A.65.65,0,0,1,301.28,424.79Z" transform="translate(-293.68 -416.61)"/><path class="cls-1" d="M300.35,422.81a.45.45,0,0,1-.42-.29.46.46,0,0,1,.24-.6,1.41,1.41,0,0,0,.4-.27,1.25,1.25,0,0,0,.28-.41,1.34,1.34,0,0,0,.1-.49,1.16,1.16,0,0,0-.1-.49,1.39,1.39,0,0,0-.27-.41,1.62,1.62,0,0,0-.41-.27.46.46,0,0,1,.36-.85,2.19,2.19,0,0,1,1.34,2,2.26,2.26,0,0,1-.17.85,2.19,2.19,0,0,1-1.17,1.17A.58.58,0,0,1,300.35,422.81Z" transform="translate(-293.68 -416.61)"/></svg>