<svg xmlns="http://www.w3.org/2000/svg" viewBox="0 0 18.22 21.03"><defs><style>.cls-1{opacity:0.9;}.cls-2{fill:#32383a;}</style></defs><g id="Layer_2" data-name="Layer 2"><g id="Design_Development" data-name="Design Development"><g class="cls-1"><path class="cls-2" d="M16.67,6.83,17.53,6a.35.35,0,0,0,0-.5l-2-2a.36.36,0,0,0-.49,0l-.87.87A9.09,9.09,0,0,0,9.46,2.81V.7h1.75a.35.35,0,0,0,.35-.35A.35.35,0,0,0,11.21,0H7a.35.35,0,0,0-.35.35A.35.35,0,0,0,7,.7H8.76V2.81A9.09,9.09,0,0,0,4,4.36l-.87-.87a.34.34,0,0,0-.49,0l-2,2A.34.34,0,0,0,.69,6l.86.87a9.11,9.11,0,1,0,15.12,0M15.31,4.24l1.48,1.48-.54.54a9.07,9.07,0,0,0-1.49-1.48ZM1.43,5.72,2.91,4.24l.55.54A9.07,9.07,0,0,0,2,6.26Zm7.68,14.6a8.41,8.41,0,1,1,8.41-8.41,8.41,8.41,0,0,1-8.41,8.41"/><path class="cls-2" d="M15.79,15.75a7.67,7.67,0,0,0,0-7.67v0l0,0A7.69,7.69,0,0,0,13,5.25h0a7.69,7.69,0,0,0-7.68,0h0A7.62,7.62,0,0,0,2.45,8l0,0v0a7.52,7.52,0,0,0-1,3.43.43.43,0,0,1,0,.05s0,0,0,0,0,.21,0,.31a7.62,7.62,0,0,0,1,3.84v0a7.93,7.93,0,0,0,2.79,2.79h0a7.7,7.7,0,0,0,7.66,0h0a0,0,0,0,1,0,0,7.93,7.93,0,0,0,2.79-2.79v0m-2.88,2-.52-.89a.36.36,0,0,0-.48-.14.37.37,0,0,0-.13.48h0l.52.89a6.72,6.72,0,0,1-2.84.76V17.17a.35.35,0,0,0-.7,0V18.9a6.72,6.72,0,0,1-2.84-.76l.52-.89a.35.35,0,0,0-.61-.36h0l-.52.89a6.88,6.88,0,0,1-2.08-2.08l.9-.52a.35.35,0,0,0,.13-.47.35.35,0,0,0-.48-.13h0l-.9.52a7,7,0,0,1-.78-3.2H3.85a.34.34,0,0,0,.35-.35.35.35,0,0,0-.35-.35H2.14a6.83,6.83,0,0,1,.74-2.49l.9.52a.35.35,0,0,0,.48-.13.36.36,0,0,0-.13-.48h0l-.9-.52A7.11,7.11,0,0,1,5.31,6l.52.9a.35.35,0,0,0,.48.13.35.35,0,0,0,.13-.48h0l-.52-.9a7,7,0,0,1,2.84-.76V6.66a.35.35,0,0,0,.7,0V4.92a7,7,0,0,1,2.84.76l-.51.9a.35.35,0,1,0,.6.35h0l.52-.9A7.11,7.11,0,0,1,15,8.11l-.9.52a.37.37,0,0,0-.13.48.35.35,0,0,0,.48.13h0l.9-.52a7,7,0,0,1,.76,2.84H14a.35.35,0,0,0-.35.35.34.34,0,0,0,.35.35H16.1a7,7,0,0,1-.76,2.85l-.9-.52a.35.35,0,0,0-.35.6h0l.9.52a6.88,6.88,0,0,1-2.08,2.08"/><path class="cls-2" d="M9.46,10.93V8.06a.35.35,0,1,0-.7,0v2.87a1.05,1.05,0,1,0,1.34.64,1,1,0,0,0-.64-.64m-.35,1.33a.35.35,0,0,1-.35-.35.35.35,0,0,1,.7,0,.35.35,0,0,1-.35.35"/></g></g></g></svg>